<svg width="1680" height="977" viewBox="0 0 1680 977" fill="none" xmlns="http://www.w3.org/2000/svg">
<path fill-rule="evenodd" clip-rule="evenodd" d="M214.468 0.0507812C96.0206 0.0507812 0 96.0714 0 214.519V880.051C0 913.654 0 930.456 6.53961 943.29C12.292 954.58 21.4708 963.759 32.7606 969.511C45.5953 976.051 62.3968 976.051 95.9999 976.051H417.021H428.936H834.042H845.958H1251.06H1262.98H1584C1617.6 976.051 1634.4 976.051 1647.24 969.511C1658.53 963.759 1667.71 954.58 1673.46 943.29C1680 930.456 1680 913.654 1680 880.051V214.519C1680 96.0714 1583.98 0.0507812 1465.53 0.0507812C1366.76 0.0507812 1283.59 66.8142 1258.68 157.673C1258.14 159.623 1257.88 160.598 1257.52 160.803C1257.2 160.985 1256.84 160.985 1256.52 160.803C1256.17 160.598 1255.9 159.623 1255.36 157.673C1230.45 66.8142 1147.28 0.0507812 1048.51 0.0507812C949.744 0.0507812 866.57 66.814 841.657 157.673C841.123 159.622 840.855 160.597 840.498 160.803C840.182 160.984 839.818 160.984 839.502 160.803C839.145 160.597 838.877 159.622 838.343 157.673C813.43 66.814 730.257 0.0507812 631.49 0.0507812C532.722 0.0507812 449.548 66.8144 424.636 157.673C424.102 159.623 423.834 160.598 423.477 160.804C423.161 160.985 422.797 160.985 422.481 160.804C422.123 160.598 421.856 159.623 421.321 157.673C396.409 66.8144 313.235 0.0507812 214.468 0.0507812Z" fill="#D84E00"/>
</svg>
