<svg width="1573" height="889" viewBox="0 0 1573 889" fill="none" xmlns="http://www.w3.org/2000/svg">
<path d="M317.308 346.753C304.509 345.61 282.14 340.584 256.497 316.698C265.483 368.935 254.237 392.571 241.432 404.325L241.42 404.335L241.409 404.345C237.626 407.61 233.589 410.131 229.522 412.669C227.72 413.794 225.912 414.922 224.119 416.121C218.232 420.054 212.261 424.869 206.481 433.068L206.48 433.069C196.909 446.6 194.689 460.174 193.127 469.72C193.027 470.329 192.93 470.922 192.834 471.497C188.954 496.978 194.951 517.37 199.664 529.99L200.403 531.969L198.404 531.286C196.514 530.64 187.862 528.624 176.636 529.148C165.427 529.672 151.738 532.725 139.671 542.119C112.951 563.003 110.61 603.237 127.604 629.364C144.771 654.678 176.011 657.973 180.714 658.324L182.271 658.44L181.515 659.806C158.528 701.29 160.786 748.317 186.478 777.339C202.722 795.48 234.136 813.282 267.303 804.49C267.454 804.439 267.677 804.368 267.965 804.276C273.446 802.53 302.712 793.209 314.998 765.416L314.999 765.413C318.481 757.614 321.349 746.811 321.427 736.739C321.505 726.634 318.784 717.548 311.426 712.751L311.419 712.746C306.916 709.755 300.255 708.213 293.663 708.79C287.08 709.368 280.719 712.042 276.69 717.298L276.683 717.307C273.327 721.584 272.391 726.676 272.355 730.973C272.324 734.718 272.973 737.767 273.252 739.073C273.293 739.265 273.326 739.42 273.347 739.533L273.609 740.916L272.217 740.709C272.096 740.691 271.969 740.672 271.838 740.653C267.364 739.992 256.929 738.452 248.865 730.106L248.862 730.102C242.94 723.915 240.446 715.795 240.311 707.811C240.177 699.84 242.388 691.923 245.98 686.034C252.792 674.159 266.122 667.162 280.886 664.409C295.668 661.654 312.068 663.113 325.257 668.335L325.264 668.337L325.271 668.34C353.421 679.97 363.445 706.937 369.318 722.736L369.536 723.323L369.537 723.326C383.752 761.934 374.269 798.394 368.521 815.804C411.586 791.249 454.714 766.804 497.842 742.359C540.268 718.312 582.693 694.265 625.058 670.114C613.56 671.242 591.946 671.206 570.943 659.934L570.924 659.924L570.906 659.913C533.012 637.41 531.22 593.504 530.922 586.22L530.922 586.213C530.211 574.875 529.556 553.26 544.536 535.806L544.539 535.802C551.048 528.28 560.65 521.329 570.454 517.393C580.216 513.473 590.447 512.445 597.995 517.224C602.286 519.941 605.823 524.638 607.726 529.528C609.611 534.374 609.988 539.684 607.534 543.515C606.095 546.072 603.843 547.423 601.246 548.195C598.795 548.922 595.943 549.16 593.066 549.4L592.666 549.433C586.529 549.947 580.157 550.598 575.317 555.43L575.311 555.435L575.306 555.441C571.59 559.041 569.585 564.45 569.124 570.198C568.664 575.942 569.759 581.898 572.096 586.486L572.101 586.496C575.851 594.062 582.914 598.018 590.353 600.166C596.893 602.055 603.587 602.51 608.36 602.835C609.013 602.879 609.631 602.921 610.207 602.964C631.603 603.427 658.262 595.33 676.021 574.115C699.242 546.006 692.106 512.703 689.917 502.491C689.841 502.135 689.77 501.806 689.708 501.507C680.491 462.291 647.086 444.317 639.764 440.558L639.756 440.554L639.747 440.55C615.586 427.582 592.167 427.025 581.61 427.617L579.899 427.713L580.657 426.176C583.584 420.245 589.321 404.76 586.373 386.397L586.355 386.3C585.045 379.393 579.588 350.6 552.229 339.297L552.22 339.293C528.676 329.283 505.419 339.613 500.722 341.7L500.697 341.711L500.687 341.715C475.653 352.516 465.752 374.072 464.003 378.694L463.051 381.208L462.128 378.684C459.914 372.629 455.856 363.393 448.141 354.452C444.235 349.926 433.216 337.484 416.99 333.544C409.679 331.769 404.419 332.407 397.258 334.255C395.227 334.779 393.038 335.403 390.606 336.096C384.443 337.852 376.724 340.051 366.102 342.192L366.093 342.194C353.288 344.653 334.42 348.094 317.319 346.754L317.308 346.753Z" stroke="#101010" stroke-width="2"/>
<path d="M954.489 373.898C953.893 373.799 953.296 373.699 952.699 373.597C972.111 391.784 1014.54 426.641 1079.03 441.02C1159.53 459.047 1223.84 432.937 1249.47 422.438M954.489 373.898C954.036 373.478 953.594 373.065 953.164 372.661C1048.21 388.813 1132.96 367.319 1168.98 311.434C1185.8 284.466 1201.55 230.939 1178.41 204.298C1164.86 189.509 1139.44 184.32 1133.14 183.21C1114.87 179.992 1099.93 182.238 1090.43 184.322C1090.4 184.006 1090.37 183.671 1090.34 183.317M954.489 373.898C1049.07 389.598 1133.66 368.076 1169.82 311.975L1169.82 311.969L1169.82 311.963C1178.31 298.37 1186.5 278.119 1189.67 257.898C1192.83 237.714 1191.03 217.298 1179.17 203.642L1179.16 203.632L1179.15 203.622C1172.22 196.058 1162.3 190.994 1153.41 187.687C1144.49 184.373 1136.5 182.786 1133.31 182.225C1114.95 178.991 1099.92 181.226 1090.34 183.317M954.489 373.898C974.314 392.282 1016.2 425.987 1079.25 440.044L1079.25 440.044C1159.42 457.999 1223.48 432.002 1249.08 421.515M1090.34 183.317C1090.01 183.391 1089.68 183.464 1089.36 183.536C1088.72 175.589 1089.51 158.226 1100.19 140.775C1104.02 134.133 1115.92 115.705 1139.01 110.698M1090.34 183.317C1089.74 175.461 1090.56 158.422 1101.04 141.297L1101.05 141.286L1101.05 141.275C1104.86 134.686 1116.57 116.591 1139.22 111.676M1139.01 110.698C1156.51 107.122 1171.68 113.39 1177.36 116.424C1177.34 116.622 1177.33 116.781 1177.32 116.897L1178.32 116.957L1178.82 116.091C1178.7 116.018 1178.56 115.941 1178.42 115.861C1178.98 110.519 1182.31 90.0779 1199.95 79.4808M1139.01 110.698L1139.22 111.675C1139.22 111.675 1139.22 111.676 1139.22 111.676M1139.01 110.698L1139.21 111.677C1139.21 111.677 1139.21 111.677 1139.22 111.676M1199.95 79.4808C1217.24 69.2223 1235.25 75.1984 1243.65 78.1502C1262.81 84.4123 1273.12 98.1105 1277.4 104.084C1277.31 104.229 1277.23 104.359 1277.17 104.47L1278.04 104.97L1278.85 104.389L1278.68 104.153C1278.66 104.121 1278.64 104.089 1278.61 104.057C1282.08 98.8804 1297.02 80.528 1322.07 77.9004M1199.95 79.4808L1200.47 80.338C1200.47 80.3382 1200.47 80.3384 1200.47 80.3387M1199.95 79.4808L1200.46 80.3407C1200.46 80.34 1200.47 80.3393 1200.47 80.3387M1322.07 77.9004C1322.14 77.8932 1322.22 77.8854 1322.3 77.8771C1327.48 77.3661 1349.96 75.1449 1366.56 91.5825C1377.87 102.698 1380.38 116.51 1381.08 122.498C1380.85 122.854 1380.62 123.214 1380.4 123.576L1381.25 124.101L1382.25 124.006C1382.21 123.646 1382.17 123.223 1382.12 122.742C1391.98 107.701 1407.76 98.7114 1423.37 100.353M1322.07 77.9004L1322.17 78.895C1322.17 78.8951 1322.17 78.8952 1322.17 78.8953M1322.07 77.9004L1322.16 78.8957C1322.16 78.8955 1322.17 78.8954 1322.17 78.8953M1423.37 100.353C1441.6 102.662 1452.45 117.78 1457.16 124.929C1465.47 137.537 1468.03 150.247 1468.76 157.197C1468.64 157.25 1468.54 157.299 1468.44 157.342L1468.86 158.251L1469.85 158.165C1469.84 158.046 1469.83 157.925 1469.82 157.801C1475.99 154.898 1498.54 144.403 1516.36 154.694C1530.35 162.773 1534.1 179.047 1539.02 200.446C1539.1 200.776 1539.17 201.106 1539.25 201.438M1423.37 100.353L1423.26 101.347C1423.26 101.347 1423.25 101.346 1423.25 101.346M1423.37 100.353L1423.24 101.345C1423.24 101.345 1423.25 101.346 1423.25 101.346M1539.25 201.438C1543.87 223.111 1543.42 241.257 1542.53 252.8C1542.21 252.639 1541.89 252.475 1541.56 252.311M1539.25 201.438L1538.28 201.662C1538.28 201.659 1538.28 201.657 1538.27 201.654M1539.25 201.438L1538.27 201.646C1538.27 201.649 1538.27 201.652 1538.27 201.654M1541.56 252.311C1541.53 252.676 1541.5 253.036 1541.48 253.388C1531.19 248.179 1514.81 241.438 1493.06 239.909C1492.84 239.896 1492.59 239.881 1492.33 239.864C1483.67 239.326 1450.5 237.266 1422.77 255.606C1403.58 268.297 1396.37 284.333 1388.33 302.224C1385.68 308.134 1382.93 314.247 1379.63 320.508C1347.23 380.949 1284.78 407.451 1250.96 421.805C1250.45 422.018 1249.96 422.229 1249.47 422.438M1541.56 252.311C1531.18 247.09 1514.8 240.435 1493.13 238.911L1493.12 238.911L1493.12 238.911C1492.9 238.897 1492.65 238.882 1492.37 238.865C1483.7 238.325 1450.23 236.242 1422.22 254.772C1409.28 263.328 1401.72 273.391 1395.73 284.457C1392.74 289.976 1390.14 295.752 1387.47 301.694L1387.42 301.803C1384.77 307.719 1382.03 313.806 1378.75 320.038M1541.56 252.311C1542.42 240.808 1542.81 222.942 1538.27 201.654M1249.47 422.438L1249.09 421.512C1249.09 421.513 1249.08 421.514 1249.08 421.515M1249.47 422.438L1249.08 421.517C1249.08 421.517 1249.08 421.516 1249.08 421.515M1249.08 421.515C1249.55 421.315 1250.03 421.112 1250.51 420.907C1284.35 406.547 1346.52 380.164 1378.75 320.038M1378.75 320.038C1378.74 320.04 1378.74 320.041 1378.74 320.042L1379.63 320.508L1378.75 320.036C1378.75 320.037 1378.75 320.037 1378.75 320.038ZM1538.27 201.654C1538.2 201.342 1538.13 201.032 1538.06 200.722C1535.62 190.143 1533.5 180.924 1530.32 173.32C1527.06 165.524 1522.71 159.518 1515.86 155.56C1506.7 150.271 1496.19 150.627 1487.33 152.614C1479.43 154.387 1472.97 157.425 1470.13 158.76C1469.79 158.92 1469.5 159.055 1469.27 159.161L1467.98 159.749L1467.86 158.338C1467.29 151.783 1464.95 138.572 1456.32 125.479C1451.61 118.33 1440.99 103.598 1423.25 101.346M1423.25 101.346C1407.66 99.7111 1391.74 109.014 1382.1 124.626L1380.54 127.158L1380.26 124.197C1379.81 119.555 1378.08 104.306 1365.86 92.2958L1365.86 92.2932C1349.59 76.1902 1327.52 78.3671 1322.38 78.8741C1322.31 78.8815 1322.24 78.8886 1322.17 78.8953M1322.17 78.8953C1308.97 80.2802 1298.62 86.1107 1291.32 92.0245C1284.01 97.9485 1279.8 103.917 1278.9 105.47L1278.13 106.816L1277.22 105.551L1277.07 105.336C1273.13 99.8083 1262.93 85.5034 1243.34 79.1008L1243.32 79.0973L1243.31 79.0936C1234.91 76.1399 1217.32 70.3398 1200.47 80.3387M1200.47 80.3387C1191.05 85.9933 1185.8 94.5372 1182.88 102.02C1179.95 109.505 1179.39 115.862 1179.32 117.018L1179.22 118.632L1177.82 117.823C1173.19 115.149 1157.48 107.947 1139.22 111.676" stroke="#101010" stroke-width="2"/>
<path d="M286.704 287.249C286.704 265.158 304.613 247.249 326.704 247.249H1406.7C1428.8 247.249 1446.7 265.158 1446.7 287.249V821.249C1446.7 843.34 1428.8 861.249 1406.7 861.249H326.704C304.613 861.249 286.704 843.34 286.704 821.249V287.249Z" fill="#101010"/>
<rect x="514.204" y="451.749" width="706" height="48" rx="24" fill="#ECE1CF"/>
<rect x="514.204" y="451.749" width="706" height="48" rx="24" stroke="#ECE1CF"/>
<rect x="514.204" y="451.749" width="706" height="48" rx="24" stroke="#ECE1CF"/>
<path opacity="0.5" d="M544.816 480.249H539.952V469.577H544.704C545.621 469.577 546.347 469.828 546.88 470.329C547.424 470.83 547.696 471.486 547.696 472.297C547.696 472.937 547.515 473.481 547.152 473.929C546.789 474.366 546.347 474.638 545.824 474.745C546.389 474.83 546.875 475.129 547.28 475.641C547.696 476.153 547.904 476.729 547.904 477.369C547.904 478.233 547.627 478.932 547.072 479.465C546.528 479.988 545.776 480.249 544.816 480.249ZM544.48 474.201C545.067 474.201 545.52 474.041 545.84 473.721C546.16 473.401 546.32 472.99 546.32 472.489C546.32 471.988 546.155 471.577 545.824 471.257C545.504 470.926 545.056 470.761 544.48 470.761H541.28V474.201H544.48ZM544.544 479.065C545.163 479.065 545.648 478.9 546 478.569C546.352 478.238 546.528 477.79 546.528 477.225C546.528 476.702 546.352 476.265 546 475.913C545.659 475.561 545.173 475.385 544.544 475.385H541.28V479.065H544.544ZM554.303 480.249H549.967V472.521H554.223C554.895 472.521 555.423 472.702 555.807 473.065C556.201 473.428 556.399 473.908 556.399 474.505C556.399 474.942 556.276 475.321 556.031 475.641C555.796 475.95 555.503 476.158 555.151 476.265C555.545 476.361 555.876 476.59 556.143 476.953C556.42 477.316 556.559 477.716 556.559 478.153C556.559 478.782 556.356 479.289 555.951 479.673C555.556 480.057 555.007 480.249 554.303 480.249ZM554.063 479.193C554.447 479.193 554.751 479.086 554.975 478.873C555.199 478.66 555.311 478.372 555.311 478.009C555.311 477.678 555.199 477.396 554.975 477.161C554.751 476.926 554.447 476.809 554.063 476.809H551.167V479.193H554.063ZM554.015 475.753C554.377 475.753 554.66 475.657 554.863 475.465C555.065 475.262 555.167 475.001 555.167 474.681C555.167 474.34 555.065 474.073 554.863 473.881C554.66 473.678 554.377 473.577 554.015 473.577H551.167V475.753H554.015ZM562.314 480.441C561.162 480.441 560.218 480.068 559.482 479.321C558.746 478.564 558.378 477.582 558.378 476.377C558.378 475.246 558.741 474.292 559.466 473.513C560.191 472.724 561.098 472.329 562.186 472.329C563.327 472.329 564.229 472.724 564.89 473.513C565.562 474.292 565.898 475.278 565.898 476.473V476.777H559.642C559.695 477.534 559.973 478.169 560.474 478.681C560.975 479.193 561.626 479.449 562.426 479.449C563.386 479.449 564.181 479.124 564.81 478.473L565.386 479.257C564.597 480.046 563.573 480.441 562.314 480.441ZM564.714 475.897C564.703 475.236 564.479 474.644 564.042 474.121C563.605 473.588 562.981 473.321 562.17 473.321C561.402 473.321 560.794 473.582 560.346 474.105C559.909 474.628 559.674 475.225 559.642 475.897H564.714ZM566.93 482.217V479.257C567.324 479.182 567.634 478.948 567.858 478.553C568.082 478.148 568.263 477.406 568.402 476.329L568.898 472.521H574.274V479.193H575.17V482.217H573.97V480.249H568.13V482.217H566.93ZM569.954 473.577L569.602 476.473C569.42 477.828 569.047 478.734 568.482 479.193H573.074V473.577H569.954ZM577.962 480.249H576.81V472.521H578.01V478.425L582.058 472.521H583.242V480.249H582.042V474.233L577.962 480.249ZM588.246 480.249H587.046V473.577H584.806V472.521H590.502V473.577H588.246V480.249ZM595.564 480.441C594.412 480.441 593.468 480.068 592.732 479.321C591.996 478.564 591.628 477.582 591.628 476.377C591.628 475.246 591.991 474.292 592.716 473.513C593.441 472.724 594.348 472.329 595.436 472.329C596.577 472.329 597.479 472.724 598.14 473.513C598.812 474.292 599.148 475.278 599.148 476.473V476.777H592.892C592.945 477.534 593.223 478.169 593.724 478.681C594.225 479.193 594.876 479.449 595.676 479.449C596.636 479.449 597.431 479.124 598.06 478.473L598.636 479.257C597.847 480.046 596.823 480.441 595.564 480.441ZM597.964 475.897C597.953 475.236 597.729 474.644 597.292 474.121C596.855 473.588 596.231 473.321 595.42 473.321C594.652 473.321 594.044 473.582 593.596 474.105C593.159 474.628 592.924 475.225 592.892 475.897H597.964ZM607.953 480.441C606.47 480.441 605.307 480.02 604.465 479.177L605.057 478.409C605.782 479.102 606.747 479.449 607.953 479.449C608.646 479.449 609.195 479.326 609.601 479.081C610.017 478.836 610.225 478.51 610.225 478.105C610.225 477.252 609.414 476.825 607.793 476.825H606.065V475.849H607.793C608.465 475.849 609.014 475.742 609.441 475.529C609.867 475.305 610.081 474.98 610.081 474.553C610.081 474.19 609.867 473.897 609.441 473.673C609.014 473.438 608.475 473.321 607.825 473.321C606.747 473.321 605.883 473.652 605.233 474.313L604.609 473.577C605.409 472.756 606.465 472.345 607.777 472.345C608.833 472.334 609.686 472.516 610.337 472.889C610.998 473.252 611.329 473.758 611.329 474.409C611.329 474.942 611.11 475.374 610.673 475.705C610.246 476.036 609.771 476.233 609.249 476.297C609.793 476.34 610.299 476.521 610.769 476.841C611.249 477.161 611.489 477.609 611.489 478.185C611.489 478.846 611.169 479.39 610.529 479.817C609.899 480.233 609.041 480.441 607.953 480.441ZM619.467 480.249H618.267V479.369C617.617 480.084 616.763 480.441 615.707 480.441C614.993 480.441 614.363 480.212 613.819 479.753C613.275 479.294 613.003 478.67 613.003 477.881C613.003 477.07 613.27 476.446 613.803 476.009C614.347 475.561 614.982 475.337 615.707 475.337C616.806 475.337 617.659 475.689 618.267 476.393V475.001C618.267 474.489 618.086 474.089 617.723 473.801C617.361 473.513 616.891 473.369 616.315 473.369C615.409 473.369 614.619 473.726 613.947 474.441L613.387 473.609C614.209 472.756 615.238 472.329 616.475 472.329C617.361 472.329 618.081 472.542 618.635 472.969C619.19 473.396 619.467 474.052 619.467 474.937V480.249ZM616.139 479.577C617.099 479.577 617.809 479.257 618.267 478.617V477.161C617.809 476.521 617.099 476.201 616.139 476.201C615.585 476.201 615.126 476.361 614.763 476.681C614.411 476.99 614.235 477.396 614.235 477.897C614.235 478.388 614.411 478.793 614.763 479.113C615.126 479.422 615.585 479.577 616.139 479.577ZM628.305 480.249H627.105V473.577H623.073V480.249H621.873V472.521H628.305V480.249ZM634.509 480.441C633.421 480.441 632.552 479.988 631.901 479.081V483.193H630.701V472.521H631.901V473.673C632.189 473.268 632.562 472.942 633.021 472.697C633.48 472.452 633.976 472.329 634.509 472.329C635.533 472.329 636.36 472.697 636.989 473.433C637.629 474.158 637.949 475.14 637.949 476.377C637.949 477.614 637.629 478.601 636.989 479.337C636.36 480.073 635.533 480.441 634.509 480.441ZM634.205 479.369C634.962 479.369 635.565 479.092 636.013 478.537C636.461 477.972 636.685 477.252 636.685 476.377C636.685 475.502 636.461 474.788 636.013 474.233C635.565 473.678 634.962 473.401 634.205 473.401C633.746 473.401 633.298 473.524 632.861 473.769C632.434 474.004 632.114 474.292 631.901 474.633V478.121C632.114 478.473 632.434 478.772 632.861 479.017C633.298 479.252 633.746 479.369 634.205 479.369ZM646.001 479.273C645.308 480.052 644.385 480.441 643.233 480.441C642.081 480.441 641.153 480.052 640.449 479.273C639.756 478.494 639.409 477.529 639.409 476.377C639.409 475.225 639.756 474.265 640.449 473.497C641.153 472.718 642.081 472.329 643.233 472.329C644.385 472.329 645.308 472.718 646.001 473.497C646.705 474.265 647.057 475.225 647.057 476.377C647.057 477.529 646.705 478.494 646.001 479.273ZM641.345 478.505C641.815 479.081 642.444 479.369 643.233 479.369C644.023 479.369 644.647 479.081 645.105 478.505C645.564 477.918 645.793 477.209 645.793 476.377C645.793 475.545 645.564 474.841 645.105 474.265C644.647 473.689 644.023 473.401 643.233 473.401C642.444 473.401 641.815 473.694 641.345 474.281C640.887 474.857 640.657 475.556 640.657 476.377C640.657 477.209 640.887 477.918 641.345 478.505ZM652.421 480.441C651.28 480.441 650.352 480.057 649.637 479.289C648.923 478.51 648.565 477.54 648.565 476.377C648.565 475.214 648.923 474.249 649.637 473.481C650.352 472.713 651.28 472.329 652.421 472.329C653.616 472.329 654.56 472.777 655.253 473.673L654.453 474.409C653.963 473.737 653.307 473.401 652.485 473.401C651.675 473.401 651.024 473.678 650.533 474.233C650.053 474.788 649.813 475.502 649.813 476.377C649.813 477.252 650.053 477.972 650.533 478.537C651.024 479.092 651.675 479.369 652.485 479.369C653.296 479.369 653.952 479.033 654.453 478.361L655.253 479.097C654.56 479.993 653.616 480.441 652.421 480.441ZM662.212 480.249H661.06V472.521H662.26V478.425L666.308 472.521H667.492V480.249H666.292V474.233L662.212 480.249ZM678.349 480.249H674.013V472.521H678.269C678.941 472.521 679.469 472.702 679.853 473.065C680.248 473.428 680.445 473.908 680.445 474.505C680.445 474.942 680.323 475.321 680.077 475.641C679.843 475.95 679.549 476.158 679.197 476.265C679.592 476.361 679.923 476.59 680.189 476.953C680.467 477.316 680.605 477.716 680.605 478.153C680.605 478.782 680.403 479.289 679.997 479.673C679.603 480.057 679.053 480.249 678.349 480.249ZM678.109 479.193C678.493 479.193 678.797 479.086 679.021 478.873C679.245 478.66 679.357 478.372 679.357 478.009C679.357 477.678 679.245 477.396 679.021 477.161C678.797 476.926 678.493 476.809 678.109 476.809H675.213V479.193H678.109ZM678.061 475.753C678.424 475.753 678.707 475.657 678.909 475.465C679.112 475.262 679.213 475.001 679.213 474.681C679.213 474.34 679.112 474.073 678.909 473.881C678.707 473.678 678.424 473.577 678.061 473.577H675.213V475.753H678.061ZM689.017 479.273C688.324 480.052 687.401 480.441 686.249 480.441C685.097 480.441 684.169 480.052 683.465 479.273C682.772 478.494 682.425 477.529 682.425 476.377C682.425 475.225 682.772 474.265 683.465 473.497C684.169 472.718 685.097 472.329 686.249 472.329C687.401 472.329 688.324 472.718 689.017 473.497C689.721 474.265 690.073 475.225 690.073 476.377C690.073 477.529 689.721 478.494 689.017 479.273ZM684.361 478.505C684.83 479.081 685.46 479.369 686.249 479.369C687.038 479.369 687.662 479.081 688.121 478.505C688.58 477.918 688.809 477.209 688.809 476.377C688.809 475.545 688.58 474.841 688.121 474.265C687.662 473.689 687.038 473.401 686.249 473.401C685.46 473.401 684.83 473.694 684.361 474.281C683.902 474.857 683.673 475.556 683.673 476.377C683.673 477.209 683.902 477.918 684.361 478.505ZM695.437 480.441C694.296 480.441 693.368 480.057 692.653 479.289C691.938 478.51 691.581 477.54 691.581 476.377C691.581 475.214 691.938 474.249 692.653 473.481C693.368 472.713 694.296 472.329 695.437 472.329C696.632 472.329 697.576 472.777 698.269 473.673L697.469 474.409C696.978 473.737 696.322 473.401 695.501 473.401C694.69 473.401 694.04 473.678 693.549 474.233C693.069 474.788 692.829 475.502 692.829 476.377C692.829 477.252 693.069 477.972 693.549 478.537C694.04 479.092 694.69 479.369 695.501 479.369C696.312 479.369 696.968 479.033 697.469 478.361L698.269 479.097C697.576 479.993 696.632 480.441 695.437 480.441ZM706.383 480.249H705.183V473.577H701.151V480.249H699.951V472.521H706.383V480.249ZM714.923 479.273C714.23 480.052 713.307 480.441 712.155 480.441C711.003 480.441 710.075 480.052 709.371 479.273C708.678 478.494 708.331 477.529 708.331 476.377C708.331 475.225 708.678 474.265 709.371 473.497C710.075 472.718 711.003 472.329 712.155 472.329C713.307 472.329 714.23 472.718 714.923 473.497C715.627 474.265 715.979 475.225 715.979 476.377C715.979 477.529 715.627 478.494 714.923 479.273ZM710.267 478.505C710.736 479.081 711.366 479.369 712.155 479.369C712.944 479.369 713.568 479.081 714.027 478.505C714.486 477.918 714.715 477.209 714.715 476.377C714.715 475.545 714.486 474.841 714.027 474.265C713.568 473.689 712.944 473.401 712.155 473.401C711.366 473.401 710.736 473.694 710.267 474.281C709.808 474.857 709.579 475.556 709.579 476.377C709.579 477.209 709.808 477.918 710.267 478.505ZM717.023 480.441V479.449C717.386 479.449 717.685 479.209 717.919 478.729C718.154 478.249 718.346 477.449 718.495 476.329L718.991 472.521H724.367V480.249H723.167V473.577H720.047L719.695 476.473C719.525 477.892 719.226 478.91 718.799 479.529C718.373 480.137 717.781 480.441 717.023 480.441ZM726.763 472.521H727.963V475.513H730.859C731.627 475.513 732.225 475.742 732.651 476.201C733.078 476.649 733.291 477.209 733.291 477.881C733.291 478.553 733.073 479.118 732.635 479.577C732.209 480.025 731.617 480.249 730.859 480.249H726.763V472.521ZM730.731 476.569H727.963V479.193H730.731C731.158 479.193 731.483 479.076 731.707 478.841C731.942 478.596 732.059 478.276 732.059 477.881C732.059 477.486 731.942 477.172 731.707 476.937C731.483 476.692 731.158 476.569 730.731 476.569ZM737.859 480.441C736.376 480.441 735.214 480.02 734.371 479.177L734.963 478.409C735.688 479.102 736.654 479.449 737.859 479.449C738.552 479.449 739.102 479.326 739.507 479.081C739.923 478.836 740.131 478.51 740.131 478.105C740.131 477.252 739.32 476.825 737.699 476.825H735.971V475.849H737.699C738.371 475.849 738.92 475.742 739.347 475.529C739.774 475.305 739.987 474.98 739.987 474.553C739.987 474.19 739.774 473.897 739.347 473.673C738.92 473.438 738.382 473.321 737.731 473.321C736.654 473.321 735.79 473.652 735.139 474.313L734.515 473.577C735.315 472.756 736.371 472.345 737.683 472.345C738.739 472.334 739.592 472.516 740.243 472.889C740.904 473.252 741.235 473.758 741.235 474.409C741.235 474.942 741.016 475.374 740.579 475.705C740.152 476.036 739.678 476.233 739.155 476.297C739.699 476.34 740.206 476.521 740.675 476.841C741.155 477.161 741.395 477.609 741.395 478.185C741.395 478.846 741.075 479.39 740.435 479.817C739.806 480.233 738.947 480.441 737.859 480.441ZM742.91 483.273L743.102 482.185C743.294 482.27 743.512 482.313 743.758 482.313C744.035 482.313 744.264 482.254 744.446 482.137C744.627 482.02 744.782 481.806 744.91 481.497L745.422 480.329L742.19 472.521H743.486L746.062 478.857L748.622 472.521H749.934L746.062 481.817C745.635 482.841 744.878 483.364 743.79 483.385C743.47 483.385 743.176 483.348 742.91 483.273ZM752.337 480.249H751.185V472.521H752.385V478.425L756.433 472.521H757.617V480.249H756.417V474.233L752.337 480.249ZM757.201 470.233C756.508 471.172 755.575 471.641 754.401 471.641C753.239 471.641 752.3 471.172 751.585 470.233L752.177 469.721C752.732 470.489 753.473 470.873 754.401 470.873C755.34 470.873 756.076 470.489 756.609 469.721L757.201 470.233ZM762.621 480.249H761.421V473.577H759.181V472.521H764.877V473.577H762.621V480.249ZM769.939 480.441C768.787 480.441 767.843 480.068 767.107 479.321C766.371 478.564 766.003 477.582 766.003 476.377C766.003 475.246 766.366 474.292 767.091 473.513C767.816 472.724 768.723 472.329 769.811 472.329C770.952 472.329 771.854 472.724 772.515 473.513C773.187 474.292 773.523 475.278 773.523 476.473V476.777H767.267C767.32 477.534 767.598 478.169 768.099 478.681C768.6 479.193 769.251 479.449 770.051 479.449C771.011 479.449 771.806 479.124 772.435 478.473L773.011 479.257C772.222 480.046 771.198 480.441 769.939 480.441ZM772.339 475.897C772.328 475.236 772.104 474.644 771.667 474.121C771.23 473.588 770.606 473.321 769.795 473.321C769.027 473.321 768.419 473.582 767.971 474.105C767.534 474.628 767.299 475.225 767.267 475.897H772.339ZM778.875 480.441C777.733 480.441 776.805 480.057 776.091 479.289C775.376 478.51 775.019 477.54 775.019 476.377C775.019 475.214 775.376 474.249 776.091 473.481C776.805 472.713 777.733 472.329 778.875 472.329C780.069 472.329 781.013 472.777 781.707 473.673L780.907 474.409C780.416 473.737 779.76 473.401 778.939 473.401C778.128 473.401 777.477 473.678 776.987 474.233C776.507 474.788 776.267 475.502 776.267 476.377C776.267 477.252 776.507 477.972 776.987 478.537C777.477 479.092 778.128 479.369 778.939 479.369C779.749 479.369 780.405 479.033 780.907 478.361L781.707 479.097C781.013 479.993 780.069 480.441 778.875 480.441ZM783.388 472.521H784.588V475.513H787.484C788.252 475.513 788.85 475.742 789.276 476.201C789.703 476.649 789.916 477.209 789.916 477.881C789.916 478.553 789.698 479.118 789.26 479.577C788.834 480.025 788.242 480.249 787.484 480.249H783.388V472.521ZM787.356 476.569H784.588V479.193H787.356C787.783 479.193 788.108 479.076 788.332 478.841C788.567 478.596 788.684 478.276 788.684 477.881C788.684 477.486 788.567 477.172 788.332 476.937C788.108 476.692 787.783 476.569 787.356 476.569ZM798.353 472.329C799.228 472.329 799.932 472.782 800.465 473.689V469.577H801.665V473.673C801.9 473.268 802.198 472.942 802.561 472.697C802.934 472.452 803.334 472.329 803.761 472.329C804.593 472.329 805.265 472.697 805.777 473.433C806.289 474.158 806.545 475.14 806.545 476.377C806.545 477.614 806.284 478.601 805.761 479.337C805.249 480.073 804.582 480.441 803.761 480.441C802.886 480.441 802.188 479.988 801.665 479.081V483.193H800.465V479.097C800.23 479.502 799.926 479.828 799.553 480.073C799.18 480.318 798.78 480.441 798.353 480.441C797.521 480.441 796.849 480.078 796.337 479.353C795.825 478.617 795.569 477.63 795.569 476.393C795.569 475.156 795.825 474.169 796.337 473.433C796.86 472.697 797.532 472.329 798.353 472.329ZM798.689 473.401C798.102 473.401 797.638 473.684 797.297 474.249C796.956 474.804 796.785 475.518 796.785 476.393C796.785 477.268 796.956 477.982 797.297 478.537C797.638 479.092 798.102 479.369 798.689 479.369C799.052 479.369 799.398 479.252 799.729 479.017C800.06 478.782 800.305 478.489 800.465 478.137V474.649C800.294 474.297 800.044 474.004 799.713 473.769C799.382 473.524 799.041 473.401 798.689 473.401ZM803.425 479.369C804.012 479.369 804.476 479.092 804.817 478.537C805.158 477.972 805.329 477.252 805.329 476.377C805.329 475.502 805.158 474.788 804.817 474.233C804.476 473.678 804.012 473.401 803.425 473.401C803.073 473.401 802.732 473.524 802.401 473.769C802.07 474.004 801.825 474.292 801.665 474.633V478.121C801.836 478.473 802.081 478.772 802.401 479.017C802.732 479.252 803.073 479.369 803.425 479.369ZM809.79 480.249H808.638V472.521H809.838V478.425L813.886 472.521H815.07V480.249H813.87V474.233L809.79 480.249ZM816.555 480.441V479.449C816.917 479.449 817.216 479.209 817.451 478.729C817.685 478.249 817.877 477.449 818.027 476.329L818.523 472.521H823.899V480.249H822.699V473.577H819.579L819.227 476.473C819.056 477.892 818.757 478.91 818.331 479.529C817.904 480.137 817.312 480.441 816.555 480.441ZM826.295 472.521H827.495V475.513H830.391C831.159 475.513 831.756 475.742 832.183 476.201C832.609 476.649 832.823 477.209 832.823 477.881C832.823 478.553 832.604 479.118 832.167 479.577C831.74 480.025 831.148 480.249 830.391 480.249H826.295V472.521ZM830.263 476.569H827.495V479.193H830.263C830.689 479.193 831.015 479.076 831.239 478.841C831.473 478.596 831.591 478.276 831.591 477.881C831.591 477.486 831.473 477.172 831.239 476.937C831.015 476.692 830.689 476.569 830.263 476.569ZM836.575 480.249H835.375V473.577H833.135V472.521H838.831V473.577H836.575V480.249ZM844.212 480.441C843.124 480.441 842.255 479.988 841.604 479.081V483.193H840.404V472.521H841.604V473.673C841.892 473.268 842.265 472.942 842.724 472.697C843.183 472.452 843.679 472.329 844.212 472.329C845.236 472.329 846.063 472.697 846.692 473.433C847.332 474.158 847.652 475.14 847.652 476.377C847.652 477.614 847.332 478.601 846.692 479.337C846.063 480.073 845.236 480.441 844.212 480.441ZM843.908 479.369C844.665 479.369 845.268 479.092 845.716 478.537C846.164 477.972 846.388 477.252 846.388 476.377C846.388 475.502 846.164 474.788 845.716 474.233C845.268 473.678 844.665 473.401 843.908 473.401C843.449 473.401 843.001 473.524 842.564 473.769C842.137 474.004 841.817 474.292 841.604 474.633V478.121C841.817 478.473 842.137 478.772 842.564 479.017C843.001 479.252 843.449 479.369 843.908 479.369ZM855.592 480.249H854.392V479.369C853.742 480.084 852.888 480.441 851.832 480.441C851.118 480.441 850.488 480.212 849.944 479.753C849.4 479.294 849.128 478.67 849.128 477.881C849.128 477.07 849.395 476.446 849.928 476.009C850.472 475.561 851.107 475.337 851.832 475.337C852.931 475.337 853.784 475.689 854.392 476.393V475.001C854.392 474.489 854.211 474.089 853.848 473.801C853.486 473.513 853.016 473.369 852.44 473.369C851.534 473.369 850.744 473.726 850.072 474.441L849.512 473.609C850.334 472.756 851.363 472.329 852.6 472.329C853.486 472.329 854.206 472.542 854.76 472.969C855.315 473.396 855.592 474.052 855.592 474.937V480.249ZM852.264 479.577C853.224 479.577 853.934 479.257 854.392 478.617V477.161C853.934 476.521 853.224 476.201 852.264 476.201C851.71 476.201 851.251 476.361 850.888 476.681C850.536 476.99 850.36 477.396 850.36 477.897C850.36 478.388 850.536 478.793 850.888 479.113C851.251 479.422 851.71 479.577 852.264 479.577ZM865.886 480.249H864.686V474.185L862.174 480.249H861.726L859.198 474.185V480.249H857.998V472.521H859.582L861.95 478.249L864.286 472.521H865.886V480.249ZM869.431 480.249H868.279V472.521H869.479V478.425L873.527 472.521H874.711V480.249H873.511V474.233L869.431 480.249ZM880.32 482.217V479.257C880.715 479.182 881.024 478.948 881.248 478.553C881.472 478.148 881.654 477.406 881.792 476.329L882.288 472.521H887.664V479.193H888.56V482.217H887.36V480.249H881.52V482.217H880.32ZM883.344 473.577L882.992 476.473C882.811 477.828 882.438 478.734 881.872 479.193H886.464V473.577H883.344ZM889.289 480.441V479.449C889.652 479.449 889.95 479.209 890.185 478.729C890.42 478.249 890.612 477.449 890.761 476.329L891.257 472.521H896.633V480.249H895.433V473.577H892.313L891.961 476.473C891.79 477.892 891.492 478.91 891.065 479.529C890.638 480.137 890.046 480.441 889.289 480.441ZM900.181 480.249H898.773L900.837 477.209C900.25 477.134 899.77 476.889 899.397 476.473C899.034 476.057 898.853 475.529 898.853 474.889C898.853 474.206 899.072 473.641 899.509 473.193C899.946 472.745 900.544 472.521 901.301 472.521H905.381V480.249H904.181V477.257H902.069L900.181 480.249ZM901.429 476.201H904.181V473.577H901.429C901.013 473.577 900.682 473.7 900.437 473.945C900.202 474.18 900.085 474.494 900.085 474.889C900.085 475.284 900.202 475.604 900.437 475.849C900.672 476.084 901.002 476.201 901.429 476.201ZM918.336 480.249H917.136V473.577H913.104V480.249H911.904V472.521H918.336V480.249ZM926.876 479.273C926.183 480.052 925.26 480.441 924.108 480.441C922.956 480.441 922.028 480.052 921.324 479.273C920.631 478.494 920.284 477.529 920.284 476.377C920.284 475.225 920.631 474.265 921.324 473.497C922.028 472.718 922.956 472.329 924.108 472.329C925.26 472.329 926.183 472.718 926.876 473.497C927.58 474.265 927.932 475.225 927.932 476.377C927.932 477.529 927.58 478.494 926.876 479.273ZM922.22 478.505C922.69 479.081 923.319 479.369 924.108 479.369C924.898 479.369 925.522 479.081 925.98 478.505C926.439 477.918 926.668 477.209 926.668 476.377C926.668 475.545 926.439 474.841 925.98 474.265C925.522 473.689 924.898 473.401 924.108 473.401C923.319 473.401 922.69 473.694 922.22 474.281C921.762 474.857 921.532 475.556 921.532 476.377C921.532 477.209 921.762 477.918 922.22 478.505ZM931.04 480.249H929.888V472.521H931.088V478.425L935.136 472.521H936.32V480.249H935.12V474.233L931.04 480.249ZM942.125 480.441C940.983 480.441 940.055 480.057 939.341 479.289C938.626 478.51 938.269 477.54 938.269 476.377C938.269 475.214 938.626 474.249 939.341 473.481C940.055 472.713 940.983 472.329 942.125 472.329C943.319 472.329 944.263 472.777 944.957 473.673L944.157 474.409C943.666 473.737 943.01 473.401 942.189 473.401C941.378 473.401 940.727 473.678 940.237 474.233C939.757 474.788 939.517 475.502 939.517 476.377C939.517 477.252 939.757 477.972 940.237 478.537C940.727 479.092 941.378 479.369 942.189 479.369C942.999 479.369 943.655 479.033 944.157 478.361L944.957 479.097C944.263 479.993 943.319 480.441 942.125 480.441ZM953.438 480.249H951.902L949.118 476.777L947.838 478.041V480.249H946.638V472.521H947.838V476.633L951.902 472.521H953.422L949.998 476.025L953.438 480.249ZM960.889 480.249H959.689V479.369C959.039 480.084 958.185 480.441 957.129 480.441C956.415 480.441 955.785 480.212 955.241 479.753C954.697 479.294 954.425 478.67 954.425 477.881C954.425 477.07 954.692 476.446 955.225 476.009C955.769 475.561 956.404 475.337 957.129 475.337C958.228 475.337 959.081 475.689 959.689 476.393V475.001C959.689 474.489 959.508 474.089 959.145 473.801C958.783 473.513 958.313 473.369 957.737 473.369C956.831 473.369 956.041 473.726 955.369 474.441L954.809 473.609C955.631 472.756 956.66 472.329 957.897 472.329C958.783 472.329 959.503 472.542 960.057 472.969C960.612 473.396 960.889 474.052 960.889 474.937V480.249ZM957.561 479.577C958.521 479.577 959.231 479.257 959.689 478.617V477.161C959.231 476.521 958.521 476.201 957.561 476.201C957.007 476.201 956.548 476.361 956.185 476.681C955.833 476.99 955.657 477.396 955.657 477.897C955.657 478.388 955.833 478.793 956.185 479.113C956.548 479.422 957.007 479.577 957.561 479.577Z" fill="#101010"/>
<rect x="514.204" y="451.749" width="706" height="48" rx="24" stroke="#ECE1CF"/>
<path d="M1118.2 451.749H1196.2C1209.46 451.749 1220.2 462.494 1220.2 475.749C1220.2 489.004 1209.46 499.749 1196.2 499.749H1118.2C1104.95 499.749 1094.2 489.004 1094.2 475.749C1094.2 462.494 1104.95 451.749 1118.2 451.749Z" fill="#101010"/>
<path d="M1128.38 481.749H1126.12V468.409H1128.46V477.669L1135.28 468.409H1137.68V481.749H1135.34V472.229L1128.38 481.749ZM1144.86 481.989C1143.39 481.989 1142.19 481.516 1141.26 480.569C1140.33 479.609 1139.86 478.389 1139.86 476.909C1139.86 475.442 1140.33 474.236 1141.26 473.289C1142.19 472.329 1143.39 471.849 1144.86 471.849C1146.47 471.849 1147.71 472.422 1148.56 473.569L1147.18 474.849C1146.65 474.089 1145.91 473.709 1144.96 473.709C1144.08 473.709 1143.37 474.009 1142.84 474.609C1142.31 475.196 1142.04 475.962 1142.04 476.909C1142.04 477.856 1142.31 478.629 1142.84 479.229C1143.37 479.829 1144.08 480.129 1144.96 480.129C1145.88 480.129 1146.62 479.749 1147.18 478.989L1148.56 480.269C1147.71 481.416 1146.47 481.989 1144.86 481.989ZM1159.44 481.749H1156.8L1153.84 477.769L1152.5 479.149V481.749H1150.4V472.089H1152.5V476.749L1156.76 472.089H1159.36L1155.34 476.469L1159.44 481.749ZM1168.93 481.749H1166.83V480.709C1166.08 481.562 1165.04 481.989 1163.71 481.989C1162.83 481.989 1162.05 481.709 1161.37 481.149C1160.69 480.576 1160.35 479.789 1160.35 478.789C1160.35 477.762 1160.68 476.982 1161.35 476.449C1162.03 475.916 1162.81 475.649 1163.71 475.649C1165.08 475.649 1166.12 476.062 1166.83 476.889V475.449C1166.83 474.889 1166.62 474.449 1166.21 474.129C1165.79 473.809 1165.25 473.649 1164.57 473.649C1163.49 473.649 1162.53 474.056 1161.71 474.869L1160.85 473.409C1161.94 472.369 1163.29 471.849 1164.91 471.849C1166.09 471.849 1167.06 472.129 1167.81 472.689C1168.55 473.249 1168.93 474.136 1168.93 475.349V481.749ZM1164.53 480.549C1165.58 480.549 1166.35 480.216 1166.83 479.549V478.089C1166.35 477.422 1165.58 477.089 1164.53 477.089C1163.93 477.089 1163.43 477.249 1163.05 477.569C1162.66 477.889 1162.47 478.309 1162.47 478.829C1162.47 479.349 1162.66 479.769 1163.05 480.089C1163.43 480.396 1163.93 480.549 1164.53 480.549ZM1175.51 481.749H1173.41V473.929H1170.65V472.089H1178.29V473.929H1175.51V481.749ZM1180.01 472.089H1182.11V475.589H1185.53C1186.56 475.589 1187.34 475.882 1187.89 476.469C1188.45 477.056 1188.73 477.789 1188.73 478.669C1188.73 479.536 1188.44 480.269 1187.87 480.869C1187.31 481.456 1186.53 481.749 1185.53 481.749H1180.01V472.089ZM1185.27 477.429H1182.11V479.909H1185.27C1185.68 479.909 1186 479.796 1186.23 479.569C1186.47 479.342 1186.59 479.042 1186.59 478.669C1186.59 478.296 1186.47 477.996 1186.23 477.769C1186 477.542 1185.68 477.429 1185.27 477.429Z" fill="#ECE1CF"/>
<path d="M1118.2 451.749H1196.2C1209.46 451.749 1220.2 462.494 1220.2 475.749C1220.2 489.004 1209.46 499.749 1196.2 499.749H1118.2C1104.95 499.749 1094.2 489.004 1094.2 475.749C1094.2 462.494 1104.95 451.749 1118.2 451.749Z" stroke="#ECE1CF"/>
<path d="M1060.69 466.27H1074.72C1075.83 466.27 1076.4 467.595 1075.64 468.398L1070.42 473.892C1070.19 474.134 1070.06 474.455 1070.06 474.789L1070.06 481.914C1070.06 482.386 1069.8 482.817 1069.38 483.034L1067.18 484.17C1066.35 484.604 1065.35 483.995 1065.35 483.051L1065.35 474.789C1065.35 474.455 1065.22 474.134 1064.99 473.892L1059.77 468.398C1059.01 467.595 1059.58 466.27 1060.69 466.27Z" fill="#101010" stroke="#101010" stroke-width="0.0423177"/>
<path d="M904.704 539.249C904.704 533.726 909.181 529.249 914.704 529.249H1143.7C1149.23 529.249 1153.7 533.726 1153.7 539.249V744.249C1153.7 749.772 1149.23 754.249 1143.7 754.249H914.704C909.182 754.249 904.704 749.772 904.704 744.249V539.249Z" fill="#ECE1CF"/>
<path d="M1069.63 516.239C1070.44 515.224 1071.97 515.224 1072.77 516.239L1086.4 533.51C1087.44 534.822 1086.5 536.749 1084.83 536.749H1057.58C1055.91 536.749 1054.97 534.822 1056.01 533.51L1069.63 516.239Z" fill="#ECE1CF"/>
<path d="M954.93 584.249H952.59V578.429H945.65V584.249H943.31V570.909H945.65V576.369H952.59V570.909H954.93V584.249ZM965.703 584.249H963.603V583.209C962.856 584.062 961.816 584.489 960.483 584.489C959.603 584.489 958.823 584.209 958.143 583.649C957.463 583.076 957.123 582.289 957.123 581.289C957.123 580.262 957.456 579.482 958.123 578.949C958.803 578.416 959.589 578.149 960.483 578.149C961.856 578.149 962.896 578.562 963.603 579.389V577.949C963.603 577.389 963.396 576.949 962.983 576.629C962.569 576.309 962.023 576.149 961.343 576.149C960.263 576.149 959.309 576.556 958.483 577.369L957.623 575.909C958.716 574.869 960.069 574.349 961.683 574.349C962.869 574.349 963.836 574.629 964.583 575.189C965.329 575.749 965.703 576.636 965.703 577.849V584.249ZM961.303 583.049C962.356 583.049 963.123 582.716 963.603 582.049V580.589C963.123 579.922 962.356 579.589 961.303 579.589C960.703 579.589 960.209 579.749 959.823 580.069C959.436 580.389 959.243 580.809 959.243 581.329C959.243 581.849 959.436 582.269 959.823 582.589C960.209 582.896 960.703 583.049 961.303 583.049ZM973.625 584.489C972.345 584.489 971.312 583.962 970.525 582.909V587.929H968.425V574.589H970.525V575.909C971.299 574.869 972.332 574.349 973.625 574.349C974.892 574.349 975.919 574.802 976.705 575.709C977.505 576.616 977.905 577.849 977.905 579.409C977.905 580.969 977.505 582.209 976.705 583.129C975.919 584.036 974.892 584.489 973.625 584.489ZM973.005 582.629C973.832 582.629 974.492 582.329 974.985 581.729C975.479 581.129 975.725 580.356 975.725 579.409C975.725 578.462 975.479 577.696 974.985 577.109C974.492 576.509 973.832 576.209 973.005 576.209C972.525 576.209 972.052 576.336 971.585 576.589C971.119 576.842 970.765 577.149 970.525 577.509V581.329C970.765 581.689 971.119 581.996 971.585 582.249C972.052 582.502 972.525 582.629 973.005 582.629ZM984.348 584.489C982.855 584.489 981.655 584.002 980.748 583.029C979.841 582.042 979.388 580.836 979.388 579.409C979.388 577.982 979.841 576.782 980.748 575.809C981.655 574.836 982.855 574.349 984.348 574.349C985.855 574.349 987.061 574.836 987.968 575.809C988.875 576.782 989.328 577.982 989.328 579.409C989.328 580.849 988.875 582.056 987.968 583.029C987.061 584.002 985.855 584.489 984.348 584.489ZM984.348 582.629C985.215 582.629 985.895 582.322 986.388 581.709C986.895 581.082 987.148 580.316 987.148 579.409C987.148 578.516 986.895 577.762 986.388 577.149C985.895 576.522 985.215 576.209 984.348 576.209C983.495 576.209 982.815 576.522 982.308 577.149C981.815 577.762 981.568 578.516 981.568 579.409C981.568 580.316 981.815 581.082 982.308 581.709C982.815 582.322 983.495 582.629 984.348 582.629ZM990.453 586.709V582.509C990.906 582.402 991.246 582.142 991.473 581.729C991.713 581.302 991.906 580.489 992.053 579.289L992.633 574.589H1000.09V582.409H1001.15V586.709H999.053V584.249H992.553V586.709H990.453ZM994.493 576.429L994.153 579.529C994.019 580.809 993.593 581.769 992.873 582.409H997.993V576.429H994.493ZM1002.88 574.589H1004.98V578.089H1008.4C1009.43 578.089 1010.21 578.382 1010.76 578.969C1011.32 579.556 1011.6 580.289 1011.6 581.169C1011.6 582.036 1011.31 582.769 1010.74 583.369C1010.18 583.956 1009.4 584.249 1008.4 584.249H1002.88V574.589ZM1008.14 579.929H1004.98V582.409H1008.14C1008.55 582.409 1008.87 582.296 1009.1 582.069C1009.34 581.842 1009.46 581.542 1009.46 581.169C1009.46 580.796 1009.34 580.496 1009.1 580.269C1008.87 580.042 1008.55 579.929 1008.14 579.929ZM1015.16 584.249H1013.06V574.589H1015.16V584.249Z" fill="#101010"/>
<path d="M1022.7 576.249L1026.7 580.249L1030.7 576.249" stroke="#101010" stroke-linecap="round" stroke-linejoin="round"/>
<path d="M950.276 660.249H943.536V646.909H950.096C951.283 646.909 952.21 647.236 952.876 647.889C953.556 648.529 953.896 649.336 953.896 650.309C953.896 651.109 953.67 651.789 953.216 652.349C952.776 652.896 952.23 653.236 951.576 653.369C952.296 653.476 952.903 653.849 953.396 654.489C953.903 655.116 954.156 655.836 954.156 656.649C954.156 657.716 953.81 658.582 953.116 659.249C952.436 659.916 951.49 660.249 950.276 660.249ZM949.616 652.429C950.203 652.429 950.663 652.269 950.996 651.949C951.33 651.629 951.496 651.216 951.496 650.709C951.496 650.189 951.33 649.769 950.996 649.449C950.663 649.129 950.203 648.969 949.616 648.969H945.876V652.429H949.616ZM949.716 658.189C950.356 658.189 950.856 658.029 951.216 657.709C951.576 657.376 951.756 656.916 951.756 656.329C951.756 655.809 951.576 655.376 951.216 655.029C950.856 654.669 950.356 654.489 949.716 654.489H945.876V658.189H949.716ZM960.805 660.489C959.312 660.489 958.112 660.002 957.205 659.029C956.298 658.042 955.845 656.836 955.845 655.409C955.845 653.982 956.298 652.782 957.205 651.809C958.112 650.836 959.312 650.349 960.805 650.349C962.312 650.349 963.518 650.836 964.425 651.809C965.332 652.782 965.785 653.982 965.785 655.409C965.785 656.849 965.332 658.056 964.425 659.029C963.518 660.002 962.312 660.489 960.805 660.489ZM960.805 658.629C961.672 658.629 962.352 658.322 962.845 657.709C963.352 657.082 963.605 656.316 963.605 655.409C963.605 654.516 963.352 653.762 962.845 653.149C962.352 652.522 961.672 652.209 960.805 652.209C959.952 652.209 959.272 652.522 958.765 653.149C958.272 653.762 958.025 654.516 958.025 655.409C958.025 656.316 958.272 657.082 958.765 657.709C959.272 658.322 959.952 658.629 960.805 658.629ZM971.39 660.489C969.496 660.489 968.016 659.969 966.95 658.929L967.93 657.589C968.81 658.376 969.963 658.769 971.39 658.769C972.123 658.769 972.696 658.656 973.11 658.429C973.536 658.189 973.75 657.869 973.75 657.469C973.75 656.629 972.903 656.209 971.21 656.209H969.15V654.529H971.21C971.943 654.529 972.516 654.422 972.93 654.209C973.356 653.996 973.57 653.682 973.57 653.269C973.57 652.922 973.35 652.636 972.91 652.409C972.47 652.182 971.916 652.069 971.25 652.069C969.956 652.069 968.923 652.456 968.15 653.229L967.11 651.949C968.136 650.896 969.483 650.369 971.15 650.369C972.576 650.356 973.696 650.589 974.51 651.069C975.336 651.536 975.75 652.176 975.75 652.989C975.75 653.602 975.49 654.122 974.97 654.549C974.463 654.962 973.87 655.216 973.19 655.309C973.87 655.362 974.496 655.589 975.07 655.989C975.656 656.389 975.95 656.936 975.95 657.629C975.95 658.469 975.536 659.156 974.71 659.689C973.896 660.222 972.79 660.489 971.39 660.489ZM983.266 660.489C981.986 660.489 980.953 659.962 980.166 658.909V663.929H978.066V650.589H980.166V651.909C980.939 650.869 981.973 650.349 983.266 650.349C984.533 650.349 985.559 650.802 986.346 651.709C987.146 652.616 987.546 653.849 987.546 655.409C987.546 656.969 987.146 658.209 986.346 659.129C985.559 660.036 984.533 660.489 983.266 660.489ZM982.646 658.629C983.473 658.629 984.133 658.329 984.626 657.729C985.119 657.129 985.366 656.356 985.366 655.409C985.366 654.462 985.119 653.696 984.626 653.109C984.133 652.509 983.473 652.209 982.646 652.209C982.166 652.209 981.693 652.336 981.226 652.589C980.759 652.842 980.406 653.149 980.166 653.509V657.329C980.406 657.689 980.759 657.996 981.226 658.249C981.693 658.502 982.166 658.629 982.646 658.629ZM997.629 660.249H995.529V659.209C994.782 660.062 993.742 660.489 992.409 660.489C991.529 660.489 990.749 660.209 990.069 659.649C989.389 659.076 989.049 658.289 989.049 657.289C989.049 656.262 989.382 655.482 990.049 654.949C990.729 654.416 991.515 654.149 992.409 654.149C993.782 654.149 994.822 654.562 995.529 655.389V653.949C995.529 653.389 995.322 652.949 994.909 652.629C994.495 652.309 993.949 652.149 993.269 652.149C992.189 652.149 991.235 652.556 990.409 653.369L989.549 651.909C990.642 650.869 991.995 650.349 993.609 650.349C994.795 650.349 995.762 650.629 996.509 651.189C997.255 651.749 997.629 652.636 997.629 653.849V660.249ZM993.229 659.049C994.282 659.049 995.049 658.716 995.529 658.049V656.589C995.049 655.922 994.282 655.589 993.229 655.589C992.629 655.589 992.135 655.749 991.749 656.069C991.362 656.389 991.169 656.809 991.169 657.329C991.169 657.849 991.362 658.269 991.749 658.589C992.135 658.896 992.629 659.049 993.229 659.049ZM1004.75 660.489C1003.28 660.489 1002.08 660.016 1001.15 659.069C1000.22 658.109 999.751 656.889 999.751 655.409C999.751 653.942 1000.22 652.736 1001.15 651.789C1002.08 650.829 1003.28 650.349 1004.75 650.349C1006.36 650.349 1007.6 650.922 1008.45 652.069L1007.07 653.349C1006.54 652.589 1005.8 652.209 1004.85 652.209C1003.97 652.209 1003.26 652.509 1002.73 653.109C1002.2 653.696 1001.93 654.462 1001.93 655.409C1001.93 656.356 1002.2 657.129 1002.73 657.729C1003.26 658.329 1003.97 658.629 1004.85 658.629C1005.77 658.629 1006.51 658.249 1007.07 657.489L1008.45 658.769C1007.6 659.916 1006.36 660.489 1004.75 660.489ZM1014.15 660.249H1012.05V652.429H1009.29V650.589H1016.93V652.429H1014.15V660.249Z" fill="#101010"/>
<path d="M1023.7 652.249L1027.7 656.249L1031.7 652.249" stroke="#101010" stroke-linecap="round" stroke-linejoin="round"/>
<path d="M945.839 622.249H943.499V608.909H949.359C950.706 608.909 951.766 609.309 952.539 610.109C953.326 610.909 953.719 611.902 953.719 613.089C953.719 614.262 953.326 615.256 952.539 616.069C951.766 616.869 950.706 617.269 949.359 617.269H945.839V622.249ZM949.039 615.209C949.706 615.209 950.252 615.016 950.679 614.629C951.106 614.242 951.319 613.729 951.319 613.089C951.319 612.449 951.106 611.936 950.679 611.549C950.252 611.162 949.706 610.969 949.039 610.969H945.839V615.209H949.039ZM959.774 622.489C958.307 622.489 957.094 622.022 956.134 621.089C955.187 620.142 954.714 618.916 954.714 617.409C954.714 615.996 955.174 614.802 956.094 613.829C957.027 612.842 958.201 612.349 959.614 612.349C961.041 612.349 962.187 612.842 963.054 613.829C963.934 614.816 964.374 616.076 964.374 617.609V618.109H956.914C956.994 618.869 957.307 619.502 957.854 620.009C958.401 620.516 959.114 620.769 959.994 620.769C960.487 620.769 960.981 620.676 961.474 620.489C961.981 620.302 962.401 620.042 962.734 619.709L963.694 621.089C962.721 622.022 961.414 622.489 959.774 622.489ZM962.334 616.629C962.307 615.962 962.061 615.369 961.594 614.849C961.141 614.329 960.481 614.069 959.614 614.069C958.787 614.069 958.141 614.329 957.674 614.849C957.207 615.356 956.947 615.949 956.894 616.629H962.334ZM973.767 612.589V614.429H968.547V622.249H966.447V612.589H973.767ZM977.51 622.249H975.49V612.589H977.59V619.089L982.03 612.589H984.13V622.249H982.03V615.569L977.51 622.249ZM991.217 622.489C989.724 622.489 988.524 622.002 987.617 621.029C986.71 620.042 986.257 618.836 986.257 617.409C986.257 615.982 986.71 614.782 987.617 613.809C988.524 612.836 989.724 612.349 991.217 612.349C992.724 612.349 993.93 612.836 994.837 613.809C995.744 614.782 996.197 615.982 996.197 617.409C996.197 618.849 995.744 620.056 994.837 621.029C993.93 622.002 992.724 622.489 991.217 622.489ZM991.217 620.629C992.084 620.629 992.764 620.322 993.257 619.709C993.764 619.082 994.017 618.316 994.017 617.409C994.017 616.516 993.764 615.762 993.257 615.149C992.764 614.522 992.084 614.209 991.217 614.209C990.364 614.209 989.684 614.522 989.177 615.149C988.684 615.762 988.437 616.516 988.437 617.409C988.437 618.316 988.684 619.082 989.177 619.709C989.684 620.322 990.364 620.629 991.217 620.629ZM1000.42 622.249H998.322V612.589H1000.42V616.389H1004.86V612.589H1006.96V622.249H1004.86V618.229H1000.42V622.249Z" fill="#101010"/>
<path d="M1014.7 614.249L1018.7 618.249L1022.7 614.249" stroke="#101010" stroke-linecap="round" stroke-linejoin="round"/>
<path d="M941.15 732.889C940.126 733.924 938.819 734.441 937.23 734.441C935.641 734.441 934.334 733.924 933.31 732.889C932.286 731.844 931.774 730.521 931.774 728.921C931.774 727.321 932.286 726.004 933.31 724.969C934.334 723.924 935.641 723.401 937.23 723.401C938.819 723.401 940.126 723.924 941.15 724.969C942.174 726.004 942.686 727.321 942.686 728.921C942.686 730.521 942.174 731.844 941.15 732.889ZM937.23 732.777C938.286 732.777 939.139 732.414 939.79 731.689C940.441 730.953 940.766 730.03 940.766 728.921C940.766 727.801 940.441 726.878 939.79 726.153C939.139 725.428 938.286 725.065 937.23 725.065C936.163 725.065 935.305 725.428 934.654 726.153C934.014 726.878 933.694 727.801 933.694 728.921C933.694 730.041 934.014 730.964 934.654 731.689C935.305 732.414 936.163 732.777 937.23 732.777ZM947.529 734.249H945.849V727.993H943.641V726.521H949.753V727.993H947.529V734.249ZM959.784 734.249H958.104V728.873L955.8 734.249H955.128L952.808 728.873V734.249H951.128V726.521H953.32L955.464 731.513L957.576 726.521H959.784V734.249ZM965.524 734.441C964.351 734.441 963.38 734.068 962.612 733.321C961.855 732.564 961.476 731.582 961.476 730.377C961.476 729.246 961.844 728.292 962.58 727.513C963.327 726.724 964.265 726.329 965.396 726.329C966.537 726.329 967.455 726.724 968.148 727.513C968.852 728.302 969.204 729.31 969.204 730.537V730.937H963.236C963.3 731.545 963.551 732.052 963.988 732.457C964.425 732.862 964.996 733.065 965.7 733.065C966.095 733.065 966.489 732.99 966.884 732.841C967.289 732.692 967.625 732.484 967.892 732.217L968.66 733.321C967.881 734.068 966.836 734.441 965.524 734.441ZM967.572 729.753C967.551 729.22 967.353 728.745 966.98 728.329C966.617 727.913 966.089 727.705 965.396 727.705C964.735 727.705 964.217 727.913 963.844 728.329C963.471 728.734 963.263 729.209 963.22 729.753H967.572ZM972.542 734.249H970.862V726.521H972.542V729.561H976.094V726.521H977.774V734.249H976.094V731.033H972.542V734.249ZM981.572 734.249H979.956V726.521H981.636V731.721L985.188 726.521H986.868V734.249H985.188V728.905L981.572 734.249ZM992.138 734.249H990.458V727.993H988.25V726.521H994.362V727.993H992.138V734.249ZM995.737 726.521H997.417V729.321H1000.15C1000.97 729.321 1001.6 729.556 1002.04 730.025C1002.49 730.494 1002.71 731.081 1002.71 731.785C1002.71 732.478 1002.48 733.065 1002.03 733.545C1001.58 734.014 1000.95 734.249 1000.15 734.249H995.737V726.521ZM999.945 730.793H997.417V732.777H999.945C1000.28 732.777 1000.53 732.686 1000.71 732.505C1000.91 732.324 1001 732.084 1001 731.785C1001 731.486 1000.91 731.246 1000.71 731.065C1000.53 730.884 1000.28 730.793 999.945 730.793Z" fill="#101010"/>
<path d="M1060.56 734.249H1058.69V725.225H1053.13V734.249H1051.26V723.577H1060.56V734.249ZM1066.94 734.441C1065.91 734.441 1065.09 734.02 1064.46 733.177V737.193H1062.78V726.521H1064.46V727.577C1065.08 726.745 1065.9 726.329 1066.94 726.329C1067.95 726.329 1068.77 726.692 1069.4 727.417C1070.04 728.142 1070.36 729.129 1070.36 730.377C1070.36 731.625 1070.04 732.617 1069.4 733.353C1068.77 734.078 1067.95 734.441 1066.94 734.441ZM1066.44 732.953C1067.1 732.953 1067.63 732.713 1068.02 732.233C1068.42 731.753 1068.62 731.134 1068.62 730.377C1068.62 729.62 1068.42 729.006 1068.02 728.537C1067.63 728.057 1067.1 727.817 1066.44 727.817C1066.06 727.817 1065.68 727.918 1065.3 728.121C1064.93 728.324 1064.65 728.569 1064.46 728.857V731.913C1064.65 732.201 1064.93 732.446 1065.3 732.649C1065.68 732.852 1066.06 732.953 1066.44 732.953ZM1073.64 734.249H1072.03V726.521H1073.71V731.721L1077.26 726.521H1078.94V734.249H1077.26V728.905L1073.64 734.249ZM1089.78 734.249H1088.1V728.873L1085.79 734.249H1085.12L1082.8 728.873V734.249H1081.12V726.521H1083.31L1085.46 731.513L1087.57 726.521H1089.78V734.249ZM1095.52 734.441C1094.34 734.441 1093.37 734.068 1092.6 733.321C1091.85 732.564 1091.47 731.582 1091.47 730.377C1091.47 729.246 1091.84 728.292 1092.57 727.513C1093.32 726.724 1094.26 726.329 1095.39 726.329C1096.53 726.329 1097.45 726.724 1098.14 727.513C1098.84 728.302 1099.2 729.31 1099.2 730.537V730.937H1093.23C1093.29 731.545 1093.54 732.052 1093.98 732.457C1094.42 732.862 1094.99 733.065 1095.69 733.065C1096.09 733.065 1096.48 732.99 1096.88 732.841C1097.28 732.692 1097.62 732.484 1097.88 732.217L1098.65 733.321C1097.87 734.068 1096.83 734.441 1095.52 734.441ZM1097.56 729.753C1097.54 729.22 1097.35 728.745 1096.97 728.329C1096.61 727.913 1096.08 727.705 1095.39 727.705C1094.73 727.705 1094.21 727.913 1093.84 728.329C1093.46 728.734 1093.26 729.209 1093.21 729.753H1097.56ZM1102.53 734.249H1100.85V726.521H1102.53V729.561H1106.09V726.521H1107.77V734.249H1106.09V731.033H1102.53V734.249ZM1111.56 734.249H1109.95V726.521H1111.63V731.721L1115.18 726.521H1116.86V734.249H1115.18V728.905L1111.56 734.249ZM1122.13 734.249H1120.45V727.993H1118.24V726.521H1124.35V727.993H1122.13V734.249ZM1125.73 726.521H1127.41V729.321H1130.15C1130.97 729.321 1131.6 729.556 1132.03 730.025C1132.48 730.494 1132.71 731.081 1132.71 731.785C1132.71 732.478 1132.48 733.065 1132.02 733.545C1131.57 734.014 1130.95 734.249 1130.15 734.249H1125.73V726.521ZM1129.94 730.793H1127.41V732.777H1129.94C1130.27 732.777 1130.52 732.686 1130.71 732.505C1130.9 732.324 1130.99 732.084 1130.99 731.785C1130.99 731.486 1130.9 731.246 1130.71 731.065C1130.52 730.884 1130.27 730.793 1129.94 730.793Z" fill="#101010"/>
<line opacity="0.5" x1="904.704" y1="702.749" x2="1153.7" y2="702.749" stroke="#101010"/>
<line opacity="0.5" x1="1029.2" y1="703.249" x2="1029.2" y2="754.249" stroke="#101010"/>
<g filter="url(#filter0_d_414_7039)">
<line x1="287.704" y1="306.749" x2="1446.7" y2="306.749" stroke="#ECE1CF"/>
</g>
<line x1="318.411" y1="265.308" x2="343.879" y2="290.775" stroke="#ECE1CF" stroke-width="2"/>
<line x1="343.879" y1="265.956" x2="318.411" y2="291.424" stroke="#ECE1CF" stroke-width="2"/>
<path fill-rule="evenodd" clip-rule="evenodd" d="M262.707 641.249L284.737 663.141H316.445V695.035L338.704 717.155L316.445 739.275V771.167H284.887L262.665 793.249L240.444 771.167H208.966V739.277L186.704 717.155L208.966 695.032V663.141H240.677L262.707 641.249Z" fill="#C5A4DD"/>
<path d="M252.221 734.249C250.067 734.249 248.17 733.831 246.532 732.995C244.893 732.128 243.588 730.951 242.617 729.465C241.646 727.979 240.918 726.307 240.432 724.449C239.947 722.561 239.704 720.502 239.704 718.272C239.704 713.597 240.872 709.757 243.209 706.754C245.545 703.751 248.838 702.249 253.086 702.249C256.606 702.249 259.519 703.395 261.825 705.686L259.322 709.819C257.623 707.993 255.544 707.079 253.086 707.079C250.658 707.079 248.716 708.07 247.26 710.052C245.803 712.033 245.075 714.448 245.075 717.297C245.075 717.699 245.09 717.994 245.121 718.179C245.879 717.034 247.002 716.027 248.489 715.16C249.976 714.293 251.569 713.86 253.268 713.86C256.151 713.86 258.563 714.742 260.505 716.507C262.447 718.241 263.418 720.687 263.418 723.845C263.418 726.787 262.387 729.264 260.323 731.277C258.26 733.258 255.559 734.249 252.221 734.249ZM251.948 729.419C253.829 729.419 255.316 728.877 256.409 727.793C257.501 726.679 258.047 725.425 258.047 724.031C258.047 722.235 257.456 720.873 256.272 719.944C255.089 718.984 253.602 718.504 251.812 718.504C250.537 718.504 249.308 718.845 248.125 719.526C246.941 720.176 245.955 721.059 245.166 722.173C245.348 724.155 245.985 725.858 247.078 727.282C248.17 728.707 249.794 729.419 251.948 729.419Z" fill="#101010"/>
<path d="M286.704 719.619H278.283V729.233H274.915V719.619H266.495V716.461H274.915V707.172H278.283V716.461H286.704V719.619Z" fill="#101010"/>
<path fill-rule="evenodd" clip-rule="evenodd" d="M1442.21 190.249L1464.38 212.141H1496.3V244.035L1518.7 266.155L1496.3 288.275V320.167H1464.53L1442.17 342.249L1419.8 320.167H1388.11V288.277L1365.7 266.155L1388.11 244.032V212.141H1420.03L1442.21 190.249Z" fill="#D75014"/>
<path d="M1421.25 280.692H1415.86V256.773L1410.84 262.021L1407.7 258.724L1416.55 249.713H1421.25V280.692Z" fill="#101010"/>
<path d="M1446.58 279.02C1444.34 280.506 1441.56 281.249 1438.24 281.249C1434.93 281.249 1432.13 280.506 1429.86 279.02C1427.59 277.502 1426.45 275.412 1426.45 272.75C1426.45 270.861 1427.09 269.22 1428.38 267.827C1429.7 266.433 1431.36 265.396 1433.36 264.715C1431.46 264.096 1429.9 263.182 1428.71 261.975C1427.54 260.767 1426.96 259.234 1426.96 257.377C1426.96 256.014 1427.28 254.791 1427.92 253.708C1428.6 252.624 1429.47 251.772 1430.55 251.153C1431.65 250.534 1432.85 250.069 1434.14 249.76C1435.46 249.419 1436.83 249.249 1438.24 249.249C1439.66 249.249 1441.01 249.419 1442.3 249.76C1443.59 250.069 1444.78 250.534 1445.89 251.153C1447 251.772 1447.87 252.624 1448.52 253.708C1449.19 254.791 1449.53 256.014 1449.53 257.377C1449.53 260.875 1447.38 263.322 1443.08 264.715C1445.08 265.396 1446.72 266.433 1448.01 267.827C1449.33 269.22 1449.99 270.861 1449.99 272.75C1449.99 275.412 1448.85 277.502 1446.58 279.02ZM1438.24 262.578C1439.07 262.424 1439.87 262.222 1440.64 261.975C1441.41 261.696 1442.16 261.232 1442.9 260.581C1443.66 259.9 1444.05 259.111 1444.05 258.213C1444.05 256.943 1443.49 255.937 1442.39 255.194C1441.31 254.451 1439.93 254.079 1438.24 254.079C1436.52 254.079 1435.11 254.451 1434 255.194C1432.93 255.937 1432.39 256.943 1432.39 258.213C1432.39 259.111 1432.78 259.9 1433.54 260.581C1434.31 261.232 1435.08 261.696 1435.85 261.975C1436.62 262.222 1437.41 262.424 1438.24 262.578ZM1438.24 276.419C1439.99 276.419 1441.48 276.016 1442.71 275.211C1443.94 274.406 1444.55 273.353 1444.55 272.053C1444.55 270.66 1443.83 269.545 1442.39 268.709C1440.98 267.842 1439.59 267.331 1438.24 267.176C1437.44 267.269 1436.6 267.486 1435.71 267.827C1434.82 268.136 1433.96 268.678 1433.13 269.452C1432.3 270.195 1431.89 271.062 1431.89 272.053C1431.89 273.353 1432.48 274.406 1433.68 275.211C1434.91 276.016 1436.43 276.419 1438.24 276.419Z" fill="#101010"/>
<path d="M1473.7 266.619H1465.18V276.233H1461.77V266.619H1453.25V263.461H1461.77V254.172H1465.18V263.461H1473.7V266.619Z" fill="#101010"/>
<defs>
<filter id="filter0_d_414_7039" x="283.704" y="306.249" width="1167" height="9" filterUnits="userSpaceOnUse" color-interpolation-filters="sRGB">
<feFlood flood-opacity="0" result="BackgroundImageFix"/>
<feColorMatrix in="SourceAlpha" type="matrix" values="0 0 0 0 0 0 0 0 0 0 0 0 0 0 0 0 0 0 127 0" result="hardAlpha"/>
<feOffset dy="4"/>
<feGaussianBlur stdDeviation="2"/>
<feComposite in2="hardAlpha" operator="out"/>
<feColorMatrix type="matrix" values="0 0 0 0 0 0 0 0 0 0 0 0 0 0 0 0 0 0 0.25 0"/>
<feBlend mode="normal" in2="BackgroundImageFix" result="effect1_dropShadow_414_7039"/>
<feBlend mode="normal" in="SourceGraphic" in2="effect1_dropShadow_414_7039" result="shape"/>
</filter>
</defs>
</svg>
