<svg width="711" height="222" viewBox="0 0 711 222" fill="none" xmlns="http://www.w3.org/2000/svg">
<rect x="0.704102" y="0.5" width="710" height="221" rx="110.5" fill="#517D56"/>
<path d="M100.708 117.188H118.564V109.508H103.108L106.948 96.932H120.1V89.252H109.444L116.164 67.748H108.772L101.956 89.252H88.6121L95.4281 67.748H87.9401L81.2201 89.252H62.5001V96.932H78.7241L74.8841 109.508H60.9641V117.188H72.4841L65.8601 138.5H73.3481L79.8761 117.188H93.2201L86.5961 138.5H94.1801L100.708 117.188ZM99.4601 96.932L95.6201 109.508H82.2761L86.1161 96.932H99.4601ZM159.492 76.772C170.148 76.772 175.62 82.532 176.1 94.148L186.564 92.804C186.084 83.588 182.532 76.58 177.156 73.028C171.78 69.476 166.02 67.844 159.492 67.844C140.196 67.844 129.732 81.476 129.732 104.228C129.732 127.652 141.06 139.844 159.492 139.844C166.02 139.844 171.876 138.02 177.156 134.18C182.532 130.34 186.084 123.14 186.564 113.924L176.1 112.58C175.62 125.156 169.092 130.916 159.492 130.916C153.444 130.916 148.644 128.9 145.284 124.868C141.924 120.74 140.196 113.924 140.196 104.228C140.196 85.028 146.34 76.772 159.492 76.772ZM189.675 78.116H212.043V138.5H222.219V78.116H244.587V69.188H189.675V78.116ZM275.649 114.5C292.545 114.5 302.433 105.956 302.433 91.652C302.433 77.444 292.833 69.188 275.553 69.188H252.705V138.5H262.881V114.5H275.649ZM262.881 78.116H276.129C286.593 78.116 291.777 82.436 291.777 91.172C291.777 99.332 286.881 105.572 276.129 105.572H262.881V78.116ZM360.149 138.5L334.421 69.188H324.341L298.613 138.5H308.213L314.261 121.796H343.253L349.301 138.5H360.149ZM339.989 112.868H317.429L328.661 81.956L339.989 112.868ZM368.299 69.188V138.5H453.547V69.188H443.467V129.572H416.011V69.188H405.835V129.572H378.475V69.188H368.299ZM509.834 107.396V138.5H520.01V69.188H509.834V98.468H477.194V69.188H467.018V138.5H477.194V107.396H509.834ZM589.743 138.5L564.015 69.188H553.935L528.207 138.5H537.807L543.855 121.796H572.847L578.895 138.5H589.743ZM569.583 112.868H547.023L558.255 81.956L569.583 112.868ZM599.621 89.444C599.621 98.564 604.325 105.572 613.157 107.876C608.837 110.564 606.245 115.076 605.381 121.412C604.325 128.612 602.213 131.012 598.661 131.012C597.413 131.012 596.261 130.724 595.013 130.052L593.573 137.252C595.973 138.98 598.661 139.844 601.541 139.844C609.317 139.844 612.581 136.196 614.597 127.076L615.461 122.66L616.229 118.628C616.421 117.86 616.805 116.9 617.285 115.652C618.725 112.292 620.837 111.62 625.829 111.236H639.173V138.5H649.349V69.188H624.581C607.973 69.188 599.621 75.908 599.621 89.444ZM639.173 102.308H624.485C613.829 102.308 609.797 96.932 609.797 89.732C609.797 81.956 614.693 78.116 624.485 78.116H639.173V102.308Z" fill="#ECE1CF"/>
</svg>
