<svg width="711" height="221" viewBox="0 0 711 221" fill="none" xmlns="http://www.w3.org/2000/svg">
<rect x="0.994385" width="710" height="221" rx="110.5" fill="#C5A4DD"/>
<path d="M148.498 116.688H166.354V109.008H150.898L154.738 96.432H167.89V88.752H157.234L163.954 67.248H156.562L149.746 88.752H136.402L143.218 67.248H135.73L129.01 88.752H110.29V96.432H126.514L122.674 109.008H108.754V116.688H120.274L113.65 138H121.138L127.666 116.688H141.01L134.386 138H141.97L148.498 116.688ZM147.25 96.432L143.41 109.008H130.066L133.906 96.432H147.25ZM175.122 155.76H185.202V138H229.746V155.76H239.826V129.072H231.666V68.688H192.594V77.616C192.594 93.84 191.73 105.072 189.426 112.752C188.37 116.592 187.314 119.568 186.258 121.68C185.202 123.792 183.858 126.288 182.034 129.072H175.122V155.76ZM193.266 129.072C194.898 126.192 196.146 123.696 197.01 121.68C197.874 119.664 198.834 116.688 199.89 112.848C201.906 105.072 202.77 93.84 202.77 77.616H221.49V129.072H193.266ZM291.331 106.896V97.968H260.515V77.616H294.115V68.688H250.339V138H294.211V129.072H260.515V106.896H291.331ZM299.528 77.616H321.896V138H332.072V77.616H354.44V68.688H299.528V77.616ZM385.594 76.272C396.25 76.272 401.722 82.032 402.202 93.648L412.666 92.304C412.186 83.088 408.634 76.08 403.258 72.528C397.882 68.976 392.122 67.344 385.594 67.344C366.298 67.344 355.834 80.976 355.834 103.728C355.834 127.152 367.162 139.344 385.594 139.344C392.122 139.344 397.978 137.52 403.258 133.68C408.634 129.84 412.186 122.64 412.666 113.424L402.202 112.08C401.722 124.656 395.194 130.416 385.594 130.416C379.546 130.416 374.746 128.4 371.386 124.368C368.026 120.24 366.298 113.424 366.298 103.728C366.298 84.528 372.442 76.272 385.594 76.272ZM464.981 117.072C463.349 109.392 459.893 104.496 454.517 102.288C459.605 99.696 461.621 94.704 463.157 86.64C464.021 82.128 464.789 79.248 465.653 78C466.517 76.752 467.861 76.176 469.589 76.176C470.933 76.176 472.181 76.464 473.429 77.136L474.869 69.936C472.469 68.208 469.781 67.344 466.901 67.344C458.741 67.344 455.861 72.624 454.037 82.992C452.981 88.656 451.829 92.496 450.581 94.704C449.333 96.912 447.029 97.968 443.573 97.968H433.109V68.688H422.933V138H433.109V106.896H444.533C447.317 106.896 449.237 107.088 450.677 108.24C452.213 109.296 452.885 109.776 453.557 111.984C454.325 114 454.517 114.768 454.997 117.936L455.765 121.776C456.917 126.768 457.973 130.224 459.893 133.776C461.909 137.328 464.981 139.344 468.821 139.344C471.701 139.344 474.389 138.48 476.789 136.752L475.349 129.552C474.101 130.224 472.949 130.512 471.701 130.512C470.069 130.512 468.821 129.744 467.957 128.112C467.093 126.48 466.133 122.736 464.981 117.072ZM542.189 138L516.461 68.688H506.381L480.653 138H490.253L496.301 121.296H525.293L531.341 138H542.189ZM522.029 112.368H499.469L510.701 81.456L522.029 112.368ZM552.067 88.944C552.067 98.064 556.771 105.072 565.603 107.376C561.283 110.064 558.691 114.576 557.827 120.912C556.771 128.112 554.659 130.512 551.107 130.512C549.859 130.512 548.707 130.224 547.459 129.552L546.019 136.752C548.419 138.48 551.107 139.344 553.987 139.344C561.763 139.344 565.027 135.696 567.043 126.576L567.907 122.16L568.675 118.128C568.867 117.36 569.251 116.4 569.731 115.152C571.171 111.792 573.283 111.12 578.275 110.736H591.619V138H601.795V68.688H577.027C560.419 68.688 552.067 75.408 552.067 88.944ZM591.619 101.808H576.931C566.275 101.808 562.243 96.432 562.243 89.232C562.243 81.456 567.139 77.616 576.931 77.616H591.619V101.808Z" fill="#ECE1CF"/>
</svg>
