<svg width="1483" height="1028" viewBox="0 0 1483 1028" fill="none" xmlns="http://www.w3.org/2000/svg">
<path fill-rule="evenodd" clip-rule="evenodd" d="M581.989 343.951C593.126 343.464 615.967 344.419 639.516 357.059C646.875 360.836 680.658 378.992 689.98 418.68C690.044 418.985 690.116 419.321 690.195 419.688C692.388 429.916 699.625 463.654 676.085 492.145C658.082 513.652 631.088 521.828 609.455 521.353C608.879 521.31 608.257 521.268 607.596 521.223C597.403 520.531 577.874 519.207 570.501 504.33C565.64 494.789 566.02 479.752 573.906 472.112C579.138 466.889 586.044 466.313 592.233 465.797C598.186 465.3 603.475 464.859 605.973 460.39C610.412 453.505 604.917 440.625 596.756 435.459C582.475 426.417 557.402 439.041 544.591 453.846C529.887 470.979 530.506 492.23 531.217 503.55C531.512 510.788 533.285 554.217 570.712 576.443C592.97 588.389 615.949 587.572 626.545 586.255C627.557 586.129 628.456 585.999 629.231 585.874C628.443 586.324 627.655 586.773 626.867 587.222C583.83 611.761 540.731 636.19 497.631 660.619C454.179 685.247 410.728 709.875 367.342 734.616C366.905 734.865 366.467 735.114 366.03 735.364C366.188 734.905 366.35 734.429 366.515 733.936C372.191 717.042 382.284 680.144 367.895 641.061L367.702 640.543C361.819 624.718 351.929 598.116 324.185 586.654C298.176 576.358 259.356 580.866 246.137 603.933C239.151 615.375 237.462 634.871 248.88 646.801C256.321 654.501 265.857 656.235 270.607 656.953C270.852 656.99 271.084 657.024 271.303 657.056C271.427 657.075 271.546 657.092 271.661 657.109C271.641 657.005 271.61 656.859 271.57 656.675C271.534 656.504 271.49 656.3 271.442 656.066C270.714 652.516 268.961 642.021 275.192 634.079C283.684 623.003 301.82 623.027 311.269 629.303C326.837 639.453 322.264 667.406 315.208 683.21C302.725 711.451 273.01 720.889 267.574 722.616C267.265 722.714 267.035 722.787 266.89 722.837C233.22 731.781 201.428 713.71 185.029 695.396C159.184 666.206 156.832 619.197 179.408 577.672C179.583 577.351 179.759 577.031 179.936 576.711C179.661 576.69 179.295 576.66 178.846 576.615C171.569 575.897 142.501 571.548 126.067 547.308C108.838 520.829 111.146 479.984 138.351 458.721C161.231 440.909 189.772 445.55 196.827 447.382C197.345 447.516 197.747 447.635 198.023 447.729C197.879 447.344 197.734 446.951 197.588 446.551C192.923 433.778 187.343 413.67 191.143 388.728C191.24 388.148 191.337 387.549 191.438 386.932C192.999 377.383 195.252 363.605 204.96 349.882C212.654 338.967 220.695 333.948 228.363 329.163C232.398 326.645 236.329 324.192 240.051 320.978C252.611 309.45 263.952 285.927 254.578 232.944C254.48 232.389 254.379 231.831 254.277 231.27C254.687 231.667 255.096 232.058 255.505 232.446C281.374 256.947 303.928 262.007 316.693 263.146C333.64 264.475 352.382 261.063 365.2 258.601C375.781 256.469 383.433 254.289 389.588 252.535C400.633 249.387 406.854 247.615 416.522 249.962C433.083 253.983 444.283 266.656 448.194 271.189C455.446 279.593 459.506 288.248 461.843 294.34C462.027 294.82 462.2 295.283 462.363 295.73C462.5 295.369 462.685 294.908 462.92 294.36C465.777 287.722 476.132 268.306 499.586 258.187L499.629 258.168C504.367 256.064 527.962 245.582 551.907 255.762C579.769 267.273 585.314 296.541 586.628 303.477L586.654 303.614C589.494 321.282 584.418 336.312 581.34 342.981C581.17 343.349 581.006 343.692 580.85 344.008C581.215 343.988 581.594 343.969 581.989 343.951ZM585.669 303.786C588.617 322.15 582.88 337.635 579.953 343.565L579.195 345.102L580.906 345.006C591.463 344.415 614.881 344.972 639.043 357.94L639.051 357.944L639.06 357.948C646.382 361.707 679.787 379.681 689.004 418.897C689.066 419.196 689.137 419.524 689.213 419.881C691.401 430.093 698.538 463.396 675.317 491.505C657.558 512.719 630.899 520.817 609.503 520.354C608.927 520.311 608.309 520.269 607.656 520.225C602.883 519.9 596.189 519.445 589.649 517.556C582.21 515.408 575.147 511.452 571.397 503.886L571.392 503.876C569.055 499.288 567.96 493.332 568.42 487.588C568.88 481.84 570.886 476.431 574.602 472.83L574.607 472.825L574.613 472.82C579.453 467.988 585.825 467.336 591.962 466.823L592.362 466.789C595.239 466.55 598.091 466.312 600.542 465.584C603.139 464.813 605.391 463.462 606.83 460.905C609.283 457.073 608.907 451.763 607.021 446.918C605.119 442.027 601.582 437.33 597.291 434.614C589.743 429.835 579.512 430.863 569.75 434.782C559.946 438.718 550.344 445.67 543.834 453.192L543.832 453.195C528.852 470.65 529.507 492.265 530.218 503.602L530.218 503.61C530.516 510.893 532.308 554.8 570.202 577.303L570.22 577.314L570.239 577.324C591.242 588.596 612.856 588.631 624.354 587.504C581.989 611.655 539.564 635.702 497.138 659.749C454.01 684.193 410.882 708.639 367.817 733.194C373.565 715.784 383.048 679.324 368.833 640.716L368.832 640.713L368.614 640.126C362.741 624.327 352.717 597.36 324.567 585.73L324.56 585.727L324.553 585.724C311.363 580.503 294.964 579.043 280.181 581.799C265.417 584.552 252.087 591.549 245.276 603.424C241.684 609.313 239.472 617.23 239.607 625.201C239.742 633.185 242.236 641.305 248.158 647.492L248.161 647.496C256.225 655.842 266.66 657.382 271.134 658.042C271.265 658.062 271.392 658.08 271.513 658.099L272.905 658.306L272.643 656.923C272.622 656.81 272.589 656.655 272.548 656.462C272.269 655.157 271.62 652.108 271.651 648.363C271.687 644.066 272.623 638.974 275.979 634.697L275.986 634.688C280.015 629.432 286.376 626.757 292.959 626.18C299.551 625.602 306.212 627.144 310.715 630.136L310.722 630.14C318.08 634.937 320.801 644.024 320.723 654.129C320.645 664.201 317.777 675.004 314.295 682.803L314.294 682.806C302.008 710.599 272.742 719.92 267.261 721.665C266.972 721.757 266.75 721.828 266.599 721.88C233.432 730.672 202.018 712.87 185.774 694.729C160.082 665.707 157.824 618.68 180.81 577.195L181.567 575.83L180.01 575.714C175.307 575.363 144.066 572.067 126.9 546.753C109.906 520.627 112.247 480.393 138.966 459.508C151.034 450.115 164.723 447.062 175.932 446.538C187.158 446.013 195.81 448.03 197.7 448.676L199.699 449.359L198.96 447.38C194.247 434.76 188.25 414.367 192.13 388.887C192.226 388.311 192.323 387.719 192.423 387.109C193.985 377.563 196.205 363.989 205.776 350.459L205.777 350.458C211.557 342.258 217.527 337.443 223.415 333.51C225.208 332.312 227.016 331.184 228.818 330.059C232.885 327.521 236.922 325 240.705 321.735L240.716 321.725L240.728 321.715C253.533 309.961 264.779 286.325 255.792 234.087C281.436 257.973 303.805 263 316.604 264.143L316.615 264.143C333.715 265.484 352.584 262.042 365.389 259.583L365.398 259.582C376.02 257.441 383.739 255.242 389.901 253.486C392.334 252.793 394.523 252.169 396.554 251.645C403.715 249.796 408.975 249.159 416.286 250.934C432.511 254.873 443.531 267.316 447.437 271.842C455.152 280.783 459.21 290.018 461.424 296.073L462.347 298.597L463.299 296.084C465.048 291.462 474.949 269.906 499.983 259.105L499.992 259.101L500.018 259.089C504.715 257.003 527.972 246.673 551.516 256.682L551.525 256.686C578.884 267.989 584.341 296.782 585.651 303.69L585.669 303.786Z" fill="#ECE1CF"/>
<path d="M423 647.639C423 663.655 401.51 676.639 375 676.639C348.49 676.639 327 663.655 327 647.639C327 631.622 348.49 618.639 375 618.639C401.51 618.639 423 631.622 423 647.639Z" fill="#101010"/>
<path d="M509.719 64.8338C515.433 71.7233 528.139 89.4168 530.963 115.775C533.254 135.44 529.086 150.994 525.619 159.591C530.258 159.643 545.95 159.681 559.751 171.118C581.042 189.326 577.792 218.819 577.196 221.041C583.909 219.863 607.697 217.902 630.967 233.068C660.152 252.2 665.435 284.575 666.415 289.6C622.253 287.293 596.424 301.211 584.074 310.404C571.182 319.453 562.332 330.775 543.942 353.83C508.15 398.419 510.95 407.504 493.366 418.868C467.879 435.853 430.473 436.547 402.565 421.329C361.442 398.998 353.422 348.624 350.588 328.813C346.381 303.276 351.966 297.627 348.834 278.927C343.936 253.799 326.366 221.704 267.443 189.841C274.953 183.518 296.344 166.625 327.93 163.777C351.176 161.67 368.635 168.134 377.955 172.418C378.008 170.05 380.898 150.582 397.195 141.851C412.95 132.974 435.345 138.379 448.2 155.517C450.783 143.707 456.684 123.854 470.926 103.26C485.167 82.6657 500.432 71.2761 509.719 64.8338Z" fill="#D75014"/>
<mask id="path-4-inside-1_438_7009" fill="white">
<path fill-rule="evenodd" clip-rule="evenodd" d="M820.792 327.141C821.081 327.653 821.38 328.178 821.688 328.716C822.228 328.988 822.769 329.259 823.31 329.529C823 328.994 822.699 328.47 822.406 327.958C821.868 327.687 821.33 327.415 820.792 327.141ZM1090.98 461.449C1063.43 463.967 994.57 470.035 923.188 429.356C867.031 397.426 836.872 352.918 823.31 329.529C909.131 372.277 996.309 376.509 1047.33 333.48L1047.33 333.475L1047.34 333.47C1059.44 322.962 1073.21 306.005 1082.17 287.602C1091.11 269.233 1095.37 249.186 1088.04 232.653L1088.04 232.641L1088.03 232.629C1083.62 223.363 1075.63 215.615 1068.09 209.844C1060.54 204.062 1053.36 200.199 1050.49 198.73C1033.88 190.253 1018.86 187.981 1009.08 187.171C1009 187.517 1008.93 187.846 1008.87 188.157C1008.53 188.129 1008.2 188.103 1007.87 188.078C1007.93 187.767 1008 187.437 1008.08 187.091C1008.4 187.116 1008.74 187.142 1009.08 187.171C1010.81 179.484 1016.6 163.435 1031.64 150.136L1031.64 150.128L1031.65 150.119C1037.22 144.935 1053.72 131.07 1076.82 133.014C1076.82 133.014 1076.81 133.014 1076.81 133.013L1076.91 132.018L1076.82 133.014C1076.82 133.014 1076.82 133.014 1076.82 133.014C1095.37 134.805 1108.28 146.298 1111.92 150.213L1113.03 151.397L1113.59 149.883C1114 148.798 1116.4 142.886 1121.39 136.587C1126.38 130.291 1133.91 123.663 1144.57 121.018C1144.56 121.018 1144.56 121.018 1144.56 121.019L1144.33 120.047L1144.57 121.017C1144.57 121.018 1144.57 121.018 1144.57 121.018C1163.61 116.4 1178.73 127.106 1185.9 132.394L1185.9 132.401L1185.91 132.407C1202.76 144.274 1208.32 160.941 1210.47 167.381L1211.04 169.107L1212.18 168.048C1213.49 166.826 1219.27 162.354 1228 158.835C1236.71 155.323 1248.32 152.784 1261.34 155.33C1261.34 155.33 1261.34 155.33 1261.33 155.329L1261.53 154.349L1261.34 155.331C1261.34 155.331 1261.34 155.33 1261.34 155.33C1261.41 155.344 1261.48 155.358 1261.55 155.373C1266.61 156.396 1288.35 160.787 1299.18 180.953L1299.18 180.956C1307.34 196.023 1304.52 211.107 1303.59 215.676L1302.99 218.59L1305.23 216.628C1319.01 204.527 1336.97 200.304 1351.39 206.439C1351.39 206.438 1351.39 206.436 1351.38 206.435L1351.79 205.523L1351.4 206.443C1351.4 206.442 1351.4 206.441 1351.39 206.439C1367.69 213.795 1373.52 230.993 1375.93 239.21C1380.34 254.259 1378.71 267.575 1377.33 274.008L1377.03 275.393L1378.43 275.209C1378.69 275.176 1379 275.131 1379.37 275.078C1382.48 274.634 1389.54 273.623 1397.62 274.247C1406.67 274.946 1416.83 277.688 1424.03 285.429C1429.42 291.223 1431.81 298.239 1432.64 306.649C1433.46 314.852 1432.78 324.288 1432.01 335.117C1431.99 335.433 1431.96 335.751 1431.94 336.071C1431.94 336.068 1431.94 336.065 1431.94 336.063L1432.94 336.15L1431.94 336.079C1431.94 336.076 1431.94 336.073 1431.94 336.071C1430.04 357.754 1424.42 374.72 1420.23 385.463C1420.49 385.717 1420.75 385.967 1421 386.215C1420.87 386.557 1420.74 386.893 1420.61 387.222C1420.35 386.975 1420.09 386.723 1419.83 386.469C1419.96 386.14 1420.09 385.805 1420.23 385.463C1411.83 377.426 1398.12 366.262 1377.85 358.449L1377.84 358.445C1377.63 358.367 1377.4 358.28 1377.14 358.183C1369.01 355.123 1337.62 343.316 1305.41 352.815C1290.53 357.201 1280.35 364.604 1271.38 373.427C1266.91 377.828 1262.73 382.587 1258.43 387.485L1258.35 387.575C1254.08 392.451 1249.67 397.468 1244.71 402.463C1244.71 402.462 1244.71 402.461 1244.71 402.46L1245.41 403.17L1244.7 402.465C1244.71 402.464 1244.71 402.464 1244.71 402.463C1196.26 450.493 1129.09 457.483 1092.53 461.288C1092.01 461.342 1091.49 461.396 1090.98 461.449ZM1091.08 462.445L1090.98 461.45C1090.98 461.45 1090.98 461.45 1090.98 461.449C1090.99 461.449 1090.99 461.449 1090.99 461.449L1091.08 462.445ZM1379.36 274.07C1379.33 274.191 1379.31 274.31 1379.28 274.427L1378.3 274.218L1378.17 273.226C1378.28 273.213 1378.39 273.197 1378.52 273.179C1378.45 273.543 1378.37 273.889 1378.3 274.218C1378.55 274.185 1378.86 274.141 1379.23 274.088C1379.27 274.082 1379.31 274.076 1379.36 274.07ZM1305.79 214.83C1305.7 215.306 1305.62 215.723 1305.55 216.077L1304.57 215.877L1303.91 215.125C1304.23 214.844 1304.55 214.567 1304.88 214.294C1304.76 214.911 1304.66 215.442 1304.57 215.877C1304.97 215.521 1305.38 215.172 1305.79 214.83ZM1212.32 166.612C1212.33 166.649 1212.35 166.687 1212.36 166.723L1212.45 166.999L1211.5 167.316L1210.82 166.584C1210.91 166.496 1211.03 166.395 1211.16 166.283C1211.25 166.553 1211.33 166.81 1211.41 167.052L1211.5 167.316C1211.69 167.138 1211.97 166.899 1212.32 166.612ZM1113.07 148.512C1113.18 148.63 1113.29 148.743 1113.39 148.851L1112.66 149.532L1111.72 149.181C1111.76 149.073 1111.82 148.924 1111.89 148.739C1112.18 149.028 1112.43 149.294 1112.66 149.532C1112.73 149.332 1112.87 148.984 1113.07 148.512Z"/>
</mask>
<path d="M820.792 327.141L819.486 327.879L817.04 323.55L821.472 325.804L820.792 327.141ZM821.688 328.716L821.013 330.055L820.61 329.852L820.386 329.461L821.688 328.716ZM822.406 327.958L823.08 326.618L823.484 326.821L823.708 327.213L822.406 327.958ZM923.188 429.356L923.93 428.052L923.931 428.053L923.188 429.356ZM1047.33 333.48L1048.3 334.624L1048.3 334.626L1047.33 333.48ZM1047.33 333.475L1048.32 334.608L1048.31 334.614L1048.3 334.619L1047.33 333.475ZM1047.34 333.47L1048.32 334.602L1048.32 334.603L1047.34 333.47ZM1082.17 287.602L1080.82 286.946L1080.82 286.946L1082.17 287.602ZM1088.04 232.653L1089.41 232.044L1089.42 232.045L1088.04 232.653ZM1088.04 232.641L1089.39 231.997L1089.4 232.014L1089.41 232.032L1088.04 232.641ZM1088.03 232.629L1089.39 231.984L1089.39 231.985L1088.03 232.629ZM1068.09 209.844L1069 208.653L1069 208.653L1068.09 209.844ZM1050.49 198.73L1049.8 200.066L1049.8 200.066L1050.49 198.73ZM1008.87 188.157L1010.34 188.45L1010.08 189.761L1008.75 189.652L1008.87 188.157ZM1007.87 188.078L1007.76 189.574L1006.07 189.448L1006.4 187.79L1007.87 188.078ZM1008.08 187.091L1006.61 186.766L1006.89 185.497L1008.19 185.595L1008.08 187.091ZM1031.64 150.136L1032.63 151.258L1032.63 151.26L1031.64 150.136ZM1031.64 150.128L1032.67 151.227L1032.65 151.238L1032.64 151.25L1031.64 150.128ZM1031.65 150.119L1032.68 151.217L1032.67 151.218L1031.65 150.119ZM1076.81 133.013L1076.67 134.507L1075.18 134.363L1075.32 132.869L1076.81 133.013ZM1076.91 132.018L1075.42 131.874L1078.4 132.144L1076.91 132.018ZM1076.82 133.014L1078.32 133.141L1078.19 134.633L1076.7 134.509L1076.82 133.014ZM1111.92 150.213L1110.83 151.235L1110.83 151.235L1111.92 150.213ZM1113.03 151.397L1114.43 151.923L1113.58 154.195L1111.93 152.419L1113.03 151.397ZM1113.59 149.883L1112.19 149.357L1112.19 149.357L1113.59 149.883ZM1121.39 136.587L1122.57 137.519L1122.57 137.519L1121.39 136.587ZM1144.56 121.019L1144.92 122.476L1143.46 122.83L1143.1 121.372L1144.56 121.019ZM1144.33 120.047L1142.87 120.401L1145.78 119.686L1144.33 120.047ZM1144.57 121.017L1146.02 120.656L1146.38 122.089L1144.95 122.467L1144.57 121.017ZM1185.9 132.394L1186.79 131.187L1186.79 131.187L1185.9 132.394ZM1185.9 132.401L1185.04 133.627L1185.03 133.617L1185.01 133.607L1185.9 132.401ZM1185.91 132.407L1186.78 131.18L1186.78 131.18L1185.91 132.407ZM1210.47 167.381L1209.05 167.856L1209.05 167.856L1210.47 167.381ZM1211.04 169.107L1212.07 170.205L1210.36 171.794L1209.62 169.582L1211.04 169.107ZM1212.18 168.048L1211.16 166.95L1211.16 166.95L1212.18 168.048ZM1228 158.835L1228.56 160.226L1228.56 160.226L1228 158.835ZM1261.33 155.329L1261.03 156.799L1259.57 156.497L1259.86 155.031L1261.33 155.329ZM1261.53 154.349L1260.06 154.051L1263.01 154.637L1261.53 154.349ZM1261.34 155.331L1262.81 155.619L1262.52 157.098L1261.05 156.801L1261.34 155.331ZM1261.55 155.373L1261.85 153.903L1261.85 153.903L1261.55 155.373ZM1299.18 180.953L1300.5 180.244L1300.5 180.244L1299.18 180.953ZM1299.18 180.956L1297.86 181.671L1297.86 181.666L1299.18 180.956ZM1303.59 215.676L1305.06 215.977L1305.06 215.977L1303.59 215.676ZM1302.99 218.59L1303.98 219.718L1300.63 222.661L1301.52 218.29L1302.99 218.59ZM1305.23 216.628L1306.22 217.756L1306.22 217.756L1305.23 216.628ZM1351.38 206.435L1350.77 207.802L1349.4 207.185L1350.02 205.818L1351.38 206.435ZM1351.79 205.523L1350.43 204.907L1353.17 206.111L1351.79 205.523ZM1351.4 206.443L1352.78 207.031L1352.2 208.411L1350.81 207.824L1351.4 206.443ZM1375.93 239.21L1377.37 238.788L1377.37 238.788L1375.93 239.21ZM1377.33 274.008L1375.86 273.693L1375.86 273.693L1377.33 274.008ZM1377.03 275.393L1377.22 276.88L1375.12 277.156L1375.56 275.078L1377.03 275.393ZM1378.43 275.209L1378.24 273.722L1378.24 273.722L1378.43 275.209ZM1379.37 275.078L1379.16 273.593L1379.16 273.593L1379.37 275.078ZM1397.62 274.247L1397.74 272.751L1397.74 272.751L1397.62 274.247ZM1424.03 285.429L1425.13 284.408L1425.13 284.408L1424.03 285.429ZM1432.64 306.649L1434.14 306.501L1434.14 306.501L1432.64 306.649ZM1432.01 335.117L1430.51 335.01L1430.51 335.01L1432.01 335.117ZM1431.94 336.063L1430.45 335.931L1430.58 334.437L1432.07 334.568L1431.94 336.063ZM1432.94 336.15L1433.07 334.656L1432.83 337.646L1432.94 336.15ZM1431.94 336.079L1431.83 337.575L1430.34 337.468L1430.44 335.973L1431.94 336.079ZM1421 386.215L1422.05 385.139L1422.77 385.834L1422.4 386.763L1421 386.215ZM1420.61 387.222L1422 387.778L1421.17 389.866L1419.56 388.295L1420.61 387.222ZM1419.83 386.469L1418.79 387.55L1418.06 386.852L1418.44 385.916L1419.83 386.469ZM1377.85 358.449L1378.39 357.05L1378.39 357.05L1377.85 358.449ZM1377.84 358.445L1378.37 357.04L1378.38 357.043L1378.38 357.046L1377.84 358.445ZM1377.14 358.183L1377.67 356.779L1377.67 356.779L1377.14 358.183ZM1305.41 352.815L1305.83 354.254L1305.83 354.254L1305.41 352.815ZM1271.38 373.427L1272.43 374.496L1272.43 374.496L1271.38 373.427ZM1258.43 387.485L1259.56 388.474L1259.56 388.474L1258.43 387.485ZM1258.35 387.575L1257.22 386.586L1257.23 386.586L1258.35 387.575ZM1244.71 402.46L1243.65 401.402L1244.71 400.332L1245.77 401.404L1244.71 402.46ZM1245.41 403.17L1246.48 402.114L1244.35 404.233L1245.41 403.17ZM1244.7 402.465L1243.65 403.529L1242.58 402.472L1243.64 401.408L1244.7 402.465ZM1092.53 461.288L1092.69 462.78L1092.69 462.78L1092.53 461.288ZM1091.08 462.445L1092.58 462.308L1089.59 462.6L1091.08 462.445ZM1090.98 461.45L1089.49 461.606L1089.33 460.11L1090.83 459.958L1090.98 461.45ZM1090.99 461.449L1090.86 459.954L1092.35 459.825L1092.48 461.312L1090.99 461.449ZM1379.36 274.07L1379.14 272.585L1381.26 272.282L1380.83 274.375L1379.36 274.07ZM1379.28 274.427L1380.75 274.742L1380.43 276.209L1378.97 275.894L1379.28 274.427ZM1378.3 274.218L1377.99 275.684L1376.95 275.462L1376.82 274.412L1378.3 274.218ZM1378.17 273.226L1376.69 273.421L1376.49 271.933L1377.98 271.739L1378.17 273.226ZM1378.52 273.179L1378.31 271.694L1380.39 271.402L1379.99 273.467L1378.52 273.179ZM1379.23 274.088L1379.44 275.573L1379.44 275.573L1379.23 274.088ZM1305.79 214.83L1304.83 213.676L1308.04 211.018L1307.27 215.108L1305.79 214.83ZM1305.55 216.077L1307.02 216.378L1306.72 217.847L1305.25 217.547L1305.55 216.077ZM1304.57 215.877L1304.27 217.346L1303.77 217.245L1303.44 216.866L1304.57 215.877ZM1303.91 215.125L1302.78 216.115L1301.79 214.987L1302.92 213.998L1303.91 215.125ZM1304.88 214.294L1303.91 213.146L1307.1 210.466L1306.35 214.563L1304.88 214.294ZM1212.32 166.612L1211.37 165.448L1213.06 164.08L1213.74 166.138L1212.32 166.612ZM1212.36 166.723L1210.93 167.198L1210.93 167.198L1212.36 166.723ZM1212.45 166.999L1213.87 166.525L1214.35 167.947L1212.92 168.422L1212.45 166.999ZM1211.5 167.316L1211.98 168.739L1211.06 169.044L1210.4 168.338L1211.5 167.316ZM1210.82 166.584L1209.72 167.606L1208.7 166.508L1209.8 165.486L1210.82 166.584ZM1211.16 166.283L1210.17 165.149L1211.87 163.684L1212.58 165.805L1211.16 166.283ZM1211.41 167.052L1209.99 167.527L1209.99 167.527L1211.41 167.052ZM1113.07 148.512L1111.69 147.925L1112.58 145.833L1114.15 147.474L1113.07 148.512ZM1113.39 148.851L1114.49 147.829L1115.51 148.927L1114.41 149.949L1113.39 148.851ZM1112.66 149.532L1113.68 150.63L1113 151.262L1112.13 150.937L1112.66 149.532ZM1111.72 149.181L1111.19 150.586L1109.79 150.06L1110.32 148.656L1111.72 149.181ZM1111.89 148.739L1110.5 148.18L1111.35 146.066L1112.96 147.681L1111.89 148.739ZM822.098 326.403C822.386 326.913 822.683 327.435 822.989 327.97L820.386 329.461C820.077 328.921 819.777 328.394 819.486 327.879L822.098 326.403ZM822.641 330.871C822.098 330.601 821.555 330.329 821.013 330.055L822.363 327.376C822.901 327.648 823.44 327.918 823.979 328.186L822.641 330.871ZM823.708 327.213C824 327.723 824.299 328.244 824.608 328.776L822.013 330.281C821.701 329.743 821.398 329.217 821.104 328.702L823.708 327.213ZM821.732 329.298C821.192 329.026 820.652 328.753 820.112 328.478L821.472 325.804C822.008 326.077 822.544 326.348 823.08 326.618L821.732 329.298ZM923.931 428.053C994.888 468.49 1063.35 462.469 1090.85 459.956L1091.12 462.943C1063.52 465.466 994.251 471.58 922.446 430.66L923.931 428.053ZM824.608 328.776C838.101 352.047 868.094 396.305 923.93 428.052L922.447 430.66C865.968 398.547 835.643 353.789 822.013 330.281L824.608 328.776ZM1048.3 334.626C996.583 378.24 908.653 373.715 822.641 330.871L823.979 328.186C909.61 370.84 996.036 374.778 1046.36 332.333L1048.3 334.626ZM1048.3 334.619L1048.3 334.624L1046.36 332.335L1046.37 332.33L1048.3 334.619ZM1048.32 334.603L1048.32 334.608L1046.35 332.342L1046.36 332.337L1048.32 334.603ZM1083.52 288.259C1074.46 306.85 1060.57 323.968 1048.32 334.602L1046.36 332.338C1058.31 321.957 1071.95 305.159 1080.82 286.946L1083.52 288.259ZM1089.42 232.045C1097.02 249.187 1092.53 269.752 1083.52 288.259L1080.82 286.946C1089.7 268.715 1093.73 249.185 1086.67 233.261L1089.42 232.045ZM1089.41 232.032L1089.41 232.044L1086.67 233.263L1086.67 233.25L1089.41 232.032ZM1089.39 231.985L1089.39 231.997L1086.68 233.285L1086.68 233.273L1089.39 231.985ZM1069 208.653C1076.62 214.484 1084.83 222.406 1089.39 231.984L1086.68 233.274C1082.41 224.32 1074.64 216.746 1067.18 211.035L1069 208.653ZM1051.17 197.394C1054.09 198.885 1061.35 202.794 1069 208.653L1067.18 211.035C1059.73 205.329 1052.64 201.513 1049.8 200.066L1051.17 197.394ZM1009.21 185.676C1019.09 186.496 1034.33 188.797 1051.17 197.394L1049.8 200.066C1033.43 191.709 1018.62 189.467 1008.96 188.666L1009.21 185.676ZM1010.55 187.5C1010.47 187.834 1010.4 188.151 1010.34 188.45L1007.4 187.864C1007.47 187.541 1007.54 187.199 1007.62 186.841L1010.55 187.5ZM1007.98 186.582C1008.31 186.607 1008.65 186.634 1009 186.662L1008.75 189.652C1008.41 189.624 1008.08 189.598 1007.76 189.574L1007.98 186.582ZM1009.54 187.416C1009.47 187.75 1009.4 188.068 1009.34 188.366L1006.4 187.79C1006.46 187.466 1006.53 187.124 1006.61 186.766L1009.54 187.416ZM1008.19 185.595C1008.52 185.62 1008.86 185.647 1009.21 185.676L1008.96 188.666C1008.62 188.638 1008.29 188.611 1007.96 188.587L1008.19 185.595ZM1032.63 151.26C1017.89 164.294 1012.23 180.025 1010.55 187.5L1007.62 186.841C1009.4 178.943 1015.3 162.577 1030.64 149.012L1032.63 151.26ZM1032.64 151.25L1032.63 151.258L1030.64 149.014L1030.65 149.006L1032.64 151.25ZM1032.67 151.218L1032.67 151.227L1030.62 149.029L1030.63 149.02L1032.67 151.218ZM1076.69 134.509C1054.26 132.62 1038.18 146.095 1032.68 151.217L1030.63 149.021C1036.27 143.776 1053.18 129.519 1076.94 131.519L1076.69 134.509ZM1076.68 134.507C1076.67 134.507 1076.67 134.507 1076.67 134.507C1076.67 134.506 1076.67 134.506 1076.67 134.507L1076.96 131.52C1076.96 131.521 1076.96 131.521 1076.96 131.521C1076.96 131.521 1076.96 131.521 1076.96 131.521L1076.68 134.507ZM1075.32 132.869L1075.42 131.874L1078.4 132.162L1078.31 133.157L1075.32 132.869ZM1078.4 132.144L1078.32 133.141L1075.33 132.888L1075.41 131.892L1078.4 132.144ZM1076.7 134.509C1076.7 134.509 1076.7 134.509 1076.7 134.509C1076.7 134.509 1076.7 134.509 1076.7 134.509L1076.94 131.519C1076.94 131.519 1076.95 131.519 1076.95 131.519C1076.95 131.52 1076.95 131.52 1076.95 131.52L1076.7 134.509ZM1110.83 151.235C1107.3 147.45 1094.71 136.248 1076.67 134.507L1076.96 131.521C1096.04 133.362 1109.26 145.146 1113.02 149.191L1110.83 151.235ZM1111.93 152.419L1110.83 151.235L1113.02 149.191L1114.12 150.375L1111.93 152.419ZM1115 150.409L1114.43 151.923L1111.62 150.871L1112.19 149.357L1115 150.409ZM1122.57 137.519C1117.7 143.657 1115.37 149.417 1115 150.409L1112.19 149.357C1112.63 148.179 1115.1 142.115 1120.22 135.656L1122.57 137.519ZM1144.93 122.474C1134.69 125.014 1127.43 131.386 1122.57 137.519L1120.22 135.656C1125.33 129.195 1133.12 122.313 1144.2 119.562L1144.93 122.474ZM1144.92 122.476C1144.92 122.475 1144.92 122.475 1144.92 122.476C1144.92 122.476 1144.92 122.476 1144.92 122.476L1144.21 119.561C1144.21 119.561 1144.21 119.561 1144.21 119.561C1144.21 119.561 1144.21 119.56 1144.21 119.56L1144.92 122.476ZM1143.1 121.372L1142.87 120.401L1145.78 119.693L1146.02 120.665L1143.1 121.372ZM1145.78 119.686L1146.02 120.656L1143.11 121.379L1142.87 120.408L1145.78 119.686ZM1144.95 122.467C1144.94 122.471 1144.93 122.473 1144.92 122.475C1144.92 122.476 1144.92 122.476 1144.91 122.477C1144.91 122.477 1144.91 122.477 1144.91 122.477C1144.91 122.477 1144.91 122.477 1144.91 122.477C1144.91 122.477 1144.91 122.477 1144.91 122.477C1144.91 122.477 1144.91 122.477 1144.91 122.477C1144.92 122.476 1144.92 122.476 1144.92 122.475C1144.93 122.474 1144.94 122.471 1144.95 122.468L1144.18 119.568C1144.19 119.565 1144.2 119.562 1144.21 119.56C1144.21 119.56 1144.22 119.559 1144.22 119.559C1144.22 119.558 1144.22 119.558 1144.22 119.558C1144.22 119.558 1144.22 119.558 1144.22 119.558C1144.22 119.558 1144.22 119.558 1144.22 119.558C1144.22 119.558 1144.22 119.558 1144.22 119.559C1144.22 119.559 1144.21 119.559 1144.21 119.56C1144.21 119.562 1144.2 119.564 1144.18 119.568L1144.95 122.467ZM1185 133.601C1177.83 128.307 1163.23 118.036 1144.92 122.476L1144.21 119.56C1163.99 114.765 1179.63 125.905 1186.79 131.187L1185 133.601ZM1185.01 133.607L1185 133.601L1186.79 131.187L1186.79 131.194L1185.01 133.607ZM1185.05 133.633L1185.04 133.627L1186.77 131.174L1186.78 131.18L1185.05 133.633ZM1209.05 167.856C1206.91 161.459 1201.48 145.203 1185.05 133.633L1186.78 131.18C1204.05 143.344 1209.73 160.423 1211.89 166.907L1209.05 167.856ZM1213.2 169.145L1212.07 170.205L1210.02 168.009L1211.16 166.95L1213.2 169.145ZM1228.56 160.226C1220 163.677 1214.38 168.051 1213.2 169.145L1211.16 166.95C1212.61 165.601 1218.54 161.03 1227.44 157.444L1228.56 160.226ZM1261.05 156.802C1248.39 154.327 1237.08 156.791 1228.56 160.226L1227.44 157.444C1236.34 153.855 1248.25 151.242 1261.63 153.858L1261.05 156.802ZM1261.04 156.8C1261.04 156.8 1261.04 156.801 1261.04 156.8C1261.04 156.8 1261.04 156.799 1261.03 156.799L1261.64 153.86C1261.63 153.86 1261.63 153.859 1261.63 153.859C1261.63 153.859 1261.64 153.86 1261.64 153.861L1261.04 156.8ZM1259.86 155.031L1260.06 154.051L1263 154.648L1262.8 155.628L1259.86 155.031ZM1263.01 154.637L1262.81 155.619L1259.87 155.043L1260.06 154.061L1263.01 154.637ZM1261.05 156.801C1261.05 156.802 1261.05 156.803 1261.05 156.803C1261.06 156.803 1261.06 156.803 1261.06 156.803C1261.06 156.803 1261.06 156.803 1261.06 156.803C1261.05 156.803 1261.05 156.803 1261.05 156.803C1261.05 156.802 1261.05 156.802 1261.04 156.801L1261.63 153.86C1261.63 153.859 1261.63 153.858 1261.63 153.858C1261.63 153.858 1261.62 153.858 1261.62 153.858C1261.62 153.858 1261.63 153.858 1261.63 153.858C1261.63 153.858 1261.63 153.858 1261.63 153.858C1261.63 153.859 1261.63 153.859 1261.64 153.86L1261.05 156.801ZM1261.25 156.844C1261.18 156.829 1261.11 156.814 1261.04 156.8L1261.64 153.86C1261.7 153.874 1261.77 153.888 1261.85 153.903L1261.25 156.844ZM1297.86 181.663C1287.39 162.162 1266.32 157.866 1261.25 156.844L1261.85 153.903C1266.91 154.926 1289.32 159.413 1300.5 180.244L1297.86 181.663ZM1297.86 181.666L1297.86 181.663L1300.5 180.244L1300.5 180.247L1297.86 181.666ZM1302.12 215.376C1303.04 210.873 1305.76 196.246 1297.86 181.671L1300.5 180.242C1308.93 195.8 1306.01 211.341 1305.06 215.977L1302.12 215.376ZM1301.52 218.29L1302.12 215.376L1305.06 215.977L1304.46 218.891L1301.52 218.29ZM1306.22 217.756L1303.98 219.718L1302 217.463L1304.24 215.501L1306.22 217.756ZM1350.81 207.82C1337.04 201.964 1319.69 205.934 1306.22 217.756L1304.24 215.501C1318.34 203.121 1336.9 198.643 1351.98 205.059L1350.81 207.82ZM1350.78 207.807C1350.77 207.805 1350.77 207.803 1350.77 207.802L1352 205.068C1352 205.069 1352.01 205.07 1352.01 205.072L1350.78 207.807ZM1350.02 205.818L1350.43 204.907L1353.16 206.14L1352.75 207.051L1350.02 205.818ZM1353.17 206.111L1352.78 207.031L1350.02 205.856L1350.41 204.936L1353.17 206.111ZM1350.81 207.824C1350.81 207.822 1350.81 207.821 1350.81 207.82L1351.98 205.059C1351.98 205.06 1351.99 205.062 1351.99 205.063L1350.81 207.824ZM1374.49 239.632C1372.08 231.412 1366.4 214.857 1350.78 207.806L1352.01 205.072C1368.98 212.732 1374.96 230.575 1377.37 238.788L1374.49 239.632ZM1375.86 273.693C1377.21 267.413 1378.81 254.365 1374.49 239.632L1377.37 238.788C1381.87 254.152 1380.21 267.737 1378.79 274.322L1375.86 273.693ZM1375.56 275.078L1375.86 273.693L1378.79 274.322L1378.5 275.708L1375.56 275.078ZM1378.63 276.696L1377.22 276.88L1376.83 273.906L1378.24 273.722L1378.63 276.696ZM1379.59 276.563C1379.22 276.615 1378.89 276.662 1378.63 276.696L1378.24 273.722C1378.48 273.69 1378.79 273.646 1379.16 273.593L1379.59 276.563ZM1397.5 275.742C1389.6 275.132 1382.68 276.121 1379.59 276.563L1379.16 273.593C1382.28 273.147 1389.48 272.114 1397.74 272.751L1397.5 275.742ZM1422.93 286.451C1416.1 279.104 1406.39 276.428 1397.5 275.742L1397.74 272.751C1406.96 273.463 1417.56 276.271 1425.13 284.408L1422.93 286.451ZM1431.15 306.797C1430.34 298.594 1428.03 291.93 1422.93 286.451L1425.13 284.408C1430.81 290.517 1433.28 297.883 1434.14 306.501L1431.15 306.797ZM1430.51 335.01C1431.29 324.142 1431.95 314.846 1431.15 306.797L1434.14 306.501C1434.96 314.858 1434.28 324.434 1433.51 335.224L1430.51 335.01ZM1430.44 335.964C1430.47 335.645 1430.49 335.327 1430.51 335.01L1433.51 335.224C1433.48 335.54 1433.46 335.858 1433.44 336.177L1430.44 335.964ZM1430.45 335.939C1430.45 335.938 1430.45 335.937 1430.45 335.936C1430.45 335.934 1430.45 335.933 1430.45 335.931L1433.44 336.194C1433.44 336.195 1433.44 336.196 1433.44 336.197C1433.44 336.199 1433.44 336.2 1433.43 336.202L1430.45 335.939ZM1432.07 334.568L1433.07 334.656L1432.81 337.644L1431.81 337.557L1432.07 334.568ZM1432.83 337.646L1431.83 337.575L1432.05 334.583L1433.04 334.654L1432.83 337.646ZM1430.44 335.973C1430.44 335.971 1430.44 335.969 1430.44 335.967C1430.44 335.966 1430.44 335.965 1430.44 335.965L1433.44 336.177C1433.44 336.179 1433.44 336.181 1433.44 336.182C1433.44 336.184 1433.44 336.184 1433.44 336.185L1430.44 335.973ZM1418.83 384.917C1423 374.255 1428.56 357.434 1430.45 335.939L1433.43 336.202C1431.51 358.074 1425.85 375.185 1421.62 386.009L1418.83 384.917ZM1421.26 384.379C1421.53 384.636 1421.79 384.889 1422.05 385.139L1419.96 387.291C1419.71 387.046 1419.45 386.798 1419.19 386.547L1421.26 384.379ZM1419.21 386.666C1419.34 386.339 1419.48 386.006 1419.61 385.666L1422.4 386.763C1422.27 387.108 1422.13 387.446 1422 387.778L1419.21 386.666ZM1420.87 385.388C1421.14 385.645 1421.4 385.899 1421.65 386.149L1419.56 388.295C1419.31 388.05 1419.05 387.801 1418.79 387.55L1420.87 385.388ZM1418.44 385.916C1418.56 385.589 1418.7 385.256 1418.83 384.917L1421.62 386.009C1421.49 386.353 1421.36 386.691 1421.22 387.022L1418.44 385.916ZM1378.39 357.05C1398.91 364.955 1412.77 376.254 1421.26 384.379L1419.19 386.547C1410.88 378.598 1397.34 367.568 1377.31 359.849L1378.39 357.05ZM1378.38 357.046L1378.39 357.05L1377.32 359.849L1377.3 359.845L1378.38 357.046ZM1377.67 356.779C1377.93 356.876 1378.16 356.963 1378.37 357.04L1377.32 359.851C1377.11 359.772 1376.87 359.683 1376.62 359.587L1377.67 356.779ZM1304.98 351.376C1337.72 341.724 1369.53 353.717 1377.67 356.779L1376.62 359.587C1368.49 356.528 1337.53 344.909 1305.83 354.254L1304.98 351.376ZM1270.33 372.357C1279.42 363.413 1289.81 355.85 1304.98 351.376L1305.83 354.254C1291.25 358.552 1281.28 365.796 1272.43 374.496L1270.33 372.357ZM1257.3 386.495C1261.59 381.605 1265.81 376.803 1270.33 372.357L1272.43 374.496C1268 378.852 1263.86 383.569 1259.56 388.474L1257.3 386.495ZM1257.23 386.586L1257.3 386.495L1259.56 388.474L1259.48 388.564L1257.23 386.586ZM1243.64 401.405C1248.57 396.448 1252.94 391.466 1257.22 386.586L1259.48 388.564C1255.21 393.436 1250.78 398.487 1245.77 403.52L1243.64 401.405ZM1243.64 401.405C1243.65 401.401 1243.65 401.399 1243.65 401.397C1243.65 401.396 1243.65 401.395 1243.65 401.395C1243.65 401.394 1243.65 401.394 1243.65 401.394C1243.65 401.394 1243.65 401.395 1243.65 401.396C1243.65 401.397 1243.65 401.399 1243.65 401.402L1245.77 403.518C1245.77 403.522 1245.77 403.524 1245.76 403.526C1245.76 403.527 1245.76 403.528 1245.76 403.528C1245.76 403.529 1245.76 403.529 1245.76 403.529C1245.76 403.529 1245.76 403.528 1245.76 403.527C1245.76 403.526 1245.77 403.524 1245.77 403.521L1243.64 401.405ZM1245.77 401.404L1246.48 402.114L1244.35 404.226L1243.64 403.517L1245.77 401.404ZM1244.35 404.233L1243.65 403.529L1245.76 401.402L1246.47 402.106L1244.35 404.233ZM1243.64 401.408C1243.64 401.407 1243.64 401.405 1243.64 401.405C1243.64 401.404 1243.64 401.405 1243.64 401.406L1245.77 403.52C1245.77 403.521 1245.77 403.523 1245.77 403.523C1245.77 403.524 1245.77 403.523 1245.77 403.522L1243.64 401.408ZM1092.38 459.796C1128.98 455.987 1195.63 449.01 1243.65 401.397L1245.76 403.528C1196.9 451.975 1129.2 458.98 1092.69 462.78L1092.38 459.796ZM1090.83 459.957C1091.34 459.904 1091.85 459.851 1092.38 459.796L1092.69 462.78C1092.16 462.834 1091.65 462.888 1091.14 462.941L1090.83 459.957ZM1089.59 462.6L1089.49 461.606L1092.47 461.294L1092.57 462.289L1089.59 462.6ZM1090.83 459.958C1090.82 459.958 1090.82 459.958 1090.83 459.958C1090.83 459.958 1090.83 459.957 1090.83 459.957L1091.14 462.942C1091.14 462.941 1091.14 462.941 1091.14 462.942C1091.14 462.942 1091.13 462.942 1091.13 462.942L1090.83 459.958ZM1090.85 459.955C1090.85 459.955 1090.85 459.955 1090.85 459.956C1090.85 459.956 1090.84 459.956 1090.85 459.956C1090.85 459.956 1090.85 459.955 1090.85 459.955C1090.85 459.955 1090.86 459.955 1090.86 459.954L1091.12 462.943C1091.12 462.943 1091.13 462.943 1091.13 462.942C1091.13 462.942 1091.13 462.942 1091.13 462.942C1091.13 462.942 1091.13 462.943 1091.12 462.943C1091.12 462.943 1091.12 462.943 1091.11 462.944L1090.85 459.955ZM1092.48 461.312L1092.58 462.308L1089.59 462.581L1089.5 461.585L1092.48 461.312ZM1380.83 274.375C1380.8 274.5 1380.77 274.622 1380.75 274.742L1377.82 274.113C1377.84 273.999 1377.86 273.883 1377.89 273.764L1380.83 274.375ZM1378.97 275.894L1377.99 275.684L1378.62 272.751L1379.6 272.961L1378.97 275.894ZM1376.82 274.412L1376.69 273.421L1379.66 273.031L1379.79 274.023L1376.82 274.412ZM1377.98 271.739C1378.08 271.726 1378.19 271.711 1378.31 271.694L1378.72 274.665C1378.6 274.683 1378.48 274.699 1378.37 274.713L1377.98 271.739ZM1376.84 273.903C1376.91 273.583 1376.98 273.246 1377.04 272.892L1379.99 273.467C1379.92 273.839 1379.84 274.195 1379.77 274.532L1376.84 273.903ZM1379.44 275.573C1379.08 275.625 1378.76 275.671 1378.5 275.705L1378.11 272.73C1378.35 272.699 1378.65 272.656 1379.02 272.603L1379.44 275.573ZM1379.57 275.555C1379.53 275.561 1379.48 275.567 1379.44 275.573L1379.02 272.603C1379.06 272.597 1379.1 272.591 1379.14 272.585L1379.57 275.555ZM1307.27 215.108C1307.18 215.594 1307.09 216.02 1307.02 216.378L1304.08 215.776C1304.15 215.427 1304.23 215.018 1304.32 214.553L1307.27 215.108ZM1305.25 217.547L1304.27 217.346L1304.87 214.407L1305.85 214.608L1305.25 217.547ZM1303.44 216.866L1302.78 216.115L1305.04 214.136L1305.7 214.887L1303.44 216.866ZM1302.92 213.998C1303.25 213.71 1303.58 213.426 1303.91 213.146L1305.84 215.442C1305.52 215.708 1305.21 215.978 1304.9 216.252L1302.92 213.998ZM1303.1 215.576C1303.19 215.146 1303.29 214.628 1303.4 214.025L1306.35 214.563C1306.24 215.195 1306.13 215.737 1306.04 216.177L1303.1 215.576ZM1306.75 215.984C1306.35 216.318 1305.95 216.658 1305.56 217.004L1303.58 214.749C1303.99 214.385 1304.41 214.027 1304.83 213.676L1306.75 215.984ZM1213.74 166.138C1213.76 166.175 1213.77 166.212 1213.78 166.249L1210.93 167.198C1210.92 167.161 1210.91 167.124 1210.9 167.086L1213.74 166.138ZM1213.78 166.249L1213.87 166.525L1211.03 167.474L1210.93 167.198L1213.78 166.249ZM1212.92 168.422L1211.98 168.739L1211.03 165.893L1211.97 165.576L1212.92 168.422ZM1210.4 168.338L1209.72 167.606L1211.92 165.562L1212.6 166.294L1210.4 168.338ZM1209.8 165.486C1209.91 165.384 1210.03 165.271 1210.17 165.149L1212.14 167.417C1212.02 167.52 1211.92 167.608 1211.84 167.682L1209.8 165.486ZM1209.99 167.527C1209.91 167.284 1209.82 167.029 1209.73 166.76L1212.58 165.805C1212.67 166.078 1212.76 166.336 1212.84 166.578L1209.99 167.527ZM1210.08 167.79L1209.99 167.527L1212.84 166.578L1212.92 166.841L1210.08 167.79ZM1213.27 167.776C1212.93 168.049 1212.68 168.265 1212.52 168.414L1210.48 166.218C1210.7 166.01 1211 165.75 1211.37 165.448L1213.27 167.776ZM1114.15 147.474C1114.27 147.597 1114.38 147.716 1114.49 147.829L1112.29 149.873C1112.2 149.771 1112.09 149.663 1111.99 149.55L1114.15 147.474ZM1114.41 149.949L1113.68 150.63L1111.63 148.434L1112.37 147.753L1114.41 149.949ZM1112.13 150.937L1111.19 150.586L1112.25 147.777L1113.18 148.127L1112.13 150.937ZM1110.32 148.656C1110.36 148.535 1110.42 148.375 1110.5 148.18L1113.28 149.298C1113.21 149.473 1113.16 149.61 1113.12 149.707L1110.32 148.656ZM1111.56 150.554C1111.35 150.328 1111.11 150.075 1110.83 149.797L1112.96 147.681C1113.25 147.981 1113.52 148.259 1113.75 148.51L1111.56 150.554ZM1114.45 149.099C1114.26 149.553 1114.13 149.88 1114.06 150.058L1111.25 149.006C1111.34 148.784 1111.48 148.416 1111.69 147.925L1114.45 149.099ZM1209.62 169.582L1209.05 167.856L1211.89 166.907L1212.47 168.632L1209.62 169.582Z" fill="#ECE1CF" mask="url(#path-4-inside-1_438_7009)"/>
<path fill-rule="evenodd" clip-rule="evenodd" d="M869.425 652.462L869.427 652.453C872.026 641.774 874.949 631.191 877.877 620.591C879.096 616.178 880.315 611.763 881.513 607.336C882.045 605.369 881.748 603.428 880.576 601.732C879.167 599.692 876.903 598.384 874.602 598.063C872.287 597.741 869.84 598.414 868.225 600.466C865.844 603.493 863.428 606.413 860.699 608.887C853.016 615.66 845.421 622.531 837.834 629.393C816.367 648.812 794.969 668.167 771.853 685.083L771.847 685.087C754.212 698.201 732.123 708.525 709.384 697.272C707.083 696.073 703.991 693.668 701.555 691.362C700.338 690.21 699.321 689.117 698.665 688.247C698.333 687.807 698.123 687.463 698.018 687.223C698.001 687.184 697.988 687.151 697.978 687.123C699.359 684.145 701.27 680.936 703.524 678.17C705.818 675.353 708.414 673.061 711.105 671.892L711.113 671.888C717.571 669.011 724.426 666.873 731.33 664.72C733.197 664.138 735.068 663.554 736.935 662.955C745.667 660.151 754.289 657.007 761.833 651.998L761.836 651.996C790.469 632.869 817.309 611.381 844.069 589.957C847.818 586.955 851.566 583.954 855.318 580.961L855.332 580.95L855.346 580.938C858.632 578.114 860.213 574.069 859.486 570.524C859.12 568.739 858.17 567.11 856.6 565.89C855.035 564.675 852.909 563.906 850.24 563.731C845.086 563.392 839.89 564.078 834.732 565.049C832.525 565.464 830.355 565.924 828.196 566.382C825.238 567.009 822.301 567.632 819.315 568.129C812.039 569.325 804.749 570.605 797.449 571.888C778.257 575.26 758.989 578.645 739.692 580.536L739.682 580.537C739.298 580.579 738.906 580.581 738.505 580.547C735.883 580.321 733.673 578.766 731.983 576.367C730.29 573.962 729.176 570.778 728.773 567.512C728.371 564.242 728.691 560.982 729.77 558.425C730.839 555.892 732.617 554.11 735.155 553.55C760.019 548.83 785.015 544.873 810.03 540.913C822.539 538.933 835.052 536.952 847.555 534.875C849.542 534.651 850.971 533.618 851.837 532.129C852.683 530.675 852.961 528.846 852.839 527.008C852.597 523.359 850.742 519.229 847.701 517.055C840.386 511.828 833.202 506.672 826.099 501.573C813.162 492.288 800.493 483.195 787.796 474.218L787.795 474.217C775.353 465.441 769.623 456.247 770.553 445.246C771.018 439.741 774.716 436.476 779.499 435.447C784.327 434.407 790.189 435.687 794.626 439.332C798.154 442.23 801.706 445.144 805.3 448.093C811.553 453.223 817.936 458.461 824.554 463.907C827.897 466.658 831.918 466.982 835.357 465.564C838.775 464.154 841.6 461.039 842.697 456.945L841.731 456.687C839.693 464.293 831.269 468.138 825.189 463.134C818.568 457.686 812.181 452.445 805.925 447.312C802.333 444.365 798.785 441.454 795.261 438.559C785.923 430.889 770.574 433.121 769.556 445.162C768.584 456.664 774.632 466.156 787.219 475.035C799.913 484.01 812.576 493.099 825.512 502.383C832.616 507.481 839.801 512.639 847.119 517.869C852.607 521.791 854.124 533.157 847.418 533.884C834.922 535.96 822.407 537.941 809.893 539.922C784.865 543.884 759.836 547.846 734.954 552.57C723.196 555.14 726.428 580.512 738.419 581.543C738.88 581.583 739.337 581.581 739.79 581.531C759.127 579.636 778.452 576.241 797.658 572.867C804.951 571.586 812.226 570.308 819.478 569.116C822.467 568.618 825.46 567.984 828.449 567.351C835.756 565.802 843.036 564.26 850.174 564.729C860.231 565.389 860.83 574.907 854.694 580.179C850.941 583.173 847.192 586.175 843.443 589.177C816.679 610.603 789.875 632.063 761.28 651.165C752.286 657.137 741.694 660.44 731.063 663.755C724.151 665.911 717.223 668.072 710.706 670.975C704.915 673.491 699.841 680.675 697.01 686.833C696.236 688.253 704.095 695.648 708.932 698.165C732.215 709.692 754.748 699.049 772.444 685.89C795.605 668.941 817.059 649.534 838.538 630.105C846.119 623.248 853.703 616.388 861.366 609.632C864.163 607.098 866.624 604.119 869.011 601.085C871.716 597.647 877.267 598.702 879.754 602.3C880.751 603.745 881.006 605.381 880.547 607.075C879.353 611.49 878.135 615.9 876.917 620.309C873.988 630.916 871.058 641.522 868.455 652.217C861.601 679.266 873.737 704.487 902.167 724.717C918.066 735.894 951.824 734.768 968.848 722.649C978.634 715.507 989.969 679.08 984.495 668.663C982.37 664.839 977.105 660.987 973.229 660.762C970.087 660.734 964.889 665.444 963.036 669.422C955.419 686.096 937.864 697.26 921.767 694.167C904.936 690.878 889.275 670 889.812 651.836C891.011 617.983 921.245 594.757 954.071 601.518C998.118 610.473 1028.12 657.162 1031.31 696.667C1033.7 727.414 1011.31 743.385 989.029 758.977C977.351 767.255 965.067 766.667 952.729 766.078C946.585 765.784 940.428 765.489 934.325 766.289C925.184 767.719 919.395 780.478 925.951 787.007C926.273 787.327 926.608 787.629 926.957 787.911C929.15 789.73 931.325 791.615 933.506 793.506C948.62 806.606 964.011 819.945 987.519 813.089C990.496 812.26 996.231 815.831 997.722 819.078C999.214 822.326 997.688 828.02 995.671 831.141C992.24 836.551 988.446 841.779 984.656 847.001C980.164 853.191 975.678 859.372 971.81 865.838C965.454 876.341 974.074 920.555 984.075 927.303C988.442 930.101 996.787 932.744 1000.54 930.495C1029.94 914.776 1050.81 892.703 1047.66 851.581C1047.56 850.433 1047.58 849.28 1047.69 848.126C1048.51 839.327 1060.24 834.29 1067.46 839.392C1091.2 855.109 1116.86 856.289 1143.88 850.918C1146.76 850.468 1150.75 845.843 1150.63 843.368C1150.44 839.657 1147.42 834.779 1144.32 833.134C1121.07 819.989 1106.94 800.743 1094.6 776.281C1074.54 735.103 1088.95 709.262 1121.2 682.915C1150.43 659.015 1182.99 657.974 1216.82 672.735C1237.57 681.957 1239.91 699.671 1241.68 718.046C1243.48 734.804 1231.84 745.925 1219.08 753.896C1203.4 763.935 1186.73 761.503 1173.24 750.158C1167.81 745.448 1165.48 735.059 1164.47 727.059C1164.09 724.236 1164.48 720.97 1164.87 717.759C1165.82 709.919 1166.73 702.402 1156.11 702.442C1148.63 702.471 1137.31 715.307 1134.77 724.796C1127.32 749.653 1135.93 771.894 1153.23 782.226C1180.01 798.351 1208.59 797.465 1229 782.998C1252.32 766.464 1263.66 744.687 1264.91 716.541C1265.05 714.545 1265.93 712.745 1266.8 710.945L1265.9 710.508L1265.87 710.582C1265.01 712.331 1264.07 714.28 1263.91 716.47L1263.91 716.484L1263.91 716.497C1262.68 744.345 1251.48 765.833 1228.42 782.182C1208.38 796.387 1180.24 797.32 1153.75 781.37L1153.75 781.368C1136.9 771.306 1128.39 749.573 1135.73 725.083L1135.73 725.069L1135.74 725.055C1136.95 720.515 1140.31 715.073 1144.32 710.752C1146.32 708.599 1148.45 706.757 1150.51 705.459C1152.59 704.151 1154.51 703.448 1156.12 703.442C1159.71 703.429 1161.69 704.316 1162.8 705.565C1163.94 706.839 1164.38 708.705 1164.41 711.097C1164.43 713.097 1164.16 715.305 1163.88 717.62C1163.83 718.073 1163.77 718.53 1163.72 718.99C1163.39 721.751 1163.13 724.622 1163.48 727.19C1163.99 731.223 1164.83 735.888 1166.25 740.157C1167.66 744.406 1169.67 748.383 1172.59 750.913L1172.59 750.918L1172.6 750.923C1186.38 762.512 1203.52 765.042 1219.61 754.742C1232.43 746.736 1244.54 735.315 1242.67 717.944C1241.79 708.776 1240.75 699.603 1237.28 691.562C1233.79 683.462 1227.84 676.538 1217.22 671.821L1217.22 671.818C1200.19 664.388 1183.42 660.91 1167.2 662.331C1150.96 663.752 1135.32 670.074 1120.56 682.141C1104.39 695.352 1092.55 708.545 1087.34 723.711C1082.1 738.927 1083.59 755.961 1093.71 776.719L1093.71 776.731C1106.1 801.282 1120.34 820.723 1143.82 834.004L1143.84 834.011L1143.85 834.017C1145.19 834.727 1146.6 836.2 1147.71 838.002C1148.82 839.798 1149.55 841.783 1149.63 843.419C1149.65 843.784 1149.51 844.352 1149.14 845.075C1148.78 845.775 1148.26 846.531 1147.63 847.241C1147 847.95 1146.3 848.591 1145.6 849.073C1144.89 849.564 1144.24 849.85 1143.73 849.93L1143.71 849.933L1143.69 849.937C1116.82 855.278 1091.46 854.079 1068.02 838.566C1064.07 835.779 1058.96 835.803 1054.78 837.63C1050.59 839.459 1047.15 843.186 1046.69 848.032C1046.58 849.236 1046.56 850.447 1046.67 851.661C1048.23 872.023 1043.84 887.591 1035.48 900.006C1027.11 912.441 1014.69 921.794 1000.07 929.613L1000.05 929.624L1000.02 929.637C999.292 930.076 998.262 930.315 996.979 930.339C995.708 930.361 994.262 930.17 992.766 929.818C989.773 929.114 986.706 927.799 984.624 926.468C983.542 925.734 982.405 924.44 981.262 922.623C980.123 920.814 979.016 918.55 977.973 915.956C975.887 910.77 974.086 904.345 972.79 897.785C971.493 891.225 970.708 884.565 970.638 878.912C970.604 876.085 970.748 873.53 971.09 871.375C971.433 869.206 971.967 867.511 972.666 866.356L972.668 866.352C976.208 860.433 980.275 854.747 984.413 849.04C984.764 848.555 985.116 848.07 985.468 847.585C989.253 842.369 993.065 837.118 996.513 831.681C997.596 830.004 998.524 827.681 998.993 825.354C999.456 823.054 999.507 820.568 998.631 818.661C997.768 816.78 995.772 814.945 993.692 813.697C992.636 813.064 991.509 812.552 990.424 812.254C989.354 811.96 988.237 811.851 987.25 812.126L987.239 812.129C974.098 815.962 963.584 813.348 954.167 807.982C947.078 803.944 940.669 798.389 934.223 792.802C932.028 790.9 929.828 788.993 927.596 787.142L927.585 787.133C927.264 786.874 926.956 786.596 926.657 786.298C923.757 783.41 923.506 779.065 925.173 775.125C926.839 771.186 930.319 767.933 934.467 767.279C938.969 766.69 943.519 766.705 948.12 766.875C949.621 766.93 951.133 767.002 952.65 767.075C955.761 767.224 958.895 767.373 961.999 767.381C971.287 767.404 980.615 766.165 989.603 759.795C989.603 759.796 989.603 759.796 989.602 759.796M1387.31 862.033C1376.15 868.402 1363.08 870.188 1351.95 860.291C1326.54 837.614 1307.02 812.042 1299.2 776.586C1295.52 759.838 1288.54 744.154 1281.39 728.081C1279.14 723.02 1276.87 717.921 1274.68 712.737C1273.34 709.566 1268.67 708.055 1266.8 710.945L1265.96 710.403C1267.2 708.49 1269.34 708.113 1271.19 708.601C1273.03 709.084 1274.8 710.447 1275.6 712.348C1277.77 717.49 1280.03 722.562 1282.27 727.608C1289.44 743.702 1296.47 759.514 1300.18 776.37C1307.94 811.552 1327.3 836.952 1352.62 859.544C1363.3 869.049 1375.87 867.413 1386.81 861.165L1386.82 861.16L1386.83 861.156C1389.69 859.593 1391.36 857.809 1392.23 856.001C1393.1 854.197 1393.22 852.275 1392.81 850.348C1391.98 846.445 1389 842.63 1386.03 840.265L1386.02 840.257L1386.01 840.248C1351.74 811.408 1335.24 772.602 1321.56 731.07C1321.26 730.185 1320.95 729.3 1320.65 728.414C1317.75 720.051 1320.58 712.581 1326.09 708.435C1331.59 704.294 1339.66 703.539 1347.08 708.331C1349.76 710.062 1352.4 711.835 1354.99 713.666C1362.34 718.705 1369.24 724.333 1376.03 730.019C1377.2 730.999 1378.37 731.981 1379.54 732.962C1385.15 737.68 1390.73 742.376 1396.54 746.783C1401.72 750.715 1406.94 751.805 1411.96 750.983C1417 750.157 1421.93 747.385 1426.46 743.428C1426.79 743.065 1427.14 742.278 1427.38 741.08C1427.63 739.9 1427.74 738.479 1427.72 737.055C1427.7 735.629 1427.54 734.24 1427.27 733.12C1427.13 732.56 1426.97 732.089 1426.79 731.723C1426.61 731.347 1426.44 731.138 1426.32 731.037L1426.31 731.031L1426.3 731.024C1408.17 715.788 1389.64 701.176 1371.06 686.518C1365.62 682.229 1360.17 677.936 1354.73 673.622C1351.81 671.431 1348.75 669.401 1345.66 667.351L1345.65 667.343C1342.57 665.302 1339.46 663.241 1336.49 661.012C1333.29 658.717 1332.19 654.713 1332.7 651.067C1333.22 647.417 1335.38 643.851 1339.06 642.47C1339.59 642.271 1340.13 642.099 1340.67 641.959L1340.71 641.95L1340.74 641.944C1349.05 640.414 1357.5 639.313 1365.92 638.216C1368.02 637.942 1370.12 637.669 1372.22 637.389C1382.72 635.985 1393.13 634.42 1403.21 631.862L1403.21 631.861C1414.8 628.977 1425.75 621.49 1435.64 613.969C1437.41 612.623 1439.2 609.859 1440.38 606.856C1440.97 605.373 1441.39 603.876 1441.59 602.529C1441.79 601.184 1441.76 600.068 1441.51 599.275C1441.17 598.457 1440.49 597.586 1439.5 596.729C1438.51 595.867 1437.26 595.061 1435.89 594.377C1433.13 592.999 1430 592.18 1427.64 592.285C1421.28 592.793 1414.89 594.1 1408.42 595.515C1407.61 595.692 1406.8 595.87 1405.99 596.049C1400.32 597.298 1394.58 598.563 1388.82 599.35L1388.81 599.351C1386.27 599.684 1383.65 599.649 1380.81 599.453C1379.11 599.336 1377.77 598.826 1376.76 597.935C1375.76 597.049 1375.19 595.869 1374.87 594.585C1374.25 592.082 1374.56 588.886 1374.87 585.888C1374.99 584.146 1375.02 582.393 1374.98 580.632C1374.88 575.979 1372.12 570.904 1368.38 567.715C1364.63 564.516 1360.28 563.481 1356.82 566.054L1356.22 565.252L1356.8 566.067C1331.47 584.068 1305.17 599.689 1273.46 606.314C1266.93 607.68 1261.61 600.971 1264.46 594.925L1264.53 594.77C1264.55 594.722 1264.57 594.68 1264.59 594.623C1264.6 594.605 1264.61 594.585 1264.62 594.563C1264.65 594.484 1264.7 594.371 1264.77 594.255C1264.92 593.989 1265.14 593.727 1265.51 593.537C1266.11 593.223 1266.65 592.591 1267.28 591.861C1267.32 591.821 1267.35 591.78 1267.39 591.738C1272.2 586.184 1275.35 579.714 1275.93 573.752C1276.49 567.847 1274.54 562.443 1269.08 558.753C1267.66 557.864 1265.55 557.528 1262.89 557.729C1260.25 557.929 1257.19 558.651 1254.02 559.73C1247.67 561.888 1241 565.419 1236.43 568.787L1236.42 568.789C1231.68 572.251 1227.96 577.11 1224.43 582.444C1223.32 584.107 1222.23 585.824 1221.14 587.554C1218.75 591.319 1216.32 595.151 1213.62 598.638L1213.61 598.643C1204.5 610.262 1192.91 616.951 1180.61 622.001C1174.58 624.475 1168.37 626.562 1162.19 628.638L1161.82 628.761C1155.51 630.881 1149.24 632.996 1143.19 635.518L1143.18 635.522C1141.28 636.286 1139.37 636.999 1137.45 637.676C1131.03 639.94 1124.14 638.554 1119.53 635.02C1114.88 631.454 1112.51 625.633 1115.4 619.254C1120.71 607.562 1131.49 599.981 1146.7 596.09C1147.46 595.886 1148.2 595.624 1148.95 595.312C1153.77 593.293 1157.11 588.461 1158.38 582.981C1159.64 577.5 1158.77 571.593 1155.44 567.525C1154.31 566.145 1153.33 565.478 1152.48 565.381C1146.36 564.984 1141.78 563.461 1138.3 561.095C1134.81 558.725 1132.5 555.559 1130.83 552.008C1129.17 548.473 1128.13 544.524 1127.2 540.571C1127.02 539.793 1126.84 539.016 1126.66 538.241C1125.93 535.044 1125.2 531.884 1124.21 528.876L1124.21 528.868L1124.21 528.86C1123.43 526.367 1122.47 523.942 1121.38 521.555C1116.47 510.807 1101.74 508.079 1092.53 515.698C1088.82 518.76 1085.19 521.903 1081.68 525.189L1081.66 525.202L1081.65 525.215C1080.9 525.867 1080.3 526.772 1079.77 527.879C1079.24 528.99 1078.81 530.238 1078.36 531.553L1078.35 531.582C1077.91 532.866 1077.44 534.215 1076.86 535.44C1076.27 536.676 1075.52 537.852 1074.48 538.754L1074.47 538.76L1074.47 538.765C1072.35 540.533 1068.98 542.548 1065.85 543.895C1064.28 544.569 1062.73 545.096 1061.39 545.331C1060.72 545.449 1060.07 545.5 1059.48 545.443C1058.89 545.386 1058.29 545.215 1057.8 544.822L1057.8 544.82C1051.46 539.68 1046.13 538.515 1041.05 539.523C1037.77 540.174 1035.5 541.868 1034.02 544.188C1032.54 546.535 1031.83 549.582 1031.85 552.951C1031.88 559.705 1034.81 567.453 1039.5 572.63C1048.27 582.327 1053.47 593.46 1053.71 606.748C1053.84 614.247 1049.23 619.113 1043.28 620.765C1037.39 622.404 1030.17 620.902 1024.85 615.833C996.443 588.737 971.842 560.634 967.802 517.272L967.802 517.27C967.019 508.72 963.258 499.722 958.521 492.848C955.59 488.905 950.072 488.162 944.787 489.885C939.504 491.608 934.946 495.653 934.024 500.612C933.87 501.442 933.799 502.249 933.824 503.033L932.824 503.065L933.824 503.072C933.771 510.695 930.788 516.875 926.161 519.84C921.445 522.861 915.328 522.357 909.542 517.209C894.847 504.133 883.292 488.438 875.254 469.564C874.237 467.189 873.381 464.564 872.537 461.977C872.065 460.529 871.597 459.094 871.107 457.722C869.711 453.81 868.102 450.279 865.642 447.704L865.636 447.698C865.033 447.056 864.348 446.47 863.592 445.93C859.8 443.223 855.133 443.512 851.068 445.757C846.993 448.009 843.675 452.162 842.711 456.887L841.731 456.687C843.788 446.611 855.804 439.141 864.173 445.116C864.975 445.689 865.711 446.317 866.365 447.014C869.928 450.742 871.729 456.267 873.511 461.736C874.343 464.289 875.171 466.83 876.173 469.17C884.152 487.905 895.618 503.481 910.207 516.461C921.258 526.295 932.721 517.857 932.824 503.065C932.797 502.199 932.876 501.319 933.041 500.429C935.062 489.552 952.752 483.375 959.335 492.267C964.154 499.254 967.996 508.42 968.798 517.179C972.802 560.157 997.163 588.041 1025.54 615.109C1035.66 624.762 1052.96 620.75 1052.71 606.765C1052.48 593.759 1047.39 582.851 1038.75 573.301C1029.06 562.577 1026.67 541.357 1040.85 538.542C1046.29 537.464 1051.91 538.757 1058.43 544.043C1060.69 545.871 1069.77 541.386 1073.82 537.998C1075.62 536.444 1076.51 533.836 1077.41 531.228C1078.31 528.62 1079.2 526.012 1081 524.459C1084.52 521.155 1088.18 517.998 1091.89 514.928C1101.55 506.934 1117.08 509.729 1122.29 521.139C1123.39 523.556 1124.37 526.022 1125.16 528.563C1126.17 531.62 1126.91 534.836 1127.64 538.037C1130.55 550.719 1133.41 563.15 1152.56 564.384C1153.83 564.517 1155.04 565.454 1156.22 566.892C1163.35 575.623 1159.73 591.882 1149.33 596.235C1148.55 596.562 1147.76 596.84 1146.96 597.057C1131.93 600.898 1121.46 608.333 1116.31 619.667C1110.97 631.438 1124.92 641.032 1137.11 636.733C1139.02 636.06 1140.92 635.352 1142.8 634.595C1149.01 632.009 1155.43 629.852 1161.86 627.694C1180.66 621.38 1199.46 615.064 1212.82 598.026C1215.5 594.576 1217.88 590.812 1220.26 587.068C1224.85 579.842 1229.39 572.686 1235.83 567.982C1245.15 561.121 1262.89 553.669 1269.63 557.915C1281.25 565.761 1277.95 581.065 1268.15 592.393C1268.1 592.448 1268.05 592.504 1268 592.561C1267.41 593.242 1266.75 594.016 1265.97 594.422C1265.71 594.561 1265.62 594.76 1265.52 595.007C1265.49 595.068 1265.46 595.132 1265.43 595.199L1265.36 595.351C1262.87 600.647 1267.53 606.533 1273.26 605.336C1304.76 598.753 1330.93 583.226 1356.22 565.252C1364.23 559.294 1375.77 570.63 1375.98 580.611C1376.02 582.402 1375.99 584.191 1375.86 585.974C1375.24 592.079 1374.76 598.034 1380.88 598.456C1383.69 598.65 1386.23 598.68 1388.68 598.359C1394.4 597.578 1400.1 596.323 1405.77 595.072C1413.07 593.465 1420.34 591.864 1427.58 591.287C1432.76 591.048 1440.8 594.829 1442.45 598.935C1443.74 602.941 1440.2 611.756 1436.24 614.765C1426.35 622.287 1415.26 629.893 1403.45 632.831C1391.29 635.919 1378.66 637.564 1366.04 639.209C1357.62 640.306 1349.2 641.403 1340.92 642.927C1340.41 643.058 1339.91 643.219 1339.41 643.406C1332.92 645.845 1331.44 656.167 1337.08 660.205C1340.03 662.42 1343.12 664.469 1346.21 666.518C1349.3 668.567 1352.39 670.616 1355.34 672.83C1360.78 677.143 1366.23 681.436 1371.67 685.727C1390.26 700.386 1408.8 715.011 1426.94 730.259C1429.21 732.086 1429.34 741.885 1427.16 744.149C1417.9 752.247 1406.73 755.762 1395.93 747.58C1390.11 743.156 1384.5 738.441 1378.89 733.723C1370.94 727.045 1362.99 720.36 1354.42 714.486C1351.84 712.664 1349.21 710.897 1346.53 709.171C1332.39 700.032 1316.08 712.171 1321.59 728.086C1321.9 728.975 1322.2 729.864 1322.5 730.753C1336.18 772.255 1352.61 810.832 1386.66 839.483C1392.82 844.389 1399.3 855.482 1387.31 862.033ZM989.603 759.795C1011.8 744.265 1034.75 727.983 1032.31 696.589L1032.31 696.586C1030.69 676.631 1022.32 654.903 1008.81 637.033C995.296 619.161 976.59 605.077 954.273 600.539C920.85 593.655 890.034 617.319 888.813 651.801L888.813 651.807C888.536 661.169 892.425 671.147 898.478 679.181C904.527 687.211 912.845 693.442 921.576 695.148L921.579 695.149C938.242 698.35 956.189 686.816 963.945 669.839C964.799 668.009 966.46 665.948 968.305 664.345C969.223 663.547 970.161 662.886 971.034 662.43C971.909 661.974 972.645 661.763 973.197 661.762C974.867 661.867 976.959 662.77 978.939 664.178C980.912 665.581 982.641 667.391 983.615 669.139C984.836 671.472 985.182 675.445 984.74 680.4C984.301 685.308 983.108 690.994 981.436 696.598C979.764 702.201 977.622 707.691 975.302 712.209C972.963 716.762 970.509 720.198 968.262 721.839C959.963 727.744 947.485 731.024 935.054 731.42C922.61 731.815 910.445 729.313 902.744 723.901C874.531 703.824 862.704 678.984 869.425 652.462" fill="#C5A4DD"/>
<path d="M879.753 602.302C880.751 603.746 881.005 605.382 880.547 607.077C876.48 622.114 872.14 637.078 868.455 652.218C861.601 679.268 873.736 704.489 902.166 724.719C918.065 735.895 951.824 734.77 968.848 722.651C978.634 715.509 989.969 679.082 984.494 668.664C982.37 664.84 977.104 660.988 973.228 660.764C970.087 660.736 964.889 665.445 963.036 669.424C955.419 686.098 937.864 697.261 921.767 694.169C904.936 690.879 889.275 670.002 889.812 651.838C891.011 617.984 921.245 594.758 954.071 601.52C998.118 610.475 1028.12 657.163 1031.31 696.669C1033.7 727.415 1011.31 743.387 989.029 758.978C971.536 771.379 952.682 763.886 934.325 766.29V766.29C925.184 767.72 919.395 780.48 925.951 787.008C926.273 787.329 926.607 787.631 926.957 787.913C944.347 802.337 960.619 820.936 987.518 813.091C990.496 812.261 996.231 815.832 997.722 819.08C999.214 822.327 997.688 828.021 995.671 831.142C988.173 842.966 978.941 853.918 971.81 865.84C965.453 876.342 974.074 920.557 984.074 927.305C988.442 930.103 996.787 932.746 1000.54 930.496C1029.94 914.778 1050.81 892.705 1047.66 851.583C1047.56 850.435 1047.58 849.282 1047.69 848.127C1048.51 839.329 1060.24 834.292 1067.46 839.393V839.393C1091.19 855.111 1116.86 856.291 1143.88 850.92C1146.76 850.47 1150.75 845.844 1150.63 843.37C1150.44 839.659 1147.42 834.78 1144.32 833.135C1121.07 819.991 1106.94 800.745 1094.6 776.282C1074.54 735.104 1088.94 709.264 1121.2 682.917C1150.43 659.016 1182.99 657.975 1216.82 672.736C1237.57 681.958 1239.91 699.672 1241.68 718.047C1243.48 734.805 1231.84 745.926 1219.08 753.898C1203.4 763.936 1186.73 761.504 1173.24 750.159C1167.81 745.45 1165.48 735.06 1164.47 727.061C1163.14 717.346 1171.08 702.387 1156.11 702.444C1148.63 702.472 1137.31 715.308 1134.77 724.798C1127.32 749.654 1135.93 771.895 1153.23 782.228C1180.01 798.353 1208.59 797.467 1228.99 783C1252.32 766.466 1263.66 744.688 1264.91 716.543C1265.05 714.546 1265.93 712.747 1266.8 710.947V710.947C1268.67 708.056 1273.34 709.568 1274.68 712.739C1283.82 734.384 1294.36 754.567 1299.2 776.587C1307.02 812.043 1326.54 837.616 1351.95 860.292C1363.08 870.19 1376.15 868.404 1387.31 862.035C1399.3 855.483 1392.82 844.391 1386.66 839.485C1352.61 810.833 1336.18 772.256 1322.5 730.755C1322.2 729.865 1321.9 728.977 1321.59 728.088C1316.08 712.173 1332.39 700.034 1346.53 709.172C1349.21 710.898 1351.84 712.665 1354.42 714.488C1369.05 724.512 1381.87 736.897 1395.93 747.582C1406.73 755.764 1417.9 752.249 1427.16 744.15C1429.34 741.887 1429.21 732.088 1426.94 730.26C1403.49 710.55 1379.37 691.881 1355.34 672.831C1349.45 668.403 1342.98 664.635 1337.08 660.207V660.207C1331.44 656.169 1332.92 645.847 1339.41 643.407C1339.91 643.22 1340.41 643.059 1340.92 642.929C1361.62 639.118 1383.18 637.979 1403.45 632.833C1415.26 629.894 1426.35 622.288 1436.24 614.767C1440.2 611.758 1443.74 602.943 1442.45 598.936C1440.8 594.831 1432.76 591.049 1427.58 591.289C1414.7 592.315 1401.76 596.575 1388.68 598.361C1386.23 598.682 1383.69 598.651 1380.88 598.457C1374.76 598.035 1375.24 592.081 1375.86 585.975V585.975C1375.99 584.192 1376.02 582.404 1375.98 580.613C1375.77 570.631 1364.23 559.296 1356.22 565.253V565.253C1330.93 583.228 1304.76 598.754 1273.26 605.337C1267.53 606.535 1262.87 600.649 1265.36 595.353C1265.38 595.302 1265.41 595.251 1265.43 595.2C1265.59 594.863 1265.64 594.597 1265.97 594.424V594.424C1266.81 593.983 1267.53 593.112 1268.15 592.394C1277.95 581.066 1281.25 565.762 1269.63 557.916C1262.89 553.671 1245.15 561.122 1235.83 567.983C1226.05 575.125 1220.65 587.919 1212.82 598.028C1194.89 620.888 1167.17 624.445 1142.8 634.596C1140.92 635.354 1139.02 636.062 1137.11 636.735C1124.92 641.033 1110.97 631.44 1116.31 619.669C1121.46 608.334 1131.93 600.9 1146.96 597.059C1147.76 596.841 1148.55 596.564 1149.33 596.236C1159.73 591.884 1163.35 575.624 1156.22 566.894C1155.04 565.456 1153.83 564.519 1152.56 564.386C1128.57 562.84 1130.15 543.734 1125.16 528.565C1124.37 526.024 1123.39 523.558 1122.29 521.141C1117.08 509.731 1101.55 506.936 1091.89 514.929C1088.18 518 1084.52 521.157 1080.99 524.461C1077.41 527.568 1077.41 534.892 1073.82 537.999C1069.77 541.388 1060.69 545.873 1058.43 544.045C1051.91 538.758 1046.28 537.466 1040.85 538.544C1026.67 541.359 1029.06 562.579 1038.75 573.302C1047.39 582.852 1052.48 593.76 1052.71 606.767C1052.96 620.752 1035.66 624.764 1025.54 615.11C997.162 588.043 972.802 560.159 968.797 517.181C967.995 508.422 964.154 499.256 959.334 492.269V492.269C952.752 483.377 935.062 489.554 933.041 500.431C932.876 501.321 932.797 502.201 932.824 503.066V503.066C932.721 517.859 921.258 526.297 910.207 516.463C895.618 503.482 884.152 487.907 876.173 469.172C873.026 461.819 871.591 452.484 866.365 447.015C865.711 446.318 864.974 445.69 864.173 445.118C855.803 439.142 843.788 446.612 841.731 456.688V456.688V456.688C839.693 464.294 831.269 468.14 825.189 463.136C814.767 454.559 804.924 446.498 795.261 438.561C785.923 430.891 770.574 433.123 769.556 445.164C768.584 456.665 774.631 466.157 787.219 475.036C806.884 488.94 826.477 503.118 847.119 517.87C852.607 521.793 854.124 533.158 847.418 533.885V533.885C809.93 540.114 772.278 545.486 734.954 552.572V552.572C723.196 555.142 726.428 580.513 738.419 581.545C738.88 581.584 739.337 581.582 739.79 581.533C766.469 578.918 793.126 573.448 819.478 569.117C829.778 567.402 840.117 564.07 850.174 564.73C860.231 565.391 860.83 574.909 854.694 580.181C824.155 604.546 793.881 629.388 761.28 651.166C746.437 661.022 727.244 663.609 710.706 670.976C704.915 673.493 699.841 680.677 697.01 686.835C696.236 688.255 704.095 695.65 708.931 698.166C732.215 709.694 754.747 699.051 772.443 685.891C803.779 662.961 831.99 635.531 861.365 609.634C864.163 607.099 866.623 604.121 869.011 601.086C871.716 597.649 877.267 598.703 879.753 602.302V602.302Z" fill="#C5A4DD"/>
<path d="M297 496.639L442.568 206.725L794 86.6387L1145.43 206.725L1291 496.639L1145.43 786.552L794 906.639L442.568 786.552L297 496.639Z" fill="#ECE1CF"/>
<path fill-rule="evenodd" clip-rule="evenodd" d="M530.37 662.184C509.816 667.339 488.395 658.461 477.509 640.281C469.604 627.08 462.731 613.164 457 598.639C451.615 612.286 445.223 625.396 437.913 637.88C426.84 656.793 404.461 665.758 383.394 659.716C367.827 655.251 352.559 649.425 337.767 642.243L331.842 639.367L334.716 645.297C341.482 659.259 347.043 673.644 351.396 688.304C357.835 709.992 348.267 733.102 328.379 743.886C314.95 751.166 300.862 757.399 286.222 762.479L280 764.639L286.222 766.798C301.772 772.194 316.699 778.89 330.874 786.761C350.013 797.388 359.486 819.523 353.966 840.708C350.313 854.727 345.567 868.539 339.726 882.017C354.034 875.805 368.719 870.83 383.629 867.091C404.182 861.936 425.603 870.814 436.49 888.993C444.395 902.195 451.269 916.112 457 930.639C462.385 916.99 468.778 903.88 476.088 891.395C487.162 872.482 509.541 863.517 530.607 869.56C546.173 874.025 561.441 879.85 576.232 887.031L582.157 889.908L579.283 883.977C572.517 870.017 566.956 855.633 562.604 840.974C556.164 819.286 565.732 796.175 585.621 785.392C599.049 778.111 613.137 771.879 627.778 766.798L634 764.639L627.778 762.479C612.227 757.083 597.3 750.387 583.125 742.516C563.986 731.888 554.513 709.754 560.033 688.569C563.686 674.549 568.432 660.736 574.273 647.258C559.965 653.47 545.28 658.444 530.37 662.184Z" fill="#101010"/>
<path fill-rule="evenodd" clip-rule="evenodd" d="M457 598.639C456.822 599.091 456.642 599.542 456.462 599.993C451.191 613.154 444.98 625.809 437.913 637.88C426.84 656.793 404.461 665.758 383.394 659.716C367.827 655.251 352.559 649.425 337.767 642.243L331.842 639.367L334.716 645.297C341.482 659.259 347.043 673.644 351.396 688.304C357.835 709.992 348.267 733.102 328.379 743.886C314.95 751.166 300.862 757.399 286.222 762.479L280 764.639L286.222 766.798C301.772 772.194 316.699 778.89 330.874 786.761C350.013 797.388 359.486 819.523 353.966 840.708C350.433 854.263 345.88 867.625 340.301 880.679C340.111 881.125 339.919 881.571 339.726 882.017C340.171 881.824 340.617 881.631 341.063 881.44C354.949 875.496 369.183 870.714 383.629 867.091C404.182 861.936 425.603 870.814 436.49 888.993C444.149 901.785 450.84 915.247 456.462 929.284C456.642 929.735 456.822 930.187 457 930.639C457.178 930.187 457.358 929.735 457.538 929.284C462.81 916.122 469.02 903.466 476.088 891.395C487.162 872.482 509.541 863.517 530.607 869.56C546.173 874.025 561.441 879.85 576.232 887.031L582.157 889.908L579.283 883.977C572.517 870.017 566.956 855.633 562.604 840.974C556.164 819.286 565.732 796.175 585.621 785.392C599.049 778.111 613.137 771.879 627.778 766.798L634 764.639L627.778 762.479C612.227 757.083 597.3 750.387 583.125 742.516C563.986 731.888 554.513 709.754 560.033 688.569C563.565 675.013 568.119 661.65 573.698 648.596C573.888 648.149 574.08 647.703 574.273 647.258C573.828 647.451 573.382 647.643 572.936 647.834C559.05 653.779 544.815 658.561 530.37 662.184C509.816 667.339 488.395 658.461 477.509 640.281C469.85 627.491 463.16 614.029 457.538 599.993C457.358 599.542 457.178 599.091 457 598.639ZM457 601.333C451.795 614.193 445.695 626.569 438.776 638.386C427.472 657.692 404.624 666.845 383.119 660.677C367.497 656.196 352.174 650.35 337.33 643.143L333.999 641.526L335.616 644.861C342.406 658.872 347.987 673.308 352.355 688.019C358.929 710.16 349.16 733.756 328.855 744.765C315.38 752.071 301.242 758.325 286.55 763.424L283.05 764.639L286.55 765.853C302.155 771.269 317.134 777.988 331.359 785.886C350.897 796.735 360.569 819.334 354.933 840.96C351.475 854.231 347.041 867.318 341.629 880.113C355.259 874.336 369.221 869.673 383.385 866.121C404.366 860.858 426.235 869.922 437.348 888.479C444.858 901.022 451.44 914.206 457 927.944C462.205 915.083 468.306 902.707 475.226 890.889C486.53 871.583 509.377 862.43 530.883 868.599C546.504 873.079 561.825 878.925 576.669 886.132L580 887.749L578.383 884.413C571.594 870.404 566.013 855.969 561.645 841.259C555.071 819.118 564.84 795.521 585.144 784.513C598.62 777.206 612.758 770.952 627.45 765.853L630.95 764.639L627.45 763.424C611.845 758.009 596.865 751.289 582.639 743.39C563.101 732.541 553.43 709.943 559.065 688.317C562.523 675.045 566.958 661.957 572.37 649.162C558.74 654.938 544.777 659.601 530.613 663.154C509.632 668.416 487.763 659.353 476.651 640.795C469.141 628.254 462.56 615.07 457 601.333Z" fill="#ECE1CF"/>
<path d="M1197.2 856.737C1175.92 841.579 1168.42 821.919 1166.19 815.836C1172.5 815.967 1193.77 816.75 1214.81 831.77C1220.28 835.569 1237.45 848.994 1245.82 872.672C1239.75 872.678 1218.48 871.896 1197.2 856.737Z" fill="#517D56"/>
<path d="M1283.51 323.61C1260.77 336.481 1239.79 334.962 1233.33 334.417C1236.12 328.752 1245.82 309.807 1268.33 297.095C1274.08 293.742 1293.51 283.862 1318.51 286.288C1315.94 291.795 1306.24 310.74 1283.51 323.61Z" fill="#517D56"/>
<path d="M530.555 761.891C530.555 786.467 501.23 806.391 465.055 806.391C428.881 806.391 399.555 786.467 399.555 761.891C399.555 737.314 428.881 717.391 465.055 717.391C501.23 717.391 530.555 737.314 530.555 761.891Z" fill="#ECE1CF"/>
<path d="M502.555 742.891C502.555 767.467 495.839 787.391 487.555 787.391C479.271 787.391 472.555 767.467 472.555 742.891C472.555 718.314 479.271 698.391 487.555 698.391C495.839 698.391 502.555 718.314 502.555 742.891Z" fill="#101010"/>
<path d="M279.043 843.382C257.68 858.418 236.646 858.961 230.165 859.052C232.385 853.141 240.187 833.337 261.341 818.481C266.742 814.58 285.105 802.845 310.219 802.811C308.209 808.542 300.407 828.346 279.043 843.382Z" fill="#517D56"/>
<path d="M285.736 374.135C310.996 380.801 324.954 396.545 329.196 401.446C323.244 403.553 303.067 410.334 278.081 403.712C271.618 402.092 250.816 395.596 234.621 376.401C240.3 374.249 260.477 367.468 285.736 374.135Z" fill="#517D56"/>
</svg>
