<svg width="1681" height="215" viewBox="0 0 1681 215" fill="none" xmlns="http://www.w3.org/2000/svg">
<path fill-rule="evenodd" clip-rule="evenodd" d="M0.246094 0.342407C0.246094 118.79 96.2667 214.811 214.714 214.811C313.482 214.811 396.656 148.047 421.568 57.1873C422.102 55.2374 422.37 54.2624 422.727 54.0571C423.043 53.8756 423.407 53.8756 423.723 54.0571C424.08 54.2624 424.348 55.2374 424.882 57.1873C449.794 148.047 532.968 214.811 631.736 214.811C730.503 214.811 813.676 148.048 838.589 57.1893C839.124 55.2395 839.391 54.2646 839.748 54.0594C840.064 53.8778 840.428 53.8778 840.744 54.0594C841.102 54.2646 841.369 55.2395 841.904 57.1893C866.816 148.048 949.99 214.811 1048.76 214.811C1147.52 214.811 1230.7 148.047 1255.61 57.1884L1255.61 57.186C1256.14 55.2377 1256.41 54.2635 1256.77 54.0583C1257.09 53.8768 1257.45 53.8768 1257.77 54.0583C1258.12 54.2635 1258.39 55.2377 1258.92 57.186L1258.92 57.1884C1283.84 148.047 1367.01 214.811 1465.78 214.811C1584.23 214.811 1680.25 118.79 1680.25 0.342438L1680.25 214.811H1465.78H1048.76H631.736H214.714H0.246094V0.342407Z" fill="#101010"/>
</svg>
