<svg width="1681" height="215" viewBox="0 0 1681 215" fill="none" xmlns="http://www.w3.org/2000/svg">
<path fill-rule="evenodd" clip-rule="evenodd" d="M0.246094 214.81C0.246094 96.3625 96.2667 0.341797 214.714 0.341797C313.482 0.341797 396.656 67.1057 421.568 157.965C422.102 159.915 422.37 160.89 422.727 161.095C423.043 161.277 423.407 161.277 423.723 161.095C424.08 160.89 424.348 159.915 424.882 157.965C449.794 67.1057 532.968 0.341797 631.736 0.341797C730.503 0.341797 813.676 67.1047 838.589 157.963C839.124 159.913 839.391 160.888 839.748 161.093C840.064 161.275 840.428 161.275 840.744 161.093C841.102 160.888 841.369 159.913 841.904 157.963C866.816 67.1047 949.99 0.341797 1048.76 0.341797C1147.52 0.341797 1230.7 67.1052 1255.61 157.964L1255.61 157.966C1256.14 159.915 1256.41 160.889 1256.77 161.094C1257.09 161.276 1257.45 161.276 1257.77 161.094C1258.12 160.889 1258.39 159.915 1258.92 157.966L1258.92 157.964C1283.84 67.1052 1367.01 0.341797 1465.78 0.341797C1584.23 0.341797 1680.25 96.3624 1680.25 214.81L1680.25 0.341797H1465.78H1048.76H631.736H214.714H0.246094V214.81Z" fill="#101010"/>
</svg>
