<svg width="1680" height="976" viewBox="0 0 1680 976" fill="none" xmlns="http://www.w3.org/2000/svg">
<path fill-rule="evenodd" clip-rule="evenodd" d="M0 214.469C0 96.0215 96.0205 0 214.468 0C313.236 0 396.41 66.7637 421.322 157.623L421.326 157.641C421.857 159.576 422.125 160.549 422.481 160.754C422.797 160.936 423.161 160.936 423.477 160.754C423.833 160.549 424.101 159.576 424.632 157.641L424.636 157.623C449.548 66.7637 532.722 0 631.49 0C730.257 0 813.43 66.7637 838.343 157.621C838.585 158.504 838.772 159.188 838.938 159.689C839.138 160.297 839.307 160.641 839.502 160.752C839.818 160.934 840.182 160.934 840.498 160.752C840.855 160.547 841.123 159.57 841.658 157.621C866.57 66.7637 949.744 0 1048.51 0C1147.28 0 1230.45 66.7637 1255.36 157.623C1255.9 159.572 1256.17 160.547 1256.52 160.752C1256.84 160.934 1257.2 160.934 1257.52 160.752C1257.88 160.547 1258.14 159.572 1258.68 157.623C1283.59 66.7637 1366.76 0 1465.53 0C1583.98 0 1680 96.0215 1680 214.469V0H1465.53H1048.51H631.49H214.468H0V214.469ZM0 761.531V976H214.468H631.49H1048.51H1465.53H1680V761.531C1680 879.979 1583.98 976 1465.53 976C1366.76 976 1283.59 909.236 1258.68 818.377C1258.14 816.428 1257.88 815.453 1257.52 815.248C1257.2 815.066 1256.84 815.066 1256.52 815.248C1256.17 815.453 1255.9 816.428 1255.36 818.377C1230.45 909.236 1147.28 976 1048.51 976C949.744 976 866.57 909.236 841.658 818.379C841.123 816.43 840.855 815.453 840.498 815.248C840.308 815.139 840.101 815.096 839.897 815.117C839.762 815.133 839.628 815.176 839.502 815.248C839.293 815.367 839.116 815.75 838.897 816.436C838.742 816.924 838.565 817.566 838.343 818.379C813.43 909.236 730.257 976 631.49 976C532.722 976 449.548 909.236 424.636 818.377L424.632 818.359C424.101 816.424 423.833 815.451 423.477 815.246C423.161 815.064 422.797 815.064 422.481 815.246C422.313 815.342 422.166 815.607 422.001 816.062C421.814 816.58 421.606 817.342 421.322 818.377C396.41 909.236 313.236 976 214.468 976C96.0205 976 0 879.979 0 761.531Z" fill="#101010"/>
</svg>
