<svg width="159" height="21" viewBox="0 0 159 21" fill="none" xmlns="http://www.w3.org/2000/svg">
<path d="M21.6333 0L15.1604 10.5L21.6333 21H15.8417L11.0722 13.2541H5.17837V21H0V0H5.17837V7.7459H11.0722L15.8417 0H21.6333Z" fill="#ECE1CF"/>
<path d="M66.9259 0H72.2065V21H66.9259V13.2197H55.7515V21H50.5391V0H55.7515V7.7459H66.9259V0Z" fill="#ECE1CF"/>
<path d="M49.2423 10.5C49.2423 16.299 42.3525 21 33.8535 21C25.3545 21 18.4647 16.299 18.4647 10.5C18.4647 4.70101 25.3545 0 33.8535 0C42.3525 0 49.2423 4.70101 49.2423 10.5Z" fill="#ECE1CF"/>
<path d="M37.3425 10.5C37.3425 16.299 35.7767 21 33.8451 21C31.9135 21 30.3477 16.299 30.3477 10.5C30.3477 4.70101 31.9135 0 33.8451 0C35.7767 0 37.3425 4.70101 37.3425 10.5Z" fill="#101010"/>
<path d="M108.42 0L101.947 10.5L108.42 21H102.629L97.8592 13.2541H91.9654V21H86.787V0H91.9654V7.7459H97.8592L102.629 0H108.42Z" fill="#ECE1CF"/>
<path d="M153.72 0H159V21H153.72V13.2197H142.545V21H137.333V0H142.545V7.7459H153.72V0Z" fill="#ECE1CF"/>
<path d="M136.029 10.5C136.029 16.299 129.14 21 120.641 21C112.142 21 105.252 16.299 105.252 10.5C105.252 4.70101 112.142 0 120.641 0C129.14 0 136.029 4.70101 136.029 10.5Z" fill="#ECE1CF"/>
<path d="M123.958 10.5C123.958 16.299 122.392 21 120.46 21C118.529 21 116.963 16.299 116.963 10.5C116.963 4.70101 118.529 0 120.46 0C122.392 0 123.958 4.70101 123.958 10.5Z" fill="#101010"/>
<path d="M75.0225 8.12622H83.9741V13.1778H75.0225V8.12622Z" fill="#ECE1CF"/>
</svg>
