<svg width="1409" height="900" viewBox="0 0 1409 900" fill="none" xmlns="http://www.w3.org/2000/svg">
<path fill-rule="evenodd" clip-rule="evenodd" d="M507.989 297.313C519.126 296.825 541.967 297.781 565.516 310.42C572.875 314.197 606.658 332.354 615.98 372.041C616.044 372.346 616.116 372.683 616.195 373.049C618.388 383.277 625.625 417.015 602.085 445.506C584.082 467.013 557.088 475.19 535.455 474.714C534.879 474.671 534.257 474.629 533.596 474.584C523.403 473.893 503.874 472.568 496.501 457.691C491.64 448.15 492.02 433.114 499.906 425.474C505.138 420.25 512.044 419.674 518.233 419.158C524.186 418.661 529.475 418.22 531.973 413.751C536.412 406.867 530.917 393.987 522.756 388.82C508.475 379.779 483.402 392.403 470.591 407.208C455.887 424.34 456.506 445.591 457.217 456.912C457.512 464.15 459.285 507.578 496.712 529.804C518.97 541.75 541.949 540.934 552.545 539.616C553.557 539.49 554.456 539.36 555.231 539.236C554.443 539.685 553.655 540.134 552.867 540.584C509.83 565.122 466.731 589.551 423.631 613.98C380.179 638.608 336.728 663.237 293.342 687.977C292.905 688.226 292.467 688.476 292.03 688.725C292.188 688.266 292.35 687.79 292.515 687.297C298.191 670.403 308.284 633.506 293.895 594.423L293.702 593.904C287.819 578.08 277.929 551.478 250.185 540.015C224.176 529.719 185.356 534.227 172.137 557.294C165.151 568.736 163.462 588.233 174.88 600.162C182.321 607.863 191.857 609.596 196.607 610.314C196.852 610.351 197.084 610.385 197.303 610.418C197.427 610.436 197.546 610.454 197.661 610.471C197.641 610.366 197.61 610.22 197.57 610.036C197.534 609.865 197.49 609.661 197.442 609.427C196.714 605.878 194.961 595.382 201.192 587.441C209.684 576.364 227.82 576.388 237.269 582.664C252.837 592.814 248.264 620.767 241.208 636.572C228.725 664.812 199.01 674.25 193.574 675.977C193.265 676.075 193.035 676.148 192.89 676.198C159.22 685.142 127.428 667.072 111.029 648.757C85.1843 619.567 82.832 572.558 105.408 531.033C105.583 530.712 105.759 530.392 105.936 530.072C105.661 530.052 105.295 530.021 104.846 529.977C97.5686 529.258 68.5013 524.91 52.0673 500.669C34.8382 474.19 37.1456 433.345 64.3507 412.082C87.2311 394.271 115.772 398.911 122.827 400.743C123.345 400.877 123.747 400.997 124.023 401.091C123.879 400.705 123.734 400.312 123.588 399.912C118.923 387.139 113.343 367.032 117.143 342.09C117.24 341.509 117.337 340.91 117.438 340.294C118.999 330.745 121.252 316.967 130.96 303.243C138.654 292.328 146.695 287.309 154.363 282.524C158.398 280.006 162.329 277.553 166.051 274.339C178.611 262.811 189.952 239.289 180.578 186.306C180.48 185.751 180.379 185.192 180.277 184.631C180.687 185.028 181.096 185.42 181.505 185.807C207.374 210.308 229.928 215.368 242.693 216.508C259.64 217.836 278.382 214.424 291.2 211.963C301.781 209.83 309.433 207.65 315.588 205.896C326.633 202.749 332.854 200.976 342.522 203.323C359.083 207.345 370.283 220.017 374.194 224.55C381.446 232.954 385.506 241.609 387.843 247.701C388.027 248.181 388.2 248.645 388.363 249.091C388.5 248.73 388.685 248.269 388.92 247.721C391.777 241.083 402.132 221.668 425.586 211.548L425.629 211.529C430.367 209.425 453.962 198.943 477.907 209.123C505.769 220.634 511.314 249.902 512.628 256.838L512.654 256.975C515.494 274.643 510.418 289.673 507.34 296.342C507.17 296.71 507.006 297.053 506.85 297.369C507.215 297.349 507.594 297.33 507.989 297.313ZM511.669 257.148C514.617 275.511 508.88 290.996 505.953 296.927L505.195 298.464L506.906 298.368C517.463 297.776 540.881 298.333 565.043 311.301L565.051 311.305L565.06 311.31C572.382 315.068 605.787 333.042 615.004 372.258C615.066 372.557 615.137 372.886 615.213 373.242C617.401 383.454 624.538 416.757 601.317 444.866C583.558 466.081 556.899 474.178 535.503 473.715C534.927 473.672 534.309 473.63 533.656 473.586C528.883 473.261 522.189 472.806 515.649 470.917C508.21 468.769 501.147 464.813 497.397 457.247L497.392 457.237C495.055 452.649 493.96 446.693 494.42 440.949C494.88 435.201 496.886 429.792 500.602 426.192L500.607 426.187L500.613 426.181C505.453 421.349 511.825 420.698 517.962 420.184L518.362 420.151C521.239 419.911 524.091 419.673 526.542 418.946C529.139 418.174 531.391 416.823 532.83 414.266C535.283 410.435 534.907 405.125 533.021 400.279C531.119 395.389 527.582 390.692 523.291 387.975C515.743 383.196 505.512 384.224 495.75 388.144C485.946 392.08 476.344 399.031 469.834 406.553L469.832 406.557C454.852 424.011 455.507 445.626 456.218 456.964L456.218 456.971C456.516 464.255 458.308 508.161 496.202 530.664L496.22 530.675L496.239 530.685C517.242 541.957 538.856 541.993 550.354 540.865C507.989 565.016 465.564 589.063 423.138 613.11C380.01 637.555 336.882 662 293.817 686.555C299.565 669.146 309.048 632.685 294.833 594.077L294.832 594.074L294.614 593.487C288.741 577.688 278.717 550.721 250.567 539.091L250.56 539.088L250.553 539.086C237.363 533.864 220.964 532.405 206.181 535.161C191.417 537.913 178.087 544.91 171.276 556.785C167.684 562.674 165.472 570.591 165.607 578.562C165.742 586.547 168.236 594.666 174.158 600.854L174.161 600.857C182.225 609.203 192.66 610.743 197.134 611.404C197.265 611.423 197.392 611.442 197.513 611.46L198.905 611.667L198.643 610.284C198.622 610.171 198.589 610.016 198.548 609.824C198.269 608.518 197.62 605.469 197.651 601.724C197.687 597.427 198.623 592.335 201.979 588.058L201.986 588.049C206.015 582.793 212.376 580.119 218.959 579.542C225.551 578.964 232.212 580.506 236.715 583.497L236.722 583.502C244.08 588.299 246.801 597.385 246.723 607.49C246.645 617.562 243.777 628.365 240.295 636.164L240.294 636.167C228.008 663.96 198.742 673.281 193.261 675.027C192.972 675.119 192.75 675.19 192.599 675.241C159.432 684.033 128.018 666.231 111.774 648.09C86.0818 619.068 83.824 572.041 106.81 530.557L107.567 529.191L106.01 529.075C101.307 528.724 70.0664 525.429 52.8996 500.115C35.9061 473.988 38.2466 433.754 64.9665 412.87C77.0344 403.476 90.7227 400.423 101.932 399.899C113.158 399.375 121.81 401.392 123.7 402.037L125.699 402.72L124.96 400.741C120.247 388.121 114.25 367.729 118.13 342.248C118.226 341.673 118.323 341.08 118.423 340.471C119.985 330.925 122.205 317.351 131.776 303.82L131.777 303.819C137.557 295.62 143.527 290.805 149.415 286.872C151.208 285.673 153.016 284.545 154.818 283.42C158.885 280.882 162.922 278.362 166.705 275.096L166.716 275.086L166.728 275.076C179.533 263.322 190.779 239.687 181.792 187.449C207.436 211.335 229.805 216.361 242.604 217.504L242.615 217.505C259.715 218.845 278.584 215.404 291.389 212.945L291.398 212.943C302.02 210.802 309.739 208.603 315.901 206.847C318.334 206.154 320.523 205.53 322.554 205.006C329.715 203.158 334.975 202.52 342.286 204.295C358.511 208.235 369.531 220.677 373.437 225.203C381.152 234.144 385.21 243.38 387.424 249.435L388.347 251.959L389.299 249.445C391.048 244.823 400.949 223.267 425.983 212.466L425.992 212.462L426.018 212.451C430.715 210.364 453.972 200.034 477.516 210.044L477.525 210.048C504.884 221.351 510.341 250.144 511.651 257.051L511.669 257.148Z" fill="#ECE1CF"/>
<path d="M349 601C349 617.016 327.51 630 301 630C274.49 630 253 617.016 253 601C253 584.984 274.49 572 301 572C327.51 572 349 584.984 349 601Z" fill="#101010"/>
<path d="M435.719 18.1951C441.433 25.0846 454.139 42.7782 456.963 69.136C459.254 88.8018 455.086 104.356 451.619 112.953C456.258 113.005 471.95 113.042 485.751 124.48C507.042 142.688 503.792 172.181 503.196 174.403C509.909 173.225 533.697 171.263 556.967 186.429C586.152 205.561 591.435 237.936 592.415 242.962C548.253 240.655 522.424 254.572 510.074 263.766C497.182 272.814 488.332 284.136 469.942 307.191C434.15 351.78 436.95 360.865 419.366 372.229C393.879 389.215 356.473 389.909 328.565 374.691C287.442 352.36 279.422 301.986 276.588 282.174C272.381 256.637 277.966 250.989 274.834 232.288C269.936 207.161 252.366 175.066 193.443 143.202C200.953 136.879 222.344 119.987 253.93 117.138C277.176 115.031 294.635 121.496 303.955 125.779C304.008 123.412 306.898 103.943 323.195 95.212C338.95 86.3351 361.345 91.7407 374.2 108.879C376.783 97.068 382.684 77.2157 396.926 56.6214C411.167 36.0271 426.432 24.6374 435.719 18.1951Z" fill="#101010"/>
<path fill-rule="evenodd" clip-rule="evenodd" d="M374.485 107.604C377.208 95.6721 383.184 76.4922 396.926 56.6214C411.167 36.0271 426.432 24.6374 435.719 18.1951C441.433 25.0846 454.139 42.7782 456.963 69.136C459.168 88.0648 455.389 103.184 452.011 111.957C451.88 112.298 451.749 112.63 451.619 112.953L451.787 112.955C452.056 112.957 452.358 112.961 452.691 112.966C458.342 113.06 472.87 113.805 485.751 124.48C505.33 141.223 504.156 167.51 503.377 173.358C503.309 173.869 503.244 174.224 503.196 174.403C503.512 174.347 503.865 174.29 504.254 174.233C512.144 173.078 534.79 171.976 556.967 186.429C584.621 204.557 590.815 234.575 592.222 241.951C592.252 242.109 592.28 242.257 592.306 242.395C592.347 242.611 592.383 242.801 592.415 242.962C592.071 242.944 591.728 242.927 591.387 242.911C547.851 240.871 522.328 254.644 510.074 263.766C497.576 272.537 488.878 283.445 471.604 305.107C471.059 305.791 470.505 306.486 469.942 307.191C453.634 327.507 445.338 340.453 439.475 349.602C432.47 360.532 428.938 366.043 419.366 372.229C393.879 389.215 356.473 389.909 328.565 374.691C287.442 352.36 279.422 301.986 276.588 282.174C274.327 268.449 274.895 260.469 275.417 253.12C275.866 246.795 276.283 240.938 274.834 232.288C269.962 207.296 252.554 175.41 194.387 143.715C194.074 143.544 193.759 143.373 193.443 143.202C193.701 142.984 193.977 142.754 194.268 142.512C202.439 135.732 223.432 119.889 253.93 117.138C276.387 115.103 293.444 121.067 302.979 125.336C303.314 125.486 303.639 125.634 303.955 125.779C303.96 125.563 303.989 125.203 304.049 124.722C304.649 119.942 308.388 103.145 323.195 95.212C338.629 86.5156 360.437 91.5268 373.404 107.848C373.673 108.187 373.939 108.53 374.2 108.879C374.291 108.464 374.386 108.039 374.485 107.604ZM195.214 143.027C203.537 136.162 224.196 120.824 254.02 118.134C277.029 116.049 294.308 122.446 303.538 126.688L304.921 127.324L304.955 125.801C304.978 124.761 305.68 119.432 308.398 113.287C311.108 107.159 315.778 100.32 323.667 96.0934L323.677 96.0884L323.686 96.0832C338.932 87.4927 360.795 92.6736 373.4 109.479L374.71 111.226L375.177 109.092C377.742 97.3626 383.604 77.6442 397.748 57.1902C411.513 37.2851 426.236 26.0406 435.531 19.544C441.417 26.8097 453.266 44.0175 455.968 69.2425L455.969 69.2517C458.237 88.7186 454.109 104.103 450.692 112.579L450.144 113.936L451.764 113.954C456.559 114.007 471.743 114.173 485.106 125.245C495.516 134.15 499.948 145.829 501.697 155.612C502.571 160.501 502.771 164.899 502.716 168.209C502.66 171.552 502.346 173.711 502.23 174.144L501.825 175.659L503.369 175.388C509.945 174.234 533.441 172.291 556.419 187.265C583.418 204.965 589.705 234.168 591.194 241.901C547.563 239.911 521.89 253.726 509.488 262.955C496.876 271.81 488.09 282.828 470.902 304.384C470.331 305.1 469.75 305.828 469.16 306.568C452.82 326.924 444.502 339.904 438.634 349.06C438.063 349.951 437.515 350.806 436.986 351.628C431.037 360.857 427.435 365.824 418.824 371.389L418.812 371.397C393.659 388.16 356.653 388.868 329.044 373.813L329.042 373.812C308.746 362.791 296.586 344.833 289.14 327.1C281.693 309.364 278.993 291.925 277.578 282.033L277.577 282.022L277.575 282.012C275.488 269.344 275.83 261.631 276.306 254.736C276.342 254.215 276.378 253.699 276.415 253.184C276.865 246.854 277.289 240.893 275.821 232.123L275.819 232.11L275.816 232.097C270.883 206.793 253.296 174.765 195.214 143.027Z" fill="#ECE1CF"/>
<mask id="path-5-inside-1_438_6958" fill="white">
<path fill-rule="evenodd" clip-rule="evenodd" d="M746.792 280.503C747.081 281.015 747.38 281.54 747.687 282.077C748.228 282.349 748.769 282.62 749.31 282.89C749 282.355 748.699 281.831 748.406 281.319C747.868 281.048 747.33 280.776 746.792 280.503ZM1016.98 414.811C989.434 417.329 920.57 423.396 849.188 382.718C793.031 350.787 762.872 306.279 749.31 282.89C835.131 325.639 922.309 329.87 973.329 286.841L973.335 286.836L973.34 286.831C985.436 276.323 999.206 259.366 1008.17 240.964C1017.11 222.595 1021.37 202.548 1014.04 186.015L1014.04 186.002L1014.03 185.99C1009.62 176.724 1001.63 168.976 994.091 163.205C986.541 157.423 979.365 153.561 976.486 152.091C959.881 143.614 944.857 141.343 935.082 140.532C935.004 140.878 934.934 141.207 934.873 141.518C934.531 141.49 934.197 141.464 933.869 141.439C933.93 141.128 933.998 140.799 934.075 140.452C934.404 140.477 934.74 140.504 935.082 140.532C936.812 132.845 942.597 116.797 957.635 103.497L957.645 103.489L957.654 103.48C963.222 98.2966 979.723 84.4309 1002.82 86.3753C1002.82 86.3751 1002.81 86.3749 1002.81 86.3747L1002.91 85.3794L1002.82 86.3758C1002.82 86.3757 1002.82 86.3755 1002.82 86.3753C1021.37 88.1666 1034.28 99.6593 1037.92 103.575L1039.03 104.759L1039.59 103.244C1040 102.159 1042.4 96.2474 1047.39 89.9484C1052.38 83.652 1059.91 77.0246 1070.57 74.3791C1070.56 74.3794 1070.56 74.3797 1070.56 74.3801L1070.33 73.4083L1070.57 74.3788C1070.57 74.3789 1070.57 74.379 1070.57 74.3791C1089.61 69.7616 1104.73 80.4674 1111.89 85.7552L1111.9 85.7618L1111.91 85.7682C1128.76 97.635 1134.32 114.302 1136.47 120.743L1137.04 122.468L1138.18 121.409C1139.49 120.187 1145.27 115.715 1154 112.197C1162.71 108.684 1174.32 106.146 1187.34 108.692C1187.34 108.691 1187.34 108.691 1187.33 108.691L1187.53 107.711L1187.34 108.692C1187.34 108.692 1187.34 108.692 1187.34 108.692C1187.41 108.705 1187.48 108.72 1187.55 108.735C1192.61 109.757 1214.35 114.149 1225.18 134.315L1225.18 134.318C1233.34 149.384 1230.52 164.468 1229.59 169.038L1228.99 171.952L1231.23 169.99C1245.01 157.889 1262.97 153.665 1277.39 159.801C1277.39 159.799 1277.39 159.798 1277.38 159.796L1277.79 158.885L1277.4 159.805C1277.4 159.803 1277.4 159.802 1277.39 159.801C1293.69 167.156 1299.52 184.355 1301.93 192.571C1306.34 207.62 1304.71 220.937 1303.33 227.369L1303.03 228.754L1304.43 228.57C1304.69 228.537 1305 228.492 1305.37 228.439C1308.48 227.995 1315.54 226.985 1323.62 227.608C1332.67 228.307 1342.83 231.049 1350.03 238.791C1355.42 244.585 1357.81 251.6 1358.64 260.01C1359.46 268.214 1358.78 277.649 1358.01 288.478C1357.99 288.795 1357.96 289.113 1357.94 289.432C1357.94 289.429 1357.94 289.427 1357.94 289.424L1358.94 289.511L1357.94 289.44C1357.94 289.437 1357.94 289.435 1357.94 289.432C1356.04 311.115 1350.42 328.081 1346.23 338.824C1346.49 339.078 1346.75 339.329 1347 339.576C1346.87 339.918 1346.74 340.254 1346.61 340.583C1346.35 340.336 1346.09 340.085 1345.83 339.83C1345.96 339.501 1346.09 339.166 1346.23 338.824C1337.83 330.787 1324.12 319.623 1303.85 311.811L1303.84 311.807C1303.63 311.729 1303.4 311.641 1303.14 311.544C1295.01 308.484 1263.62 296.678 1231.41 306.176C1216.53 310.562 1206.35 317.966 1197.38 326.788C1192.91 331.189 1188.73 335.949 1184.43 340.846L1184.35 340.936C1180.08 345.812 1175.67 350.829 1170.71 355.824C1170.71 355.823 1170.71 355.822 1170.71 355.822L1171.41 356.531L1170.7 355.827C1170.7 355.826 1170.71 355.825 1170.71 355.824C1122.26 403.854 1055.09 410.845 1018.53 414.649C1018.01 414.704 1017.49 414.757 1016.98 414.811ZM1017.08 415.806L1016.98 414.811C1016.98 414.811 1016.98 414.811 1016.98 414.811C1016.99 414.81 1016.99 414.81 1016.99 414.81L1017.08 415.806ZM1305.36 227.431C1305.33 227.552 1305.31 227.672 1305.28 227.789L1304.3 227.579L1304.17 226.587C1304.28 226.574 1304.39 226.558 1304.52 226.541C1304.45 226.904 1304.37 227.25 1304.3 227.579C1304.55 227.546 1304.86 227.502 1305.23 227.449C1305.27 227.443 1305.31 227.437 1305.36 227.431ZM1231.79 168.192C1231.7 168.668 1231.62 169.085 1231.55 169.438L1230.57 169.238L1229.91 168.486C1230.23 168.205 1230.55 167.928 1230.88 167.655C1230.76 168.273 1230.66 168.803 1230.57 169.238C1230.97 168.883 1231.38 168.534 1231.79 168.192ZM1138.32 119.973C1138.33 120.011 1138.35 120.048 1138.36 120.085L1138.45 120.36L1137.5 120.677L1136.82 119.945C1136.91 119.857 1137.03 119.757 1137.16 119.644C1137.25 119.915 1137.33 120.171 1137.41 120.414L1137.5 120.677C1137.69 120.499 1137.97 120.261 1138.32 119.973ZM1039.07 101.873C1039.18 101.991 1039.29 102.105 1039.39 102.212L1038.66 102.893L1037.72 102.543C1037.76 102.434 1037.82 102.285 1037.89 102.1C1038.18 102.39 1038.43 102.655 1038.66 102.893C1038.73 102.693 1038.87 102.346 1039.07 101.873Z"/>
</mask>
<path d="M746.792 280.503L745.486 281.24L743.04 276.911L747.472 279.166L746.792 280.503ZM747.687 282.077L747.012 283.416L746.61 283.214L746.386 282.823L747.687 282.077ZM748.406 281.319L749.08 279.979L749.484 280.182L749.708 280.575L748.406 281.319ZM849.188 382.718L849.93 381.414L849.931 381.414L849.188 382.718ZM973.329 286.841L974.299 287.985L974.296 287.987L973.329 286.841ZM973.335 286.836L974.318 287.969L974.311 287.975L974.304 287.981L973.335 286.836ZM973.34 286.831L974.324 287.964L974.323 287.964L973.34 286.831ZM1008.17 240.964L1006.82 240.307L1006.82 240.307L1008.17 240.964ZM1014.04 186.015L1015.41 185.405L1015.41 185.407L1014.04 186.015ZM1014.04 186.002L1015.39 185.358L1015.4 185.375L1015.41 185.393L1014.04 186.002ZM1014.03 185.99L1015.39 185.345L1015.39 185.346L1014.03 185.99ZM994.091 163.205L995.003 162.014L995.003 162.014L994.091 163.205ZM976.486 152.091L975.804 153.427L975.804 153.427L976.486 152.091ZM934.873 141.518L936.344 141.811L936.083 143.123L934.75 143.013L934.873 141.518ZM933.869 141.439L933.757 142.935L932.072 142.809L932.397 141.151L933.869 141.439ZM934.075 140.452L932.611 140.128L932.892 138.858L934.189 138.957L934.075 140.452ZM957.635 103.497L958.631 104.619L958.629 104.621L957.635 103.497ZM957.645 103.489L958.665 104.588L958.653 104.6L958.64 104.611L957.645 103.489ZM957.654 103.48L958.676 104.578L958.675 104.579L957.654 103.48ZM1002.81 86.3747L1002.67 87.8679L1001.18 87.7243L1001.32 86.2308L1002.81 86.3747ZM1002.91 85.3794L1001.42 85.2354L1004.4 85.5054L1002.91 85.3794ZM1002.82 86.3758L1004.32 86.5018L1004.19 87.9939L1002.7 87.8707L1002.82 86.3758ZM1037.92 103.575L1036.83 104.596L1036.83 104.596L1037.92 103.575ZM1039.03 104.759L1040.43 105.284L1039.58 107.556L1037.93 105.78L1039.03 104.759ZM1039.59 103.244L1038.19 102.718L1038.19 102.718L1039.59 103.244ZM1047.39 89.9484L1048.57 90.8799L1048.57 90.8799L1047.39 89.9484ZM1070.56 74.3801L1070.92 75.8378L1069.46 76.1913L1069.1 74.7337L1070.56 74.3801ZM1070.33 73.4083L1068.87 73.7619L1071.78 73.0469L1070.33 73.4083ZM1070.57 74.3788L1072.02 74.0175L1072.38 75.4499L1070.95 75.8286L1070.57 74.3788ZM1111.89 85.7552L1112.79 84.5483L1112.79 84.5483L1111.89 85.7552ZM1111.9 85.7618L1111.04 86.9883L1111.03 86.9787L1111.01 86.9688L1111.9 85.7618ZM1111.91 85.7682L1112.78 84.5417L1112.78 84.5418L1111.91 85.7682ZM1136.47 120.743L1135.05 121.218L1135.05 121.217L1136.47 120.743ZM1137.04 122.468L1138.07 123.566L1136.36 125.155L1135.62 122.943L1137.04 122.468ZM1138.18 121.409L1137.16 120.311L1137.16 120.311L1138.18 121.409ZM1154 112.197L1154.56 113.588L1154.56 113.588L1154 112.197ZM1187.33 108.691L1187.03 110.16L1185.57 109.859L1185.86 108.392L1187.33 108.691ZM1187.53 107.711L1186.06 107.412L1189.01 107.999L1187.53 107.711ZM1187.34 108.692L1188.81 108.98L1188.52 110.46L1187.05 110.163L1187.34 108.692ZM1187.55 108.735L1187.85 107.264L1187.85 107.264L1187.55 108.735ZM1225.18 134.315L1226.5 133.605L1226.5 133.605L1225.18 134.315ZM1225.18 134.318L1223.86 135.032L1223.86 135.027L1225.18 134.318ZM1229.59 169.038L1231.06 169.338L1231.06 169.338L1229.59 169.038ZM1228.99 171.952L1229.98 173.079L1226.63 176.022L1227.52 171.651L1228.99 171.952ZM1231.23 169.99L1232.22 171.117L1232.22 171.117L1231.23 169.99ZM1277.38 159.796L1276.77 161.163L1275.4 160.547L1276.02 159.18L1277.38 159.796ZM1277.79 158.885L1276.43 158.268L1279.17 159.472L1277.79 158.885ZM1277.4 159.805L1278.78 160.392L1278.19 161.772L1276.81 161.185L1277.4 159.805ZM1301.93 192.571L1303.37 192.15L1303.37 192.15L1301.93 192.571ZM1303.33 227.369L1301.86 227.054L1301.86 227.054L1303.33 227.369ZM1303.03 228.754L1303.22 230.242L1301.12 230.518L1301.56 228.44L1303.03 228.754ZM1304.43 228.57L1304.24 227.083L1304.24 227.083L1304.43 228.57ZM1305.37 228.439L1305.16 226.954L1305.16 226.954L1305.37 228.439ZM1323.62 227.608L1323.74 226.113L1323.74 226.113L1323.62 227.608ZM1350.03 238.791L1351.13 237.769L1351.13 237.769L1350.03 238.791ZM1358.64 260.01L1360.14 259.863L1360.14 259.863L1358.64 260.01ZM1358.01 288.478L1356.51 288.371L1356.51 288.371L1358.01 288.478ZM1357.94 289.424L1356.45 289.293L1356.58 287.798L1358.07 287.93L1357.94 289.424ZM1358.94 289.511L1359.07 288.017L1358.83 291.007L1358.94 289.511ZM1357.94 289.44L1357.83 290.936L1356.34 290.83L1356.44 289.334L1357.94 289.44ZM1347 339.576L1348.05 338.5L1348.77 339.196L1348.4 340.125L1347 339.576ZM1346.61 340.583L1348 341.139L1347.17 343.228L1345.56 341.656L1346.61 340.583ZM1345.83 339.83L1344.79 340.911L1344.06 340.213L1344.43 339.277L1345.83 339.83ZM1303.85 311.811L1304.39 310.411L1304.39 310.411L1303.85 311.811ZM1303.84 311.807L1304.37 310.401L1304.38 310.404L1304.38 310.407L1303.84 311.807ZM1303.14 311.544L1303.67 310.14L1303.67 310.14L1303.14 311.544ZM1231.41 306.176L1231.83 307.615L1231.83 307.615L1231.41 306.176ZM1197.38 326.788L1198.43 327.858L1198.43 327.858L1197.38 326.788ZM1184.43 340.846L1185.56 341.835L1185.56 341.835L1184.43 340.846ZM1184.35 340.936L1183.22 339.947L1183.22 339.947L1184.35 340.936ZM1170.71 355.822L1169.65 354.764L1170.71 353.693L1171.77 354.766L1170.71 355.822ZM1171.41 356.531L1172.48 355.475L1170.35 357.595L1171.41 356.531ZM1170.7 355.827L1169.65 356.89L1168.58 355.833L1169.64 354.77L1170.7 355.827ZM1018.53 414.649L1018.69 416.141L1018.69 416.141L1018.53 414.649ZM1017.08 415.806L1018.58 415.669L1015.59 415.962L1017.08 415.806ZM1016.98 414.811L1015.49 414.967L1015.33 413.471L1016.83 413.319L1016.98 414.811ZM1016.99 414.81L1016.86 413.316L1018.35 413.186L1018.48 414.673L1016.99 414.81ZM1305.36 227.431L1305.14 225.946L1307.26 225.644L1306.83 227.736L1305.36 227.431ZM1305.28 227.789L1306.75 228.103L1306.43 229.57L1304.97 229.255L1305.28 227.789ZM1304.3 227.579L1303.99 229.045L1302.95 228.823L1302.82 227.774L1304.3 227.579ZM1304.17 226.587L1302.69 226.782L1302.49 225.295L1303.98 225.1L1304.17 226.587ZM1304.52 226.541L1304.31 225.055L1306.39 224.764L1305.99 226.828L1304.52 226.541ZM1305.23 227.449L1305.44 228.934L1305.44 228.934L1305.23 227.449ZM1231.79 168.192L1230.83 167.038L1234.04 164.379L1233.27 168.469L1231.79 168.192ZM1231.55 169.438L1233.02 169.739L1232.72 171.209L1231.25 170.908L1231.55 169.438ZM1230.57 169.238L1230.27 170.708L1229.77 170.606L1229.44 170.227L1230.57 169.238ZM1229.91 168.486L1228.78 169.476L1227.79 168.348L1228.92 167.359L1229.91 168.486ZM1230.88 167.655L1229.91 166.507L1233.1 163.828L1232.35 167.924L1230.88 167.655ZM1138.32 119.973L1137.37 118.809L1139.06 117.441L1139.74 119.499L1138.32 119.973ZM1138.36 120.085L1136.93 120.559L1136.93 120.559L1138.36 120.085ZM1138.45 120.36L1139.87 119.886L1140.35 121.308L1138.92 121.783L1138.45 120.36ZM1137.5 120.677L1137.98 122.1L1137.06 122.405L1136.4 121.699L1137.5 120.677ZM1136.82 119.945L1135.72 120.967L1134.7 119.869L1135.8 118.847L1136.82 119.945ZM1137.16 119.644L1136.17 118.51L1137.87 117.045L1138.58 119.167L1137.16 119.644ZM1137.41 120.414L1135.99 120.888L1135.99 120.888L1137.41 120.414ZM1039.07 101.873L1037.69 101.286L1038.58 99.1947L1040.15 100.835L1039.07 101.873ZM1039.39 102.212L1040.49 101.19L1041.51 102.289L1040.41 103.31L1039.39 102.212ZM1038.66 102.893L1039.68 103.992L1039 104.623L1038.13 104.298L1038.66 102.893ZM1037.72 102.543L1037.19 103.948L1035.79 103.422L1036.32 102.017L1037.72 102.543ZM1037.89 102.1L1036.5 101.542L1037.35 99.4273L1038.96 101.043L1037.89 102.1ZM748.098 279.765C748.386 280.274 748.683 280.797 748.989 281.331L746.386 282.823C746.077 282.283 745.777 281.755 745.486 281.24L748.098 279.765ZM748.641 284.233C748.098 283.962 747.555 283.69 747.012 283.416L748.362 280.737C748.901 281.009 749.44 281.279 749.979 281.547L748.641 284.233ZM749.708 280.575C749.999 281.084 750.299 281.606 750.608 282.138L748.013 283.642C747.701 283.105 747.398 282.578 747.104 282.063L749.708 280.575ZM747.732 282.659C747.192 282.387 746.652 282.114 746.112 281.84L747.472 279.166C748.008 279.438 748.544 279.709 749.08 279.979L747.732 282.659ZM849.931 381.414C920.888 421.851 989.351 415.83 1016.85 413.317L1017.12 416.304C989.517 418.827 920.251 424.941 848.446 384.021L849.931 381.414ZM750.608 282.138C764.101 305.408 794.094 349.666 849.93 381.414L848.447 384.022C791.968 351.908 761.643 307.15 748.013 283.642L750.608 282.138ZM974.296 287.987C922.583 331.602 834.653 327.076 748.641 284.233L749.979 281.547C835.61 324.201 922.035 328.139 972.362 285.694L974.296 287.987ZM974.304 287.981L974.299 287.985L972.36 285.696L972.365 285.691L974.304 287.981ZM974.323 287.964L974.318 287.969L972.352 285.703L972.357 285.698L974.323 287.964ZM1009.52 241.62C1000.46 260.212 986.566 277.329 974.324 287.964L972.357 285.699C984.306 275.318 997.95 258.521 1006.82 240.307L1009.52 241.62ZM1015.41 185.407C1023.01 202.549 1018.53 223.113 1009.52 241.62L1006.82 240.307C1015.7 222.076 1019.73 202.546 1012.67 186.623L1015.41 185.407ZM1015.41 185.393L1015.41 185.405L1012.67 186.624L1012.67 186.612L1015.41 185.393ZM1015.39 185.346L1015.39 185.358L1012.68 186.646L1012.68 186.634L1015.39 185.346ZM995.003 162.014C1002.62 167.845 1010.83 175.767 1015.39 185.345L1012.68 186.635C1008.41 177.682 1000.64 170.107 993.179 164.396L995.003 162.014ZM977.168 150.755C980.09 152.247 987.354 156.156 995.003 162.014L993.179 164.396C985.729 158.69 978.64 154.875 975.804 153.427L977.168 150.755ZM935.206 139.037C945.093 139.857 960.328 142.158 977.168 150.755L975.804 153.427C959.434 145.07 944.62 142.828 934.958 142.027L935.206 139.037ZM936.545 140.862C936.47 141.196 936.403 141.513 936.344 141.811L933.401 141.226C933.466 140.902 933.538 140.561 933.619 140.203L936.545 140.862ZM933.981 139.944C934.312 139.969 934.65 139.995 934.995 140.023L934.75 143.013C934.412 142.986 934.081 142.96 933.757 142.935L933.981 139.944ZM935.54 140.777C935.465 141.112 935.399 141.429 935.341 141.728L932.397 141.151C932.46 140.827 932.531 140.486 932.611 140.128L935.54 140.777ZM934.189 138.957C934.521 138.982 934.86 139.009 935.206 139.037L934.958 142.027C934.62 141.999 934.287 141.973 933.962 141.948L934.189 138.957ZM958.629 104.621C943.891 117.655 938.228 133.387 936.545 140.862L933.619 140.203C935.396 132.304 941.303 115.939 956.641 102.374L958.629 104.621ZM958.64 104.611L958.631 104.619L956.639 102.376L956.649 102.367L958.64 104.611ZM958.675 104.579L958.665 104.588L956.624 102.39L956.633 102.381L958.675 104.579ZM1002.69 87.87C980.263 85.9818 964.178 99.4561 958.676 104.578L956.632 102.382C962.266 97.1371 979.182 82.8801 1002.94 84.8806L1002.69 87.87ZM1002.67 87.8684C1002.67 87.8682 1002.67 87.868 1002.67 87.8679C1002.67 87.8678 1002.67 87.8678 1002.67 87.8679L1002.96 84.8816C1002.96 84.8819 1002.96 84.8821 1002.96 84.8822C1002.96 84.8823 1002.96 84.8823 1002.96 84.8822L1002.67 87.8684ZM1001.32 86.2308L1001.42 85.2354L1004.4 85.5233L1004.31 86.5187L1001.32 86.2308ZM1004.4 85.5054L1004.32 86.5018L1001.33 86.2498L1001.41 85.2533L1004.4 85.5054ZM1002.7 87.8707C1002.7 87.8706 1002.7 87.8704 1002.7 87.8703C1002.7 87.8702 1002.69 87.8702 1002.7 87.8702L1002.94 84.8804C1002.94 84.8806 1002.95 84.8807 1002.95 84.8808C1002.95 84.8809 1002.95 84.8809 1002.95 84.8809L1002.7 87.8707ZM1036.83 104.596C1033.3 100.811 1020.71 89.6098 1002.67 87.8684L1002.96 84.8823C1022.03 86.7234 1035.26 98.5071 1039.02 102.553L1036.83 104.596ZM1037.93 105.78L1036.83 104.596L1039.02 102.553L1040.12 103.737L1037.93 105.78ZM1041 103.77L1040.43 105.284L1037.62 104.233L1038.19 102.718L1041 103.77ZM1048.57 90.8799C1043.7 97.0187 1041.37 102.778 1041 103.77L1038.19 102.718C1038.63 101.54 1041.1 95.476 1046.22 89.0169L1048.57 90.8799ZM1070.93 75.8349C1060.69 78.3753 1053.43 84.7472 1048.57 90.8799L1046.22 89.0169C1051.33 82.5568 1059.12 75.674 1070.2 72.9233L1070.93 75.8349ZM1070.92 75.8369C1070.92 75.8368 1070.92 75.8368 1070.92 75.837C1070.92 75.8371 1070.92 75.8375 1070.92 75.8378L1070.21 72.9223C1070.21 72.9224 1070.21 72.9224 1070.21 72.9222C1070.21 72.922 1070.21 72.9217 1070.21 72.9214L1070.92 75.8369ZM1069.1 74.7337L1068.87 73.7619L1071.78 73.0546L1072.02 74.0264L1069.1 74.7337ZM1071.78 73.0469L1072.02 74.0175L1069.11 74.7402L1068.87 73.7696L1071.78 73.0469ZM1070.95 75.8286C1070.94 75.8321 1070.93 75.8347 1070.92 75.8362C1070.92 75.837 1070.92 75.8376 1070.91 75.838C1070.91 75.8382 1070.91 75.8383 1070.91 75.8384C1070.91 75.8385 1070.91 75.8385 1070.91 75.8386C1070.91 75.8386 1070.91 75.8386 1070.91 75.8386C1070.91 75.8387 1070.91 75.8384 1070.91 75.8381C1070.92 75.8377 1070.92 75.8371 1070.92 75.8364C1070.93 75.8349 1070.94 75.8323 1070.95 75.8289L1070.18 72.9293C1070.19 72.9258 1070.2 72.9232 1070.21 72.9217C1070.21 72.9209 1070.22 72.9203 1070.22 72.9199C1070.22 72.9197 1070.22 72.9196 1070.22 72.9195C1070.22 72.9194 1070.22 72.9194 1070.22 72.9194C1070.22 72.9193 1070.22 72.9193 1070.22 72.9193C1070.22 72.9193 1070.22 72.9195 1070.22 72.9198C1070.22 72.9202 1070.21 72.9208 1070.21 72.9216C1070.21 72.923 1070.2 72.9256 1070.18 72.929L1070.95 75.8286ZM1111 86.9622C1103.83 81.6687 1089.23 71.3972 1070.92 75.8369L1070.21 72.9214C1089.99 68.126 1105.63 79.266 1112.79 84.5483L1111 86.9622ZM1111.01 86.9688L1111 86.9622L1112.79 84.5483L1112.79 84.5549L1111.01 86.9688ZM1111.05 86.9947L1111.04 86.9883L1112.77 84.5354L1112.78 84.5417L1111.05 86.9947ZM1135.05 121.217C1132.91 114.821 1127.48 98.5648 1111.05 86.9947L1112.78 84.5418C1130.05 96.7051 1135.73 113.784 1137.89 120.268L1135.05 121.217ZM1139.2 122.507L1138.07 123.566L1136.02 121.37L1137.16 120.311L1139.2 122.507ZM1154.56 113.588C1146 117.038 1140.38 121.412 1139.2 122.507L1137.16 120.311C1138.61 118.962 1144.54 114.391 1153.44 110.805L1154.56 113.588ZM1187.05 110.164C1174.39 107.688 1163.08 110.152 1154.56 113.588L1153.44 110.805C1162.34 107.217 1174.25 104.604 1187.63 107.219L1187.05 110.164ZM1187.04 110.161C1187.04 110.162 1187.04 110.162 1187.04 110.162C1187.04 110.162 1187.04 110.161 1187.03 110.16L1187.64 107.221C1187.63 107.221 1187.63 107.221 1187.63 107.221C1187.63 107.221 1187.64 107.221 1187.64 107.222L1187.04 110.161ZM1185.86 108.392L1186.06 107.412L1189 108.009L1188.8 108.989L1185.86 108.392ZM1189.01 107.999L1188.81 108.98L1185.87 108.404L1186.06 107.423L1189.01 107.999ZM1187.05 110.163C1187.05 110.163 1187.05 110.164 1187.05 110.164C1187.06 110.165 1187.06 110.165 1187.06 110.165C1187.06 110.165 1187.06 110.165 1187.06 110.164C1187.05 110.164 1187.05 110.164 1187.05 110.164C1187.05 110.164 1187.05 110.163 1187.04 110.162L1187.63 107.221C1187.63 107.22 1187.63 107.22 1187.63 107.219C1187.63 107.219 1187.62 107.219 1187.62 107.219C1187.62 107.219 1187.63 107.219 1187.63 107.219C1187.63 107.219 1187.63 107.22 1187.63 107.22C1187.63 107.22 1187.63 107.221 1187.64 107.221L1187.05 110.163ZM1187.25 110.205C1187.18 110.19 1187.11 110.175 1187.04 110.162L1187.64 107.222C1187.7 107.235 1187.77 107.249 1187.85 107.264L1187.25 110.205ZM1223.86 135.024C1213.39 115.523 1192.32 111.227 1187.25 110.205L1187.85 107.264C1192.91 108.287 1215.32 112.775 1226.5 133.605L1223.86 135.024ZM1223.86 135.027L1223.86 135.024L1226.5 133.605L1226.5 133.608L1223.86 135.027ZM1228.12 168.737C1229.04 164.235 1231.76 149.607 1223.86 135.032L1226.5 133.603C1234.93 149.161 1232.01 164.702 1231.06 169.338L1228.12 168.737ZM1227.52 171.651L1228.12 168.737L1231.06 169.338L1230.46 172.252L1227.52 171.651ZM1232.22 171.117L1229.98 173.079L1228 170.824L1230.24 168.862L1232.22 171.117ZM1276.81 161.181C1263.04 155.326 1245.69 159.295 1232.22 171.117L1230.24 168.862C1244.34 156.482 1262.9 152.005 1277.98 158.42L1276.81 161.181ZM1276.78 161.168C1276.77 161.166 1276.77 161.165 1276.77 161.163L1278 158.429C1278 158.431 1278.01 158.432 1278.01 158.433L1276.78 161.168ZM1276.02 159.18L1276.43 158.268L1279.16 159.501L1278.75 160.413L1276.02 159.18ZM1279.17 159.472L1278.78 160.392L1276.02 159.217L1276.41 158.297L1279.17 159.472ZM1276.81 161.185C1276.81 161.184 1276.81 161.182 1276.81 161.181L1277.98 158.42C1277.98 158.422 1277.99 158.423 1277.99 158.424L1276.81 161.185ZM1300.49 192.993C1298.08 184.774 1292.4 168.219 1276.78 161.168L1278.01 158.433C1294.98 166.094 1300.96 183.936 1303.37 192.15L1300.49 192.993ZM1301.86 227.054C1303.21 220.774 1304.81 207.726 1300.49 192.993L1303.37 192.15C1307.87 207.514 1306.21 221.099 1304.79 227.684L1301.86 227.054ZM1301.56 228.44L1301.86 227.054L1304.79 227.684L1304.5 229.069L1301.56 228.44ZM1304.63 230.058L1303.22 230.242L1302.83 227.267L1304.24 227.083L1304.63 230.058ZM1305.59 229.924C1305.22 229.977 1304.89 230.023 1304.63 230.058L1304.24 227.083C1304.48 227.051 1304.79 227.008 1305.16 226.954L1305.59 229.924ZM1323.5 229.104C1315.6 228.494 1308.68 229.482 1305.59 229.924L1305.16 226.954C1308.28 226.508 1315.48 225.476 1323.74 226.113L1323.5 229.104ZM1348.93 239.813C1342.1 232.466 1332.39 229.789 1323.5 229.104L1323.74 226.113C1332.96 226.825 1343.56 229.632 1351.13 237.769L1348.93 239.813ZM1357.15 260.158C1356.34 251.956 1354.03 245.291 1348.93 239.813L1351.13 237.769C1356.81 243.878 1359.28 251.244 1360.14 259.863L1357.15 260.158ZM1356.51 288.371C1357.29 277.503 1357.95 268.208 1357.15 260.158L1360.14 259.863C1360.96 268.219 1360.28 277.795 1359.5 288.585L1356.51 288.371ZM1356.44 289.325C1356.47 289.006 1356.49 288.688 1356.51 288.371L1359.5 288.585C1359.48 288.902 1359.46 289.22 1359.44 289.539L1356.44 289.325ZM1356.45 289.301C1356.45 289.3 1356.45 289.298 1356.45 289.297C1356.45 289.296 1356.45 289.294 1356.45 289.293L1359.44 289.555C1359.44 289.556 1359.44 289.557 1359.44 289.559C1359.44 289.56 1359.43 289.562 1359.43 289.563L1356.45 289.301ZM1358.07 287.93L1359.07 288.017L1358.81 291.006L1357.81 290.918L1358.07 287.93ZM1358.83 291.007L1357.83 290.936L1358.05 287.944L1359.04 288.015L1358.83 291.007ZM1356.44 289.334C1356.44 289.332 1356.44 289.33 1356.44 289.329C1356.44 289.327 1356.44 289.327 1356.44 289.326L1359.44 289.538C1359.44 289.54 1359.44 289.542 1359.44 289.543C1359.44 289.545 1359.44 289.546 1359.44 289.546L1356.44 289.334ZM1344.83 338.278C1349 327.616 1354.56 310.795 1356.45 289.301L1359.43 289.563C1357.51 311.435 1351.85 328.546 1347.62 339.37L1344.83 338.278ZM1347.26 337.741C1347.53 337.997 1347.79 338.25 1348.05 338.5L1345.96 340.652C1345.71 340.407 1345.45 340.159 1345.19 339.908L1347.26 337.741ZM1345.21 340.028C1345.34 339.701 1345.48 339.367 1345.61 339.027L1348.4 340.125C1348.27 340.47 1348.13 340.808 1348 341.139L1345.21 340.028ZM1346.87 338.75C1347.14 339.007 1347.4 339.26 1347.65 339.51L1345.56 341.656C1345.31 341.411 1345.05 341.163 1344.79 340.911L1346.87 338.75ZM1344.43 339.277C1344.56 338.95 1344.7 338.618 1344.83 338.278L1347.62 339.37C1347.49 339.714 1347.35 340.052 1347.22 340.383L1344.43 339.277ZM1304.39 310.411C1324.91 318.316 1338.77 329.615 1347.26 337.741L1345.19 339.908C1336.88 331.959 1323.34 320.93 1303.31 313.21L1304.39 310.411ZM1304.38 310.407L1304.39 310.411L1303.31 313.21L1303.3 313.207L1304.38 310.407ZM1303.67 310.14C1303.93 310.237 1304.16 310.324 1304.37 310.401L1303.32 313.212C1303.11 313.133 1302.87 313.045 1302.62 312.948L1303.67 310.14ZM1230.98 304.738C1263.72 295.085 1295.53 307.079 1303.67 310.14L1302.62 312.948C1294.48 309.89 1263.53 298.27 1231.83 307.615L1230.98 304.738ZM1196.33 325.719C1205.42 316.774 1215.81 309.211 1230.98 304.738L1231.83 307.615C1217.25 311.913 1207.28 319.157 1198.43 327.858L1196.33 325.719ZM1183.3 339.857C1187.59 334.967 1191.81 330.165 1196.33 325.719L1198.43 327.858C1194 332.213 1189.86 336.931 1185.56 341.835L1183.3 339.857ZM1183.22 339.947L1183.3 339.857L1185.56 341.835L1185.48 341.925L1183.22 339.947ZM1169.64 354.766C1174.57 349.81 1178.94 344.827 1183.22 339.947L1185.48 341.925C1181.21 346.797 1176.78 351.849 1171.77 356.882L1169.64 354.766ZM1169.64 354.766C1169.65 354.763 1169.65 354.76 1169.65 354.758C1169.65 354.757 1169.65 354.757 1169.65 354.756C1169.65 354.756 1169.65 354.755 1169.65 354.755C1169.65 354.755 1169.65 354.756 1169.65 354.757C1169.65 354.759 1169.65 354.761 1169.65 354.764L1171.77 356.88C1171.77 356.883 1171.77 356.886 1171.76 356.887C1171.76 356.888 1171.76 356.889 1171.76 356.889C1171.76 356.89 1171.76 356.89 1171.76 356.89C1171.76 356.891 1171.76 356.89 1171.76 356.888C1171.76 356.887 1171.77 356.885 1171.77 356.882L1169.64 354.766ZM1171.77 354.766L1172.48 355.475L1170.35 357.587L1169.64 356.878L1171.77 354.766ZM1170.35 357.595L1169.65 356.89L1171.76 354.763L1172.47 355.468L1170.35 357.595ZM1169.64 354.77C1169.64 354.768 1169.64 354.766 1169.64 354.766C1169.64 354.766 1169.64 354.766 1169.64 354.767L1171.77 356.881C1171.77 356.883 1171.77 356.884 1171.77 356.884C1171.77 356.885 1171.77 356.884 1171.77 356.884L1169.64 354.77ZM1018.38 413.158C1054.98 409.348 1121.63 402.372 1169.65 354.759L1171.76 356.889C1122.9 405.336 1055.2 412.341 1018.69 416.141L1018.38 413.158ZM1016.83 413.319C1017.34 413.266 1017.85 413.212 1018.38 413.158L1018.69 416.141C1018.16 416.196 1017.65 416.249 1017.14 416.303L1016.83 413.319ZM1015.59 415.962L1015.49 414.967L1018.47 414.656L1018.57 415.65L1015.59 415.962ZM1016.83 413.319C1016.82 413.319 1016.82 413.319 1016.83 413.319C1016.83 413.319 1016.83 413.319 1016.83 413.318L1017.14 416.303C1017.14 416.303 1017.14 416.303 1017.14 416.303C1017.14 416.303 1017.13 416.303 1017.13 416.304L1016.83 413.319ZM1016.85 413.316C1016.85 413.317 1016.85 413.317 1016.85 413.317C1016.85 413.317 1016.84 413.317 1016.85 413.317C1016.85 413.317 1016.85 413.317 1016.85 413.317C1016.85 413.316 1016.86 413.316 1016.86 413.316L1017.12 416.304C1017.12 416.304 1017.13 416.304 1017.13 416.304C1017.13 416.304 1017.13 416.304 1017.13 416.304C1017.13 416.304 1017.13 416.304 1017.12 416.304C1017.12 416.304 1017.12 416.305 1017.11 416.305L1016.85 413.316ZM1018.48 414.673L1018.58 415.669L1015.59 415.942L1015.5 414.947L1018.48 414.673ZM1306.83 227.736C1306.8 227.861 1306.77 227.983 1306.75 228.103L1303.81 227.474C1303.84 227.36 1303.86 227.244 1303.89 227.126L1306.83 227.736ZM1304.97 229.255L1303.99 229.045L1304.62 226.112L1305.6 226.322L1304.97 229.255ZM1302.82 227.774L1302.69 226.782L1305.66 226.393L1305.79 227.384L1302.82 227.774ZM1303.98 225.1C1304.08 225.087 1304.19 225.072 1304.31 225.055L1304.72 228.026C1304.6 228.044 1304.48 228.06 1304.37 228.075L1303.98 225.1ZM1302.84 227.264C1302.91 226.944 1302.98 226.607 1303.04 226.253L1305.99 226.828C1305.92 227.201 1305.84 227.556 1305.77 227.894L1302.84 227.264ZM1305.44 228.934C1305.08 228.986 1304.76 229.032 1304.5 229.066L1304.11 226.092C1304.35 226.061 1304.65 226.018 1305.02 225.964L1305.44 228.934ZM1305.57 228.916C1305.53 228.922 1305.48 228.928 1305.44 228.934L1305.02 225.964C1305.06 225.958 1305.1 225.952 1305.14 225.946L1305.57 228.916ZM1233.27 168.469C1233.18 168.956 1233.09 169.381 1233.02 169.739L1230.08 169.138C1230.15 168.788 1230.23 168.379 1230.32 167.914L1233.27 168.469ZM1231.25 170.908L1230.27 170.708L1230.87 167.768L1231.85 167.969L1231.25 170.908ZM1229.44 170.227L1228.78 169.476L1231.04 167.497L1231.69 168.249L1229.44 170.227ZM1228.92 167.359C1229.25 167.071 1229.58 166.787 1229.91 166.507L1231.84 168.804C1231.52 169.07 1231.21 169.34 1230.9 169.614L1228.92 167.359ZM1229.1 168.937C1229.19 168.508 1229.29 167.989 1229.4 167.387L1232.35 167.924C1232.24 168.556 1232.13 169.098 1232.04 169.539L1229.1 168.937ZM1232.75 169.346C1232.35 169.679 1231.95 170.019 1231.56 170.365L1229.58 168.111C1229.99 167.746 1230.41 167.389 1230.83 167.038L1232.75 169.346ZM1139.74 119.499C1139.76 119.536 1139.77 119.573 1139.78 119.61L1136.93 120.559C1136.92 120.522 1136.91 120.485 1136.9 120.448L1139.74 119.499ZM1139.78 119.61L1139.87 119.886L1137.03 120.835L1136.93 120.559L1139.78 119.61ZM1138.92 121.783L1137.98 122.1L1137.03 119.254L1137.97 118.938L1138.92 121.783ZM1136.4 121.699L1135.72 120.967L1137.92 118.923L1138.6 119.655L1136.4 121.699ZM1135.8 118.847C1135.91 118.745 1136.03 118.632 1136.17 118.51L1138.14 120.778C1138.02 120.881 1137.92 120.969 1137.84 121.043L1135.8 118.847ZM1135.99 120.888C1135.91 120.646 1135.82 120.39 1135.73 120.122L1138.58 119.167C1138.67 119.439 1138.76 119.697 1138.84 119.939L1135.99 120.888ZM1136.08 121.152L1135.99 120.888L1138.84 119.939L1138.92 120.202L1136.08 121.152ZM1139.27 121.137C1138.93 121.411 1138.68 121.626 1138.52 121.775L1136.48 119.579C1136.7 119.372 1137 119.111 1137.37 118.809L1139.27 121.137ZM1040.15 100.835C1040.27 100.958 1040.38 101.077 1040.49 101.19L1038.29 103.234C1038.2 103.132 1038.09 103.025 1037.99 102.912L1040.15 100.835ZM1040.41 103.31L1039.68 103.992L1037.63 101.795L1038.37 101.114L1040.41 103.31ZM1038.13 104.298L1037.19 103.948L1038.25 101.138L1039.18 101.489L1038.13 104.298ZM1036.32 102.017C1036.36 101.896 1036.42 101.737 1036.5 101.542L1039.28 102.659C1039.21 102.834 1039.16 102.972 1039.12 103.069L1036.32 102.017ZM1037.56 103.915C1037.35 103.69 1037.11 103.436 1036.83 103.158L1038.96 101.043C1039.25 101.343 1039.52 101.62 1039.75 101.872L1037.56 103.915ZM1040.45 102.46C1040.26 102.914 1040.13 103.242 1040.06 103.419L1037.25 102.367C1037.33 102.145 1037.48 101.777 1037.69 101.286L1040.45 102.46ZM1135.62 122.943L1135.05 121.218L1137.89 120.268L1138.47 121.993L1135.62 122.943Z" fill="#ECE1CF" mask="url(#path-5-inside-1_438_6958)"/>
<path fill-rule="evenodd" clip-rule="evenodd" d="M795.425 605.823L795.427 605.814C798.026 595.136 800.949 584.552 803.877 573.952C805.096 569.539 806.315 565.124 807.513 560.697C808.045 558.731 807.748 556.789 806.576 555.093C805.167 553.053 802.903 551.745 800.602 551.425C798.287 551.102 795.84 551.775 794.225 553.828C791.844 556.855 789.428 559.775 786.7 562.248C779.017 569.021 771.421 575.892 763.834 582.755C742.367 602.173 720.969 621.528 697.853 638.444L697.847 638.448C680.212 651.562 658.123 661.887 635.384 650.634C633.083 649.434 629.991 647.029 627.555 644.723C626.339 643.572 625.322 642.478 624.665 641.608C624.333 641.168 624.123 640.824 624.018 640.585C624.001 640.545 623.988 640.512 623.978 640.484C625.359 637.507 627.27 634.298 629.524 631.531C631.818 628.715 634.414 626.423 637.105 625.253L637.114 625.249C643.571 622.373 650.426 620.235 657.331 618.081C659.197 617.499 661.068 616.916 662.935 616.316C671.667 613.513 680.289 610.368 687.834 605.359L687.836 605.357C716.469 586.23 743.309 564.742 770.069 543.318C773.818 540.316 777.567 537.315 781.318 534.322L781.332 534.311L781.346 534.299C784.632 531.476 786.213 527.43 785.486 523.885C785.12 522.1 784.17 520.471 782.6 519.252C781.036 518.037 778.909 517.267 776.24 517.092C771.086 516.754 765.89 517.44 760.732 518.41C758.525 518.825 756.355 519.285 754.196 519.743C751.239 520.37 748.301 520.993 745.315 521.491C738.039 522.686 730.75 523.967 723.449 525.249C704.257 528.621 684.989 532.006 665.692 533.898L665.682 533.899C665.299 533.94 664.906 533.943 664.505 533.908C661.884 533.683 659.673 532.127 657.983 529.728C656.29 527.324 655.176 524.139 654.774 520.873C654.371 517.603 654.692 514.343 655.77 511.787C656.839 509.254 658.617 507.471 661.155 506.912C686.019 502.191 711.015 498.234 736.03 494.274C748.539 492.294 761.052 490.313 773.555 488.236C775.542 488.012 776.971 486.979 777.837 485.49C778.683 484.036 778.961 482.208 778.839 480.37C778.597 476.721 776.742 472.59 773.701 470.417C766.387 465.189 759.202 460.033 752.099 454.935C739.162 445.649 726.493 436.556 713.796 427.579L713.796 427.579C701.353 418.802 695.623 409.608 696.553 398.608C697.018 393.103 700.717 389.837 705.499 388.808C710.327 387.769 716.189 389.048 720.626 392.693C724.154 395.591 727.706 398.505 731.301 401.454C737.553 406.585 743.936 411.822 750.554 417.268C753.897 420.02 757.918 420.343 761.357 418.925C764.775 417.516 767.6 414.401 768.697 410.307L767.731 410.048C765.693 417.654 757.269 421.499 751.189 416.496C744.568 411.047 738.181 405.806 731.925 400.673C728.333 397.726 724.785 394.815 721.261 391.92C711.923 384.25 696.574 386.482 695.556 398.523C694.584 410.025 700.632 419.517 713.219 428.396C725.913 437.371 738.577 446.46 751.512 455.744C758.616 460.843 765.801 466 773.119 471.23C778.607 475.152 780.124 486.518 773.418 487.245C760.922 489.321 748.407 491.302 735.893 493.284C710.865 497.246 685.837 501.207 660.954 505.932C649.197 508.502 652.428 533.873 664.419 534.904C664.88 534.944 665.338 534.942 665.79 534.893C685.127 532.997 704.452 529.602 723.658 526.228C730.951 524.947 738.226 523.669 745.478 522.477C748.468 521.979 751.461 521.345 754.449 520.712C761.756 519.164 769.037 517.621 776.174 518.09C786.232 518.751 786.83 528.268 780.694 533.541C776.941 536.535 773.192 539.536 769.443 542.538C742.679 563.965 715.875 585.424 687.28 604.526C678.286 610.498 667.694 613.801 657.063 617.117C650.151 619.272 643.223 621.433 636.707 624.336C630.915 626.853 625.841 634.037 623.011 640.195C622.236 641.615 630.095 649.009 634.932 651.526C658.215 663.054 680.748 652.41 698.444 639.251C721.605 622.302 743.059 602.896 764.538 583.467C772.119 576.609 779.703 569.749 787.366 562.994C790.163 560.459 792.624 557.481 795.011 554.446C797.716 551.008 803.267 552.063 805.754 555.662C806.751 557.106 807.006 558.742 806.547 560.436C805.353 564.852 804.135 569.261 802.918 573.67C799.988 584.277 797.058 594.884 794.455 605.578C787.601 632.627 799.737 657.849 828.167 678.079C844.066 689.255 877.824 688.13 894.848 676.01C904.634 668.868 915.969 632.442 910.495 622.024C908.37 618.2 903.105 614.348 899.229 614.123C896.087 614.095 890.889 618.805 889.036 622.784C881.419 639.458 863.864 650.621 847.768 647.528C830.936 644.239 815.275 623.362 815.812 605.198C817.011 571.344 847.245 548.118 880.071 554.88C924.119 563.834 954.119 610.523 957.31 650.028C959.699 680.775 937.313 696.746 915.029 712.338C903.351 720.616 891.067 720.029 878.729 719.439C872.585 719.145 866.428 718.851 860.325 719.65C851.184 721.08 845.395 733.839 851.951 740.368C852.273 740.688 852.608 740.991 852.957 741.273C855.15 743.091 857.325 744.977 859.506 746.867C874.62 759.967 890.011 773.307 913.519 766.451C916.496 765.621 922.231 769.192 923.723 772.439C925.214 775.687 923.688 781.381 921.671 784.502C918.24 789.913 914.446 795.141 910.656 800.363C906.164 806.552 901.678 812.733 897.81 819.2C891.454 829.702 900.074 873.917 910.075 880.665C914.442 883.462 922.787 886.105 926.539 883.856C955.942 868.137 976.814 846.065 973.662 804.942C973.563 803.794 973.582 802.642 973.69 801.487C974.513 792.688 986.244 787.651 993.46 792.753C1017.2 808.47 1042.86 809.651 1069.88 804.279C1072.76 803.83 1076.75 799.204 1076.63 796.73C1076.44 793.018 1073.42 788.14 1070.32 786.495C1047.07 773.351 1032.94 754.104 1020.6 729.642C1000.54 688.464 1014.95 662.624 1047.2 636.277C1076.43 612.376 1108.99 611.335 1142.82 626.096C1163.57 635.318 1165.91 653.032 1167.68 671.407C1169.48 688.165 1157.84 699.286 1145.08 707.258C1129.4 717.296 1112.73 714.864 1099.24 703.519C1093.81 698.809 1091.48 688.42 1090.47 680.421C1090.09 677.598 1090.48 674.332 1090.87 671.12C1091.82 663.28 1092.73 655.764 1082.11 655.804C1074.63 655.832 1063.31 668.668 1060.77 678.158C1053.32 703.014 1061.93 725.255 1079.23 735.588C1106.01 751.713 1134.59 750.826 1155 736.359C1178.32 719.826 1189.66 698.048 1190.91 669.902C1191.05 667.906 1191.93 666.106 1192.8 664.307L1191.9 663.869L1191.87 663.944C1191.01 665.692 1190.07 667.641 1189.91 669.832L1189.91 669.845L1189.91 669.858C1188.68 697.707 1177.48 719.195 1154.42 735.544C1134.38 749.748 1106.24 750.682 1079.75 734.731L1079.75 734.729C1062.9 724.667 1054.39 702.934 1061.73 678.445L1061.73 678.431L1061.74 678.417C1062.95 673.877 1066.31 668.435 1070.32 664.113C1072.32 661.96 1074.45 660.118 1076.51 658.82C1078.59 657.512 1080.51 656.81 1082.12 656.804C1085.71 656.79 1087.69 657.677 1088.8 658.926C1089.94 660.2 1090.38 662.066 1090.41 664.458C1090.43 666.458 1090.16 668.666 1089.88 670.981C1089.83 671.434 1089.77 671.891 1089.72 672.352C1089.39 675.112 1089.13 677.983 1089.48 680.551C1089.99 684.584 1090.83 689.249 1092.25 693.518C1093.66 697.767 1095.67 701.745 1098.59 704.274L1098.59 704.279L1098.6 704.284C1112.38 715.874 1129.52 718.403 1145.61 708.103C1158.43 700.097 1170.54 688.676 1168.67 671.305C1167.79 662.137 1166.75 652.964 1163.28 644.923C1159.79 636.823 1153.84 629.899 1143.22 625.182L1143.22 625.179C1126.19 617.749 1109.42 614.271 1093.2 615.692C1076.96 617.114 1061.32 623.435 1046.56 635.502C1030.39 648.714 1018.55 661.906 1013.34 677.073C1008.1 692.289 1009.59 709.323 1019.71 730.08L1019.71 730.093C1032.1 754.644 1046.34 774.085 1069.82 787.366L1069.84 787.372L1069.85 787.379C1071.19 788.089 1072.6 789.562 1073.72 791.363C1074.82 793.16 1075.55 795.144 1075.63 796.78C1075.65 797.145 1075.51 797.714 1075.14 798.436C1074.78 799.137 1074.26 799.892 1073.63 800.602C1073 801.312 1072.3 801.952 1071.6 802.435C1070.89 802.925 1070.24 803.211 1069.73 803.292L1069.71 803.295L1069.69 803.299C1042.82 808.639 1017.46 807.44 994.025 791.928C990.072 789.14 984.956 789.164 980.777 790.991C976.592 792.821 973.147 796.548 972.694 801.394C972.581 802.597 972.561 803.808 972.665 805.022C974.225 825.385 969.837 840.953 961.479 853.367C953.106 865.803 940.693 875.155 926.067 882.974L926.046 882.986L926.024 882.998C925.292 883.437 924.262 883.677 922.98 883.7C921.708 883.723 920.262 883.531 918.767 883.18C915.773 882.476 912.706 881.161 910.624 879.829C909.542 879.096 908.405 877.801 907.262 875.984C906.123 874.175 905.017 871.911 903.973 869.318C901.887 864.132 900.086 857.707 898.79 851.146C897.493 844.586 896.708 837.926 896.639 832.273C896.604 829.446 896.748 826.891 897.09 824.736C897.434 822.567 897.967 820.872 898.666 819.718L898.669 819.713C902.208 813.794 906.275 808.109 910.413 802.401C910.764 801.916 911.116 801.431 911.468 800.946C915.253 795.731 919.065 790.479 922.513 785.043C923.596 783.365 924.524 781.042 924.993 778.716C925.456 776.416 925.507 773.929 924.631 772.022C923.768 770.142 921.772 768.306 919.692 767.059C918.636 766.425 917.509 765.913 916.424 765.615C915.354 765.322 914.237 765.212 913.25 765.487L913.239 765.491C900.098 769.323 889.584 766.709 880.167 761.344C873.078 757.305 866.669 751.75 860.223 746.164C858.028 744.261 855.828 742.354 853.596 740.503L853.585 740.494C853.265 740.236 852.956 739.957 852.657 739.66C849.757 736.772 849.506 732.427 851.173 728.487C852.839 724.547 856.319 721.294 860.467 720.64C864.969 720.051 869.519 720.066 874.12 720.236C875.621 720.292 877.133 720.364 878.65 720.436C881.761 720.585 884.895 720.735 887.999 720.742C897.287 720.765 906.615 719.527 915.604 713.157C915.603 713.157 915.603 713.157 915.602 713.157M1313.31 815.395C1302.15 821.764 1289.08 823.549 1277.95 813.652C1252.54 790.976 1233.02 765.403 1225.2 729.947C1221.52 713.2 1214.54 697.515 1207.39 681.442C1205.14 676.381 1202.87 671.282 1200.68 666.098C1199.34 662.928 1194.67 661.416 1192.8 664.307L1191.96 663.764C1193.2 661.851 1195.34 661.475 1197.19 661.963C1199.03 662.446 1200.8 663.808 1201.6 665.709C1203.77 670.851 1206.03 675.924 1208.27 680.969C1215.44 697.063 1222.47 712.876 1226.18 729.731C1233.94 764.914 1253.3 790.313 1278.62 812.905C1289.3 822.411 1301.87 820.774 1312.81 814.526L1312.82 814.522L1312.83 814.517C1315.69 812.954 1317.36 811.171 1318.23 809.363C1319.1 807.558 1319.22 805.636 1318.81 803.71C1317.98 799.806 1315 795.991 1312.03 793.627L1312.02 793.618L1312.01 793.609C1277.74 764.77 1261.24 725.963 1247.56 684.432C1247.26 683.546 1246.95 682.661 1246.65 681.775C1243.75 673.412 1246.58 665.942 1252.09 661.796C1257.59 657.656 1265.66 656.901 1273.08 661.692C1275.76 663.423 1278.4 665.197 1280.99 667.027C1288.34 672.067 1295.24 677.694 1302.03 683.38C1303.2 684.36 1304.37 685.342 1305.54 686.323C1311.15 691.041 1316.74 695.737 1322.54 700.144C1327.72 704.077 1332.94 705.166 1337.96 704.344C1343 703.518 1347.93 700.747 1352.46 696.79C1352.79 696.426 1353.14 695.64 1353.38 694.441C1353.63 693.261 1353.74 691.841 1353.72 690.416C1353.7 688.991 1353.54 687.602 1353.27 686.481C1353.13 685.921 1352.97 685.45 1352.79 685.084C1352.61 684.709 1352.44 684.499 1352.32 684.398L1352.31 684.392L1352.3 684.386C1334.17 669.149 1315.64 654.537 1297.06 639.879C1291.62 635.59 1286.17 631.297 1280.73 626.983C1277.81 624.792 1274.75 622.762 1271.66 620.713L1271.65 620.705C1268.57 618.663 1265.46 616.602 1262.49 614.373C1259.29 612.079 1258.19 608.074 1258.7 604.428C1259.22 600.779 1261.38 597.212 1265.06 595.831C1265.59 595.633 1266.13 595.46 1266.67 595.32L1266.71 595.311L1266.74 595.305C1275.05 593.775 1283.5 592.674 1291.92 591.577C1294.02 591.304 1296.12 591.03 1298.22 590.75C1308.72 589.347 1319.13 587.781 1329.21 585.223L1329.21 585.222C1340.8 582.338 1351.75 574.851 1361.64 567.33C1363.41 565.984 1365.2 563.221 1366.38 560.217C1366.97 558.734 1367.39 557.237 1367.59 555.89C1367.79 554.546 1367.76 553.429 1367.51 552.636C1367.17 551.818 1366.49 550.947 1365.5 550.09C1364.51 549.228 1363.26 548.423 1361.89 547.738C1359.13 546.361 1356 545.542 1353.64 545.646C1347.28 546.155 1340.89 547.461 1334.42 548.877C1333.61 549.053 1332.8 549.231 1331.99 549.41C1326.32 550.66 1320.58 551.924 1314.82 552.712L1314.81 552.712C1312.27 553.045 1309.65 553.011 1306.81 552.815C1305.11 552.698 1303.77 552.187 1302.76 551.296C1301.76 550.41 1301.19 549.23 1300.87 547.946C1300.25 545.444 1300.56 542.247 1300.87 539.249C1300.99 537.507 1301.02 535.754 1300.98 533.993C1300.88 529.341 1298.12 524.265 1294.38 521.076C1290.63 517.878 1286.28 516.842 1282.82 519.415L1282.22 518.613L1282.8 519.428C1257.47 537.429 1231.17 553.05 1199.46 559.676C1192.93 561.041 1187.61 554.332 1190.46 548.286L1190.53 548.131C1190.55 548.084 1190.57 548.041 1190.59 547.984C1190.6 547.966 1190.61 547.946 1190.62 547.924C1190.65 547.846 1190.7 547.733 1190.77 547.617C1190.92 547.35 1191.15 547.089 1191.51 546.898C1192.11 546.584 1192.65 545.952 1193.28 545.223C1193.32 545.182 1193.35 545.141 1193.39 545.1C1198.2 539.546 1201.35 533.076 1201.93 527.114C1202.49 521.208 1200.54 515.804 1195.08 512.114C1193.66 511.226 1191.55 510.889 1188.89 511.09C1186.25 511.291 1183.19 512.013 1180.02 513.091C1173.67 515.249 1167 518.781 1162.43 522.148L1162.42 522.151C1157.68 525.612 1153.96 530.472 1150.43 535.805C1149.32 537.468 1148.23 539.185 1147.14 540.915C1144.75 544.681 1142.32 548.512 1139.62 551.999L1139.61 552.004C1130.5 563.624 1118.91 570.313 1106.61 575.363C1100.58 577.836 1094.37 579.924 1088.19 581.999L1087.82 582.122C1081.51 584.242 1075.24 586.357 1069.19 588.879L1069.18 588.884C1067.28 589.648 1065.37 590.36 1063.45 591.038C1057.03 593.301 1050.14 591.916 1045.53 588.381C1040.88 584.815 1038.51 578.994 1041.4 572.615C1046.71 560.923 1057.49 553.342 1072.7 549.452C1073.46 549.247 1074.2 548.985 1074.95 548.674C1079.77 546.655 1083.11 541.823 1084.38 536.342C1085.64 530.862 1084.77 524.954 1081.44 520.886C1080.31 519.506 1079.33 518.839 1078.48 518.742C1072.36 518.345 1067.78 516.822 1064.3 514.457C1060.81 512.086 1058.5 508.921 1056.83 505.369C1055.17 501.834 1054.13 497.886 1053.2 493.933C1053.02 493.155 1052.84 492.377 1052.66 491.602C1051.93 488.406 1051.2 485.246 1050.21 482.237L1050.21 482.229L1050.21 482.221C1049.43 479.729 1048.47 477.303 1047.38 474.916C1042.47 464.168 1027.74 461.44 1018.53 469.06C1014.82 472.121 1011.19 475.264 1007.68 478.55L1007.66 478.563L1007.65 478.576C1006.9 479.228 1006.3 480.133 1005.77 481.241C1005.24 482.352 1004.81 483.599 1004.36 484.914L1004.35 484.943C1003.91 486.227 1003.44 487.577 1002.86 488.801C1002.27 490.038 1001.52 491.213 1000.48 492.115L1000.47 492.121L1000.47 492.127C998.35 493.894 994.981 495.909 991.85 497.256C990.285 497.93 988.732 498.457 987.393 498.693C986.723 498.81 986.071 498.861 985.478 498.804C984.89 498.747 984.288 498.577 983.801 498.183L983.799 498.182C977.458 493.041 972.13 491.876 967.048 492.885C963.77 493.535 961.495 495.229 960.023 497.55C958.535 499.896 957.832 502.944 957.849 506.312C957.883 513.066 960.814 520.814 965.496 525.991C974.265 535.689 979.475 546.821 979.71 560.109C979.843 567.608 975.228 572.474 969.283 574.126C963.386 575.765 956.168 574.263 950.853 569.194C922.443 542.098 897.842 513.995 893.802 470.633L893.802 470.632C893.019 462.082 889.258 453.083 884.521 446.21C881.59 442.266 876.072 441.524 870.787 443.247C865.504 444.969 860.946 449.014 860.024 453.973C859.87 454.804 859.799 455.611 859.824 456.394L858.825 456.426L859.825 456.433C859.771 464.056 856.789 470.236 852.161 473.201C847.445 476.222 841.328 475.718 835.542 470.57C820.847 457.495 809.292 441.799 801.254 422.925C800.238 420.55 799.381 417.925 798.537 415.338C798.065 413.891 797.597 412.455 797.107 411.083C795.711 407.172 794.102 403.64 791.642 401.066L791.636 401.059C791.033 400.417 790.348 399.831 789.592 399.292C785.8 396.584 781.133 396.873 777.069 399.119C772.993 401.371 769.675 405.523 768.711 410.248L767.731 410.048C769.788 399.972 781.804 392.502 790.173 398.478C790.975 399.05 791.711 399.678 792.365 400.375C795.928 404.103 797.729 409.629 799.511 415.098C800.343 417.651 801.172 420.191 802.173 422.531C810.152 441.267 821.618 456.842 836.207 469.823C847.259 479.656 858.721 471.219 858.825 456.426C858.797 455.56 858.876 454.681 859.041 453.79C861.062 442.913 878.752 436.736 885.335 445.628C890.154 452.615 893.996 461.782 894.798 470.54C898.802 513.518 923.163 541.402 951.543 568.47C961.665 578.124 978.958 574.111 978.71 560.127C978.48 547.12 973.39 536.212 964.754 526.662C955.056 515.939 952.672 494.718 966.854 491.904C972.285 490.826 977.907 492.118 984.429 497.405C986.694 499.232 995.768 494.747 999.825 491.359C1001.62 489.806 1002.51 487.198 1003.41 484.59C1004.31 481.982 1005.2 479.374 1007 477.82C1010.52 474.516 1014.18 471.359 1017.89 468.289C1027.55 460.296 1043.08 463.091 1048.29 474.501C1049.39 476.918 1050.37 479.384 1051.16 481.924C1052.17 484.981 1052.91 488.198 1053.64 491.398C1056.55 504.081 1059.41 516.511 1078.56 517.746C1079.83 517.878 1081.04 518.815 1082.22 520.253C1089.35 528.984 1085.73 545.243 1075.33 549.596C1074.55 549.923 1073.76 550.201 1072.96 550.419C1057.93 554.26 1047.46 561.694 1042.31 573.029C1036.97 584.8 1050.92 594.393 1063.11 590.095C1065.02 589.421 1066.92 588.714 1068.8 587.956C1075.01 585.371 1081.43 583.213 1087.86 581.055C1106.66 574.741 1125.46 568.425 1138.82 551.387C1141.5 547.937 1143.88 544.174 1146.26 540.429C1150.85 533.204 1155.39 526.047 1161.83 521.343C1171.15 514.482 1188.89 507.031 1195.63 511.276C1207.25 519.122 1203.95 534.426 1194.15 545.754C1194.1 545.809 1194.05 545.865 1194 545.922C1193.42 546.603 1192.75 547.377 1191.97 547.784C1191.71 547.923 1191.62 548.121 1191.52 548.368C1191.49 548.429 1191.46 548.493 1191.43 548.56L1191.36 548.712C1188.87 554.009 1193.53 559.894 1199.26 558.697C1230.76 552.114 1256.93 536.587 1282.22 518.613C1290.23 512.655 1301.77 523.991 1301.98 533.973C1302.02 535.763 1301.99 537.552 1301.86 539.335C1301.24 545.441 1300.76 551.395 1306.88 551.817C1309.69 552.011 1312.23 552.041 1314.68 551.721C1320.4 550.939 1326.1 549.684 1331.77 548.434C1339.07 546.826 1346.34 545.226 1353.58 544.648C1358.76 544.409 1366.8 548.191 1368.45 552.296C1369.74 556.303 1366.2 565.118 1362.24 568.126C1352.35 575.648 1341.26 583.254 1329.46 586.193C1317.29 589.28 1304.66 590.925 1292.04 592.571C1283.62 593.667 1275.2 594.764 1266.92 596.288C1266.41 596.419 1265.91 596.58 1265.41 596.767C1258.92 599.207 1257.44 609.528 1263.08 613.567C1266.03 615.781 1269.12 617.83 1272.21 619.879C1275.3 621.928 1278.39 623.977 1281.34 626.191C1286.78 630.504 1292.23 634.798 1297.67 639.088C1316.26 653.748 1334.8 668.373 1352.94 683.62C1355.21 685.448 1355.34 695.247 1353.16 697.51C1343.9 705.608 1332.73 709.123 1321.93 700.941C1316.11 696.518 1310.5 691.803 1304.89 687.084C1296.94 680.406 1288.99 673.721 1280.42 667.848C1277.84 666.025 1275.21 664.258 1272.53 662.532C1258.39 653.394 1242.08 665.533 1247.59 681.448C1247.9 682.337 1248.2 683.225 1248.5 684.114C1262.18 725.616 1278.61 764.193 1312.66 792.844C1318.82 797.751 1325.3 808.843 1313.31 815.395ZM915.604 713.157C937.799 697.627 960.746 681.344 958.307 649.951L958.307 649.948C956.695 629.992 948.321 608.265 934.809 590.394C921.296 572.522 902.59 558.438 880.273 553.9C846.85 547.016 816.034 570.68 814.813 605.162L814.813 605.168C814.536 614.531 818.425 624.508 824.478 632.543C830.527 640.572 838.845 646.803 847.576 648.51L847.579 648.51C864.242 651.712 882.189 640.177 889.945 623.2C890.799 621.371 892.46 619.309 894.305 617.706C895.223 616.908 896.161 616.247 897.034 615.792C897.909 615.335 898.646 615.124 899.197 615.123C900.867 615.228 902.959 616.131 904.939 617.539C906.913 618.942 908.641 620.752 909.615 622.5C910.836 624.833 911.182 628.806 910.74 633.761C910.301 638.67 909.108 644.355 907.436 649.96C905.764 655.563 903.622 661.052 901.302 665.57C898.963 670.123 896.509 673.559 894.262 675.2C885.963 681.105 873.485 684.386 861.054 684.781C848.61 685.177 836.445 682.675 828.744 677.262C800.531 657.185 788.704 632.345 795.425 605.823" fill="#ECE1CF"/>
<path d="M223 450L368.568 160.086L720 40L1071.43 160.086L1217 450L1071.43 739.914L720 860L368.568 739.914L223 450Z" fill="#ECE1CF"/>
<path fill-rule="evenodd" clip-rule="evenodd" d="M456.37 615.545C435.816 620.701 414.395 611.822 403.509 593.642C395.604 580.441 388.731 566.525 383 552C377.615 565.648 371.223 578.757 363.913 591.242C352.84 610.154 330.461 619.119 309.394 613.077C293.827 608.612 278.559 602.787 263.767 595.605L257.842 592.728L260.716 598.659C267.482 612.62 273.043 627.005 277.396 641.665C283.835 663.353 274.267 686.464 254.379 697.247C240.95 704.528 226.862 710.76 212.222 715.841L206 718L212.222 720.159C227.772 725.556 242.699 732.251 256.874 740.122C276.013 750.749 285.486 772.884 279.966 794.069C276.313 808.088 271.567 821.9 265.726 835.378C280.034 829.166 294.719 824.192 309.629 820.452C330.182 815.297 351.603 824.175 362.49 842.355C370.395 855.557 377.269 869.474 383 884C388.385 870.352 394.778 857.241 402.088 844.756C413.162 825.843 435.541 816.879 456.607 822.921C472.173 827.386 487.441 833.211 502.232 840.393L508.157 843.27L505.283 837.339C498.517 823.378 492.956 808.994 488.604 794.335C482.164 772.647 491.732 749.537 511.621 738.753C525.049 731.472 539.137 725.24 553.778 720.159L560 718L553.778 715.841C538.227 710.444 523.3 703.748 509.125 695.877C489.986 685.25 480.513 663.115 486.033 641.931C489.686 627.911 494.432 614.098 500.273 600.619C485.965 606.831 471.28 611.806 456.37 615.545Z" fill="#101010"/>
<path fill-rule="evenodd" clip-rule="evenodd" d="M383 552C382.822 552.452 382.642 552.904 382.462 553.355C377.191 566.515 370.98 579.171 363.913 591.242C352.84 610.154 330.461 619.119 309.394 613.077C293.827 608.612 278.559 602.787 263.767 595.605L257.842 592.728L260.716 598.659C267.482 612.62 273.043 627.005 277.396 641.665C283.835 663.353 274.267 686.464 254.379 697.247C240.95 704.528 226.862 710.76 212.222 715.841L206 718L212.222 720.159C227.772 725.556 242.699 732.251 256.874 740.122C276.013 750.749 285.486 772.884 279.966 794.069C276.433 807.625 271.88 820.987 266.301 834.04C266.111 834.487 265.919 834.933 265.726 835.378C266.171 835.185 266.617 834.993 267.063 834.802C280.949 828.858 295.183 824.075 309.629 820.452C330.182 815.297 351.603 824.175 362.49 842.355C370.149 855.146 376.84 868.608 382.462 882.645C382.642 883.096 382.822 883.548 383 884C383.178 883.548 383.358 883.096 383.538 882.645C388.81 869.484 395.02 856.828 402.088 844.756C413.162 825.843 435.541 816.879 456.607 822.921C472.173 827.386 487.441 833.211 502.232 840.393L508.157 843.27L505.283 837.339C498.517 823.378 492.956 808.994 488.604 794.335C482.164 772.647 491.732 749.537 511.621 738.753C525.049 731.472 539.137 725.24 553.778 720.159L560 718L553.778 715.841C538.227 710.444 523.3 703.748 509.125 695.877C489.986 685.25 480.513 663.115 486.033 641.931C489.565 628.374 494.119 615.011 499.698 601.957C499.888 601.511 500.08 601.065 500.273 600.619C499.828 600.812 499.382 601.005 498.936 601.196C485.05 607.14 470.815 611.922 456.37 615.545C435.816 620.701 414.395 611.822 403.509 593.642C395.85 580.852 389.16 567.391 383.538 553.355C383.358 552.904 383.178 552.452 383 552ZM383 554.695C377.795 567.554 371.695 579.93 364.776 591.747C353.472 611.054 330.624 620.206 309.119 614.038C293.497 609.557 278.174 603.712 263.33 596.504L259.999 594.887L261.616 598.223C268.406 612.233 273.987 626.669 278.355 641.381C284.929 663.522 275.16 687.117 254.855 698.126C241.38 705.432 227.242 711.687 212.55 716.785L209.05 718L212.55 719.215C228.155 724.63 243.134 731.349 257.359 739.248C276.897 750.097 286.569 772.695 280.933 794.321C277.475 807.593 273.041 820.679 267.629 833.474C281.259 827.698 295.221 823.035 309.385 819.482C330.366 814.22 352.235 823.283 363.348 841.841C370.858 854.383 377.44 867.568 383 881.305C388.205 868.445 394.306 856.068 401.226 844.251C412.53 824.944 435.377 815.791 456.883 821.96C472.504 826.441 487.825 832.286 502.669 839.493L506 841.11L504.383 837.775C497.594 823.765 492.013 809.331 487.645 794.62C481.071 772.479 490.84 748.883 511.144 737.874C524.62 730.568 538.758 724.313 553.45 719.215L556.95 718L553.45 716.785C537.845 711.37 522.865 704.65 508.639 696.751C489.101 685.902 479.43 663.304 485.065 641.678C488.523 628.406 492.958 615.319 498.37 602.524C484.74 608.3 470.777 612.963 456.613 616.515C435.632 621.778 413.763 612.714 402.651 594.156C395.141 581.615 388.56 568.431 383 554.695Z" fill="#ECE1CF"/>
</svg>
