<svg width="309" height="316" viewBox="0 0 309 316" fill="none" xmlns="http://www.w3.org/2000/svg">
<path d="M83.7952 141.592C85.1873 149.883 88.0433 156.869 90.914 162.164C84.8152 163.462 68.1305 168.333 56.6084 184.587C55.553 186.013 51.5511 191.915 48.8237 200.441C46.0886 208.991 44.6196 220.234 48.7519 232.247L48.7528 232.25C53.1699 244.981 61.584 252.516 65.9728 255.678L66.8211 256.29L67.3938 255.415C69.512 252.181 73.3077 247.437 78.1755 242.31L78.1834 242.302C88.5652 231.109 94.9105 224.761 103.914 223.143C109.99 222.144 115.715 223.739 120.343 225.966C124.971 228.192 128.432 231.016 129.936 232.362L129.943 232.368C141.772 242.775 145.353 259.843 142.831 272.782C140.177 285.59 130.868 296 118.871 303.244C106.878 310.485 92.3138 314.485 79.3885 314.528C45.1121 314.568 18.4484 286.741 7.793 261.44L7.79224 261.438C-5.93298 229.024 4.94608 196.476 15.8579 164.082C22.0263 145.788 27.9446 135.244 33.4798 125.434L33.6123 125.199C39.1146 115.448 44.2531 106.341 48.8149 91.0877C59.2345 56.6962 56.2773 25.1247 52.1512 3.49406C65.231 18.2619 85.4429 36.7899 114.19 47.8544C134.624 55.7749 149.542 56.0953 164.661 56.0129C165.501 56.0084 166.34 56.0025 167.182 55.9967C181.457 55.8981 196.177 55.7964 216.322 61.648C216.427 61.6798 216.541 61.7141 216.662 61.7509C221.846 63.3188 241.914 69.389 261.936 81.3876C282.466 93.6902 302.727 112.092 307.087 138.059C309.864 154.728 306.021 174.149 297.276 190.284C288.528 206.424 274.963 219.123 258.42 222.591L258.414 222.592C246.618 225.135 232.439 223.178 220.715 217.726C208.975 212.268 199.909 203.417 197.963 192.333C196.7 184.991 198.628 177.115 202.602 170.019C206.575 162.926 212.552 156.687 219.257 152.637L219.269 152.63C232.385 144.454 246.068 145.903 250.205 146.697L251.44 146.934L251.392 145.677C251.19 140.358 249.878 129.432 242.402 119.484C234.584 108.943 223.751 104.236 214.635 102.205C205.605 100.192 198.175 100.783 196.817 100.977C179.517 102.461 168.108 112.302 163.622 116.879C160.631 111.845 155.466 104.547 147.378 98.7179C126.696 83.632 103.081 88.1652 98.302 89.1671L97.9303 89.2451L97.7041 89.5501C93.6671 94.9948 79.8126 115.221 83.7926 141.576L83.7938 141.584L83.7952 141.592Z" fill="#101010" stroke="#ECE1CF" stroke-width="2"/>
</svg>
