<svg width="310" height="317" viewBox="0 0 310 317" fill="none" xmlns="http://www.w3.org/2000/svg">
<path d="M84.1692 142.139C85.5613 150.43 88.4173 157.416 91.288 162.71C85.1892 164.009 68.5045 168.88 56.9825 185.134C55.9271 186.559 51.9252 192.461 49.1977 200.988C46.4626 209.538 44.9936 220.781 49.1259 232.794L49.1268 232.797C53.544 245.528 61.958 253.062 66.3469 256.225L67.1951 256.836L67.7678 255.962C69.886 252.727 73.6817 247.984 78.5495 242.857L78.5574 242.848C88.9393 231.656 95.2845 225.307 104.288 223.69C110.364 222.69 116.089 224.286 120.717 226.512C125.345 228.738 128.806 231.562 130.31 232.909L130.317 232.915C142.146 243.322 145.727 260.39 143.205 273.329C140.551 286.137 131.242 296.547 119.246 303.79C107.252 311.032 92.6878 315.032 79.7626 315.074C45.4861 315.115 18.8224 287.288 8.16702 261.986L8.16626 261.985C-5.55896 229.571 5.3201 197.023 16.232 164.629C22.4003 146.335 28.3186 135.79 33.8539 125.98L33.9863 125.746C39.4886 115.994 44.6271 106.888 49.189 91.6345C59.6085 57.243 56.6513 25.6715 52.5252 4.0408C65.605 18.8087 85.8169 37.3366 114.564 48.4012C134.998 56.3216 149.916 56.642 165.035 56.5597C165.875 56.5551 166.714 56.5493 167.556 56.5435C181.831 56.4448 196.551 56.3431 216.696 62.1947C216.801 62.2265 216.915 62.2608 217.036 62.2976C222.22 63.8655 242.288 69.9358 262.31 81.9343C282.84 94.237 303.101 112.639 307.461 138.606C310.238 155.275 306.396 174.696 297.65 190.831C288.902 206.971 275.337 219.67 258.794 223.138L258.788 223.139C246.992 225.682 232.813 223.725 221.089 218.273C209.349 212.814 200.283 203.964 198.337 192.879C197.074 185.538 199.002 177.662 202.976 170.566C206.949 163.473 212.926 157.234 219.631 153.184L219.643 153.177C232.759 145.001 246.442 146.45 250.579 147.244L251.814 147.481L251.766 146.224C251.564 140.904 250.252 129.979 242.776 120.031C234.958 109.49 224.125 104.783 215.009 102.751C205.979 100.739 198.549 101.33 197.191 101.523C179.891 103.008 168.482 112.849 163.996 117.426C161.005 112.392 155.84 105.094 147.752 99.2646C127.07 84.1787 103.455 88.712 98.676 89.7139L98.3043 89.7918L98.0781 90.0969C94.0411 95.5415 80.1866 115.768 84.1666 142.123L84.1679 142.131L84.1692 142.139Z" fill="#75A9C9" stroke="#75A9C9" stroke-width="2"/>
</svg>
