<svg width="711" height="220" viewBox="0 0 711 220" fill="none" xmlns="http://www.w3.org/2000/svg">
<rect x="0.617188" width="710" height="220" rx="110" fill="#D75014"/>
<path d="M174.621 116.188H192.477V108.508H177.021L180.861 95.932H194.013V88.252H183.357L190.077 66.748H182.685L175.869 88.252H162.525L169.341 66.748H161.853L155.133 88.252H136.413V95.932H152.637L148.797 108.508H134.877V116.188H146.397L139.773 137.5H147.261L153.789 116.188H167.133L160.509 137.5H168.093L174.621 116.188ZM173.373 95.932L169.533 108.508H156.189L160.029 95.932H173.373ZM201.245 155.26H211.325V137.5H255.869V155.26H265.949V128.572H257.789V68.188H218.717V77.116C218.717 93.34 217.853 104.572 215.549 112.252C214.493 116.092 213.437 119.068 212.381 121.18C211.325 123.292 209.981 125.788 208.157 128.572H201.245V155.26ZM219.389 128.572C221.021 125.692 222.269 123.196 223.133 121.18C223.997 119.164 224.957 116.188 226.013 112.348C228.029 104.572 228.893 93.34 228.893 77.116H247.613V128.572H219.389ZM338.478 102.844C338.478 92.092 335.598 83.452 329.742 76.828C323.982 70.204 316.11 66.844 306.03 66.844C295.95 66.844 288.078 70.108 282.222 76.732C276.462 83.356 273.582 91.996 273.582 102.844C273.582 113.692 276.462 122.332 282.222 128.956C288.078 135.58 295.95 138.844 306.03 138.844C316.11 138.844 323.982 135.58 329.742 128.956C335.598 122.332 338.478 113.692 338.478 102.844ZM322.254 122.524C318.51 127.42 313.038 129.916 306.03 129.916C299.022 129.916 293.55 127.42 289.71 122.524C285.966 117.532 284.046 111.004 284.046 102.844C284.046 94.684 285.966 88.156 289.71 83.26C293.55 78.268 299.022 75.772 306.03 75.772C313.038 75.772 318.51 78.268 322.254 83.26C326.094 88.156 328.014 94.684 328.014 102.844C328.014 111.004 326.094 117.532 322.254 122.524ZM359.201 104.476H374.273C383.105 104.476 387.617 109.948 387.617 116.572C387.617 119.74 386.369 122.524 383.873 124.924C381.377 127.324 378.209 128.572 374.273 128.572H359.201V104.476ZM391.553 68.188H349.025V137.5H374.849C381.665 137.5 387.233 135.58 391.457 131.74C395.777 127.9 397.889 122.908 397.889 116.668C397.889 110.332 395.777 105.244 391.649 101.404C387.521 97.468 381.857 95.548 374.849 95.548H359.201V77.116H391.553V68.188ZM430.469 113.5C447.365 113.5 457.253 104.956 457.253 90.652C457.253 76.444 447.653 68.188 430.373 68.188H407.525V137.5H417.701V113.5H430.469ZM417.701 77.116H430.949C441.413 77.116 446.597 81.436 446.597 90.172C446.597 98.332 441.701 104.572 430.949 104.572H417.701V77.116ZM514.968 137.5L489.24 68.188H479.16L453.432 137.5H463.032L469.08 120.796H498.072L504.12 137.5H514.968ZM494.808 111.868H472.248L483.48 80.956L494.808 111.868ZM524.846 88.444C524.846 97.564 529.55 104.572 538.382 106.876C534.062 109.564 531.47 114.076 530.606 120.412C529.55 127.612 527.438 130.012 523.886 130.012C522.638 130.012 521.486 129.724 520.238 129.052L518.798 136.252C521.198 137.98 523.886 138.844 526.766 138.844C534.542 138.844 537.806 135.196 539.822 126.076L540.686 121.66L541.454 117.628C541.646 116.86 542.03 115.9 542.51 114.652C543.95 111.292 546.062 110.62 551.054 110.236H564.398V137.5H574.574V68.188H549.806C533.198 68.188 524.846 74.908 524.846 88.444ZM564.398 101.308H549.71C539.054 101.308 535.022 95.932 535.022 88.732C535.022 80.956 539.918 77.116 549.71 77.116H564.398V101.308Z" fill="#ECE1CF"/>
</svg>
