<svg width="422" height="238" viewBox="0 0 422 238" fill="none" xmlns="http://www.w3.org/2000/svg">
<path d="M1.48218 144.545C1.2122 144.41 0.942251 144.274 0.672324 144.138C9.66843 159.9 30.5285 191.6 70.2449 214.183C119.492 242.247 166.998 238.054 185.95 236.321M1.48218 144.545C1.32892 144.279 1.17891 144.017 1.03211 143.759C60.3114 173.665 120.461 176.684 155.443 147.18C171.932 132.856 193.06 100.866 183.234 78.7032C177.308 66.256 161.66 57.7263 157.743 55.7268C146.285 49.8773 135.931 48.3679 129.274 47.8347C129.305 47.6769 129.339 47.5123 129.376 47.3414M1.48218 144.545C10.6545 160.478 31.4282 191.537 70.4921 213.748L70.4925 213.748C119.595 241.73 166.965 237.555 185.901 235.824M1.48218 144.545C60.6079 174.167 120.684 177.149 155.766 147.563L155.771 147.558C164.064 140.353 173.511 128.721 179.656 116.1C185.794 103.495 188.694 89.7849 183.691 78.5006L183.686 78.4882L183.686 78.4883C180.673 72.1606 175.207 66.8584 170.039 62.9002C164.863 58.9365 159.943 56.2886 157.97 55.2815C146.468 49.4097 136.073 47.8819 129.376 47.3414M129.376 47.3414C129.206 47.3276 129.039 47.3145 128.873 47.302C130.007 42.0319 133.994 30.6307 144.647 21.2099C148.504 17.6195 160.034 7.91131 176.211 9.27513M129.376 47.3414C130.512 42.1177 134.47 30.8778 144.978 21.5845L144.988 21.576C148.822 18.0062 160.213 8.42929 176.167 9.77317M176.211 9.27513C188.62 10.4715 197.402 17.8547 200.393 20.9101C200.357 21.001 200.328 21.0761 200.306 21.1342L200.775 21.3096L201.141 20.969C201.089 20.9136 201.035 20.8562 200.979 20.7968C202.259 17.7134 208.544 4.52235 222.536 1.04941M176.211 9.27513L176.163 9.77282C176.164 9.77294 176.165 9.77305 176.167 9.77317M176.211 9.27513L176.169 9.77336C176.168 9.7733 176.168 9.77324 176.167 9.77317M222.536 1.04941C235.957 -2.20661 246.586 5.34935 251.507 8.98051C262.987 17.0641 266.957 28.3355 268.521 33.0117C268.458 33.0672 268.402 33.1178 268.353 33.1633L268.694 33.5292L269.168 33.3709L269.106 33.1838C269.105 33.1802 269.103 33.1766 269.102 33.173C272.139 30.6436 285.813 21.2442 303.073 24.6197M222.536 1.04941L222.654 1.53532M222.536 1.04941L222.656 1.53468C222.656 1.53489 222.655 1.53511 222.654 1.53532M303.073 24.6197C303.123 24.6299 303.177 24.6407 303.233 24.6521C306.734 25.3588 321.951 28.4305 329.547 42.5749C334.864 52.3914 333.537 62.2047 332.8 66.1003C332.637 66.2391 332.475 66.3794 332.313 66.5212L332.643 66.897L333.133 66.9972C333.171 66.8122 333.213 66.6019 333.258 66.3677C342.798 58.3279 355.095 55.5265 365.093 59.7828M303.073 24.6197L302.973 25.1097C302.974 25.1099 302.975 25.11 302.976 25.1102M303.073 24.6197L302.977 25.1104C302.976 25.1103 302.976 25.1102 302.976 25.1102M365.093 59.7828C376.608 64.9749 380.684 77.0913 382.339 82.7369C385.298 92.8329 384.351 101.806 383.417 106.466C383.355 106.474 383.298 106.482 383.244 106.489L383.309 106.985L383.798 107.09C383.811 107.031 383.823 106.972 383.836 106.912C383.872 106.906 383.909 106.901 383.946 106.896C388.457 106.25 405.54 103.804 415.232 114.221C422.793 122.347 421.975 133.793 420.9 148.843C420.883 149.075 420.866 149.307 420.85 149.541C419.507 164.839 415.493 176.739 412.576 184.13C412.448 184.006 412.319 183.88 412.187 183.754M365.093 59.7828L364.888 60.2386C364.89 60.2394 364.891 60.2401 364.893 60.2408M365.093 59.7828L364.898 60.2429C364.896 60.2422 364.894 60.2415 364.893 60.2408M412.187 183.754C412.12 183.924 412.054 184.091 411.988 184.257C406.294 178.753 396.855 170.939 382.753 165.504C382.611 165.451 382.453 165.392 382.28 165.327C376.702 163.229 355.325 155.191 333.414 161.651C318.252 166.121 310.286 175.203 301.398 185.335C298.462 188.682 295.426 192.144 291.996 195.592M412.187 183.754C415.087 176.377 419.025 164.601 420.351 149.501M412.187 183.754C406.447 178.229 396.995 170.457 382.933 165.038L382.928 165.036C382.784 164.982 382.625 164.922 382.449 164.856C376.863 162.755 355.348 154.662 333.273 161.171C323.088 164.174 316.118 169.241 309.97 175.288C306.901 178.306 304.034 181.572 301.082 184.938L301.026 185.001C298.088 188.35 295.061 191.802 291.643 195.238M291.996 195.592C258.534 228.769 212.168 233.593 187.057 236.206C186.683 236.245 186.314 236.283 185.95 236.321M291.996 195.592L291.644 195.237C291.644 195.238 291.643 195.238 291.643 195.238M291.996 195.592L291.641 195.24C291.642 195.239 291.642 195.239 291.643 195.238M185.95 236.321L185.904 235.824C185.903 235.824 185.902 235.824 185.901 235.824M185.95 236.321L185.898 235.824C185.899 235.824 185.9 235.824 185.901 235.824M185.901 235.824C186.255 235.787 186.613 235.75 186.976 235.712C212.095 233.098 258.308 228.289 291.643 195.238M176.167 9.77317C188.982 11.0101 197.89 18.9435 200.409 21.6502L200.959 22.2421L201.243 21.4849C201.526 20.728 203.186 16.6466 206.631 12.2984C210.074 7.9519 215.279 3.36657 222.654 1.53532M222.654 1.53532C235.83 -1.6614 246.287 5.74981 251.21 9.38283L251.219 9.38942L251.219 9.38932C262.849 17.5789 266.684 29.0807 268.161 33.5127L268.22 33.6875L268.466 34.4248L269.035 33.8952C269.953 33.04 273.939 29.9544 279.959 27.5285C285.971 25.1056 293.983 23.3519 302.976 25.1102M302.976 25.1102C303.023 25.1197 303.073 25.1298 303.125 25.1404C306.61 25.8443 321.623 28.8766 329.107 42.8115L329.107 42.8131C334.748 53.2269 332.797 63.6488 332.153 66.7968L331.855 68.2538L332.973 67.2728C342.487 58.9225 354.898 55.9889 364.893 60.2408M364.893 60.2408C376.178 65.3326 380.204 77.2317 381.859 82.8775C384.901 93.2572 383.773 102.441 382.82 106.88L382.672 107.573L383.374 107.481C383.547 107.458 383.763 107.427 384.017 107.391C386.149 107.086 391.025 106.388 396.597 106.818C402.839 107.3 409.871 109.192 414.866 114.561C418.607 118.582 420.259 123.446 420.834 129.251C421.394 134.904 420.93 141.402 420.399 148.834C420.383 149.055 420.367 149.278 420.351 149.501M420.351 149.501C420.351 149.5 420.352 149.498 420.352 149.497L420.85 149.541L420.351 149.505C420.351 149.504 420.351 149.502 420.351 149.501Z" fill="#101010" stroke="#ECE1CF"/>
</svg>
