<svg width="422" height="238" viewBox="0 0 422 238" fill="none" xmlns="http://www.w3.org/2000/svg">
<path d="M2.63502 145.925C61.3449 174.886 120.955 177.667 155.971 148.135L155.977 148.13L155.982 148.126C164.324 140.879 173.813 129.194 179.989 116.509C186.149 103.859 189.124 89.9757 184.032 78.4883L184.026 78.4759L184.02 78.4637C180.958 72.032 175.42 66.6717 170.226 62.6936C165.017 58.7045 160.068 56.0409 158.081 55.0265C146.824 49.28 136.62 47.6665 129.875 47.0815C131.147 41.7204 135.144 31.036 145.193 22.1494L145.202 22.1409L145.212 22.1322C149.023 18.5833 160.274 9.13805 176.004 10.4615C188.645 11.6825 197.448 19.5181 199.926 22.1811L201.027 23.3651L201.594 21.8506C201.866 21.1247 203.503 17.0941 206.905 12.7993C210.306 8.50728 215.424 4.00704 222.658 2.2109C235.588 -0.924731 245.871 6.34093 250.796 9.97554L250.805 9.98213L250.814 9.98852C262.309 18.083 266.1 29.4537 267.572 33.8678L267.628 34.0362L268.12 35.5108L269.258 34.4515C270.131 33.6387 274.065 30.586 280.029 28.1826C285.978 25.7853 293.889 24.0566 302.761 25.7909C302.762 25.7911 302.763 25.7913 302.764 25.7915L302.901 25.8191C306.369 26.5201 321.178 29.5129 328.549 43.2384L328.551 43.2416C334.103 53.4916 332.186 63.7613 331.546 66.8869L330.95 69.801L333.186 67.8389C342.592 59.583 354.801 56.7339 364.575 60.8891C375.632 65.8806 379.608 77.5625 381.262 83.2085C384.273 93.483 383.156 102.577 382.215 106.965L381.917 108.351L383.322 108.167C383.498 108.144 383.715 108.113 383.972 108.076C386.106 107.771 390.928 107.082 396.441 107.507C402.626 107.985 409.51 109.855 414.383 115.092C418.026 119.008 419.652 123.755 420.22 129.491C420.776 135.1 420.314 141.56 419.781 149.015L419.737 149.643C419.736 149.646 419.736 149.648 419.736 149.651C418.456 164.221 414.734 175.683 411.876 183.067C406.06 177.553 396.706 170.045 382.996 164.762L382.986 164.758C382.841 164.704 382.679 164.643 382.501 164.576C376.906 162.471 355.255 154.325 333.014 160.882C322.731 163.914 315.692 169.034 309.502 175.122C306.418 178.155 303.54 181.435 300.589 184.798L300.538 184.856C297.598 188.208 294.579 191.65 291.173 195.075C257.964 227.999 211.904 232.793 186.778 235.408C186.426 235.445 186.079 235.481 185.736 235.517C166.816 237.246 119.582 241.404 70.6231 213.504L70.6223 213.504C32.8111 192.004 12.1814 162.192 2.63502 145.925Z" fill="#ECE1CF" stroke="#ECE1CF" stroke-width="2"/>
</svg>
