<svg width="711" height="222" viewBox="0 0 711 222" fill="none" xmlns="http://www.w3.org/2000/svg">
<rect x="0.0810547" y="0.184082" width="710" height="221" rx="110.5" fill="#EFB854"/>
<path d="M236.585 116.872H254.441V109.192H238.985L242.825 96.6161H255.977V88.9361H245.321L252.041 67.4321H244.649L237.833 88.9361H224.489L231.305 67.4321H223.817L217.097 88.9361H198.377V96.6161H214.601L210.761 109.192H196.841V116.872H208.361L201.737 138.184H209.225L215.753 116.872H229.097L222.473 138.184H230.057L236.585 116.872ZM235.337 96.6161L231.497 109.192H218.153L221.993 96.6161H235.337ZM292.393 139.528C300.361 139.528 306.793 137.704 311.689 133.96C316.585 130.216 319.081 125.416 319.081 119.464C319.081 109.672 314.089 103.912 304.105 102.184C307.657 101.32 310.729 99.4961 313.129 96.5201C315.625 93.5441 316.873 90.1841 316.873 86.2481C316.873 80.5841 314.665 75.9761 310.345 72.6161C306.025 69.2561 300.553 67.5281 293.833 67.5281C287.689 67.5281 282.313 68.8721 276.937 72.2321C271.657 75.5921 268.201 82.3121 267.721 91.5281L278.185 92.8721C278.473 86.5361 279.817 82.2161 282.217 79.9121C284.713 77.6081 288.553 76.4561 293.833 76.4561C302.569 76.4561 307.081 80.4881 307.081 86.6321C307.081 93.0641 302.953 98.1521 295.369 98.1521H287.017V107.08H295.369C303.721 107.08 308.809 111.208 308.809 118.216C308.809 125.608 303.145 130.6 292.393 130.6C282.793 130.6 277.225 125.8 276.745 113.224L266.281 114.568C267.337 133.96 280.201 139.528 292.393 139.528ZM339.234 77.8001C339.234 93.4481 338.85 105.16 338.178 112.744C337.506 120.328 336.642 125.224 335.394 127.336C334.146 129.448 332.322 130.504 329.826 130.504C327.618 130.504 325.89 130.12 324.45 129.448L322.53 137.608C327.426 140.2 333.474 140.008 337.41 138.184C341.346 136.36 344.226 131.944 346.05 125.896C347.97 119.848 349.026 109.672 349.41 98.4401C349.698 92.7761 349.794 85.8641 349.794 77.8001H372.45V138.184H382.626V68.8721H339.234V77.8001ZM452.338 138.184L426.61 68.8721H416.53L390.802 138.184H400.402L406.45 121.48H435.442L441.49 138.184H452.338ZM432.178 112.552H409.618L420.85 81.6401L432.178 112.552ZM462.217 89.1281C462.217 98.2481 466.921 105.256 475.753 107.56C471.433 110.248 468.841 114.76 467.977 121.096C466.921 128.296 464.809 130.696 461.257 130.696C460.009 130.696 458.857 130.408 457.609 129.736L456.169 136.936C458.569 138.664 461.257 139.528 464.137 139.528C471.913 139.528 475.177 135.88 477.193 126.76L478.057 122.344L478.825 118.312C479.017 117.544 479.401 116.584 479.881 115.336C481.321 111.976 483.433 111.304 488.425 110.92H501.769V138.184H511.945V68.8721H487.177C470.569 68.8721 462.217 75.5921 462.217 89.1281ZM501.769 101.992H487.081C476.425 101.992 472.393 96.6161 472.393 89.4161C472.393 81.6401 477.289 77.8001 487.081 77.8001H501.769V101.992Z" fill="#ECE1CF"/>
</svg>
