<svg width="711" height="221" viewBox="0 0 711 221" fill="none" xmlns="http://www.w3.org/2000/svg">
<rect x="0.994385" y="0.342041" width="710" height="220" rx="110" fill="#ECE1CF"/>
<path d="M199.594 76.114C210.25 76.114 215.722 81.874 216.202 93.49L226.666 92.146C226.186 82.93 222.634 75.922 217.258 72.37C211.882 68.818 206.122 67.186 199.594 67.186C180.298 67.186 169.834 80.818 169.834 103.57C169.834 126.994 181.162 139.186 199.594 139.186C206.122 139.186 211.978 137.362 217.258 133.522C222.634 129.682 226.186 122.482 226.666 113.266L216.202 111.922C215.722 124.498 209.194 130.258 199.594 130.258C193.546 130.258 188.746 128.242 185.386 124.21C182.026 120.082 180.298 113.266 180.298 103.57C180.298 84.37 186.442 76.114 199.594 76.114ZM278.981 116.914C277.349 109.234 273.893 104.338 268.517 102.13C273.605 99.538 275.621 94.546 277.157 86.482C278.021 81.97 278.789 79.09 279.653 77.842C280.517 76.594 281.861 76.018 283.589 76.018C284.933 76.018 286.181 76.306 287.429 76.978L288.869 69.778C286.469 68.05 283.781 67.186 280.901 67.186C272.741 67.186 269.861 72.466 268.037 82.834C266.981 88.498 265.829 92.338 264.581 94.546C263.333 96.754 261.029 97.81 257.573 97.81H247.109V68.53H236.933V137.842H247.109V106.738H258.533C261.317 106.738 263.237 106.93 264.677 108.082C266.213 109.138 266.885 109.618 267.557 111.826C268.325 113.842 268.517 114.61 268.997 117.778L269.765 121.618C270.917 126.61 271.973 130.066 273.893 133.618C275.909 137.17 278.981 139.186 282.821 139.186C285.701 139.186 288.389 138.322 290.789 136.594L289.349 129.394C288.101 130.066 286.949 130.354 285.701 130.354C284.069 130.354 282.821 129.586 281.957 127.954C281.093 126.322 280.133 122.578 278.981 116.914ZM356.189 137.842L330.461 68.53H320.381L294.653 137.842H304.253L310.301 121.138H339.293L345.341 137.842H356.189ZM336.029 112.21H313.469L324.701 81.298L336.029 112.21ZM386.368 139.186C394.336 139.186 400.768 137.362 405.664 133.618C410.56 129.874 413.056 125.074 413.056 119.122C413.056 109.33 408.064 103.57 398.08 101.842C401.632 100.978 404.704 99.154 407.104 96.178C409.6 93.202 410.848 89.842 410.848 85.906C410.848 80.242 408.64 75.634 404.32 72.274C400 68.914 394.528 67.186 387.808 67.186C381.664 67.186 376.288 68.53 370.912 71.89C365.632 75.25 362.176 81.97 361.696 91.186L372.16 92.53C372.448 86.194 373.792 81.874 376.192 79.57C378.688 77.266 382.528 76.114 387.808 76.114C396.544 76.114 401.056 80.146 401.056 86.29C401.056 92.722 396.928 97.81 389.344 97.81H380.992V106.738H389.344C397.696 106.738 402.784 110.866 402.784 117.874C402.784 125.266 397.12 130.258 386.368 130.258C376.768 130.258 371.2 125.458 370.72 112.882L360.256 114.226C361.312 133.618 374.176 139.186 386.368 139.186ZM466.669 116.914C465.037 109.234 461.581 104.338 456.205 102.13C461.293 99.538 463.309 94.546 464.845 86.482C465.709 81.97 466.477 79.09 467.341 77.842C468.205 76.594 469.549 76.018 471.277 76.018C472.621 76.018 473.869 76.306 475.117 76.978L476.557 69.778C474.157 68.05 471.469 67.186 468.589 67.186C460.429 67.186 457.549 72.466 455.725 82.834C454.669 88.498 453.517 92.338 452.269 94.546C451.021 96.754 448.717 97.81 445.261 97.81H434.797V68.53H424.621V137.842H434.797V106.738H446.221C449.005 106.738 450.925 106.93 452.365 108.082C453.901 109.138 454.573 109.618 455.245 111.826C456.013 113.842 456.205 114.61 456.685 117.778L457.453 121.618C458.605 126.61 459.661 130.066 461.581 133.618C463.597 137.17 466.669 139.186 470.509 139.186C473.389 139.186 476.077 138.322 478.477 136.594L477.037 129.394C475.789 130.066 474.637 130.354 473.389 130.354C471.757 130.354 470.509 129.586 469.645 127.954C468.781 126.322 467.821 122.578 466.669 116.914ZM543.877 137.842L518.149 68.53H508.069L482.341 137.842H491.941L497.989 121.138H526.981L533.029 137.842H543.877ZM523.717 112.21H501.157L512.389 81.298L523.717 112.21Z" fill="black"/>
</svg>
